<svg width="100" height="100" viewBox="0 0 100 100" fill="none" xmlns="http://www.w3.org/2000/svg">
<path fill-rule="evenodd" clip-rule="evenodd" d="M30.6054 16.7384C43.4965 15.3111 56.5059 15.3111 69.397 16.7384C76.5345 17.5384 82.2929 23.1593 83.1304 30.3218C84.6579 43.3968 84.6579 56.6051 83.1304 69.6801C82.2929 76.8426 76.5345 82.4634 69.397 83.2634C56.5059 84.6908 43.4965 84.6908 30.6054 83.2634C23.4678 82.4634 17.7095 76.8426 16.872 69.6801C15.3447 56.6065 15.3447 43.3995 16.872 30.3259C17.2956 26.8462 18.8819 23.6116 21.3738 21.1461C23.8657 18.6807 27.1172 17.129 30.6012 16.7426M50.0012 29.1968C50.83 29.1968 51.6248 29.526 52.2109 30.1121C52.7969 30.6981 53.1262 31.493 53.1262 32.3218V46.8759H67.6804C68.5092 46.8759 69.304 47.2052 69.8901 47.7912C70.4761 48.3773 70.8054 49.1721 70.8054 50.0009C70.8054 50.8297 70.4761 51.6246 69.8901 52.2107C69.304 52.7967 68.5092 53.1259 67.6804 53.1259H53.1262V67.6801C53.1262 68.5089 52.7969 69.3038 52.2109 69.8898C51.6248 70.4759 50.83 70.8051 50.0012 70.8051C49.1724 70.8051 48.3775 70.4759 47.7915 69.8898C47.2054 69.3038 46.8762 68.5089 46.8762 67.6801V53.1259H32.322C31.4932 53.1259 30.6984 52.7967 30.1123 52.2107C29.5263 51.6246 29.197 50.8297 29.197 50.0009C29.197 49.1721 29.5263 48.3773 30.1123 47.7912C30.6984 47.2052 31.4932 46.8759 32.322 46.8759H46.8762V32.3218C46.8762 31.493 47.2054 30.6981 47.7915 30.1121C48.3775 29.526 49.1724 29.1968 50.0012 29.1968Z" fill="#04B3E3"/>
</svg>
