<svg width="135" height="139" viewBox="0 0 135 139" fill="none" xmlns="http://www.w3.org/2000/svg">
<path d="M60.0556 74.4643C60.0556 77.4098 59.1823 80.2892 57.5463 82.7383C55.9103 85.1874 53.585 87.0963 50.8644 88.2235C48.1438 89.3507 45.1502 89.6456 42.262 89.071C39.3738 88.4963 36.7209 87.0779 34.6386 84.9951C32.5564 82.9123 31.1384 80.2587 30.5639 77.3697C29.9894 74.4808 30.2842 71.4864 31.4111 68.765C32.538 66.0437 34.4464 63.7178 36.8948 62.0813C39.3433 60.4449 42.2219 59.5714 45.1667 59.5714C49.1154 59.5714 52.9025 61.1405 55.6947 63.9334C58.4869 66.7264 60.0556 70.5145 60.0556 74.4643ZM89.8333 59.5714C86.8886 59.5714 84.01 60.4449 81.5615 62.0813C79.1131 63.7178 77.2047 66.0437 76.0778 68.765C74.9509 71.4864 74.656 74.4808 75.2305 77.3697C75.805 80.2587 77.2231 82.9123 79.3053 84.9951C81.3876 87.0779 84.0405 88.4963 86.9286 89.071C89.8168 89.6456 92.8105 89.3507 95.5311 88.2235C98.2517 87.0963 100.577 85.1874 102.213 82.7383C103.849 80.2892 104.722 77.4098 104.722 74.4643C104.722 70.5145 103.154 66.7264 100.361 63.9334C97.5692 61.1405 93.7821 59.5714 89.8333 59.5714ZM134.5 64.5357C134.5 83.0587 126.404 100.39 112.167 112.64V126.589C112.167 129.881 110.859 133.038 108.533 135.365C106.206 137.692 103.05 139 99.7593 139H35.2407C31.9501 139 28.7942 137.692 26.4674 135.365C24.1405 133.038 22.8333 129.881 22.8333 126.589V112.64C8.56482 100.39 0.5 83.0587 0.5 64.5357C0.5 28.948 30.5569 0 67.5 0C104.443 0 134.5 28.948 134.5 64.5357ZM119.611 64.5357C119.611 37.1639 96.2356 14.8929 67.5 14.8929C38.7644 14.8929 15.3889 37.1639 15.3889 64.5357C15.3889 79.6209 22.4673 93.7009 34.8127 103.195C35.718 103.891 36.4513 104.785 36.9558 105.81C37.4603 106.834 37.7226 107.961 37.7222 109.103V124.107H47.6481V111.696C47.6481 109.722 48.4325 107.827 49.8286 106.431C51.2247 105.035 53.1182 104.25 55.0926 104.25C57.067 104.25 58.9605 105.035 60.3566 106.431C61.7527 107.827 62.537 109.722 62.537 111.696V124.107H72.463V111.696C72.463 109.722 73.2473 107.827 74.6434 106.431C76.0395 105.035 77.933 104.25 79.9074 104.25C81.8818 104.25 83.7753 105.035 85.1714 106.431C86.5675 107.827 87.3519 109.722 87.3519 111.696V124.107H97.2778V109.103C97.2784 107.962 97.5411 106.836 98.0456 105.813C98.55 104.79 99.2828 103.896 100.187 103.201C112.533 93.7009 119.611 79.6209 119.611 64.5357Z" fill="white"/>
</svg>
