<svg width="1440" height="258" viewBox="0 0 1440 258" fill="none" xmlns="http://www.w3.org/2000/svg">
<g opacity="0.5" clip-path="url(#clip0_2389_3997)">
<g opacity="0.15" clip-path="url(#clip1_2389_3997)">
<path d="M46.5861 196.46C32.3228 211.755 33.1626 235.803 48.4581 250.067C63.7536 264.33 87.8015 263.49 102.065 248.195C116.328 232.899 115.488 208.851 100.193 194.588C84.8973 180.325 60.8494 181.164 46.5861 196.46ZM96.5169 243.021C85.1068 255.257 65.8674 255.929 53.6316 244.519C41.3957 233.109 40.7239 213.869 52.134 201.633C63.5441 189.398 82.7835 188.726 95.0193 200.136C107.255 211.546 107.927 230.785 96.5169 243.021Z" fill="#04B3E3"/>
<path d="M63.0485 206.62L57.875 212.168L72.8931 226.173L90.5458 225.556L90.2811 217.976L75.7697 218.483L63.0485 206.62Z" fill="#04B3E3"/>
<path d="M257.586 198.46C243.323 213.755 244.163 237.803 259.458 252.067C274.754 266.33 298.802 265.49 313.065 250.195C327.328 234.899 326.488 210.851 311.193 196.588C295.897 182.325 271.849 183.164 257.586 198.46ZM307.517 245.021C296.107 257.257 276.867 257.929 264.632 246.519C252.396 235.109 251.724 215.869 263.134 203.633C274.544 191.398 293.784 190.726 306.019 202.136C318.255 213.546 318.927 232.785 307.517 245.021Z" fill="#04B3E3"/>
<path d="M274.048 208.62L268.875 214.168L283.893 228.173L301.546 227.556L301.281 219.976L286.77 220.483L274.048 208.62Z" fill="#04B3E3"/>
<path d="M468.586 199.46C454.323 214.755 455.163 238.803 470.458 253.067C485.754 267.33 509.802 266.49 524.065 251.195C538.328 235.899 537.488 211.851 522.193 197.588C506.897 183.325 482.849 184.164 468.586 199.46ZM518.517 246.021C507.107 258.257 487.867 258.929 475.632 247.519C463.396 236.109 462.724 216.869 474.134 204.633C485.544 192.398 504.784 191.726 517.019 203.136C529.255 214.546 529.927 233.785 518.517 246.021Z" fill="#04B3E3"/>
<path d="M485.048 209.62L479.875 215.168L494.893 229.173L512.546 228.556L512.281 220.976L497.77 221.483L485.048 209.62Z" fill="#04B3E3"/>
<path d="M679.586 195.46C665.323 210.755 666.163 234.803 681.458 249.067C696.754 263.33 720.802 262.49 735.065 247.195C749.328 231.899 748.488 207.851 733.193 193.588C717.897 179.325 693.849 180.164 679.586 195.46ZM729.517 242.021C718.107 254.257 698.867 254.929 686.632 243.519C674.396 232.109 673.724 212.869 685.134 200.633C696.544 188.398 715.784 187.726 728.019 199.136C740.255 210.546 740.927 229.785 729.517 242.021Z" fill="#04B3E3"/>
<path d="M696.048 205.62L690.875 211.168L705.893 225.173L723.546 224.556L723.281 216.976L708.77 217.483L696.048 205.62Z" fill="#04B3E3"/>
<path d="M890.586 194.46C876.323 209.755 877.163 233.803 892.458 248.067C907.754 262.33 931.802 261.49 946.065 246.195C960.328 230.899 959.488 206.851 944.193 192.588C928.897 178.325 904.849 179.164 890.586 194.46ZM940.517 241.021C929.107 253.257 909.867 253.929 897.632 242.519C885.396 231.109 884.724 211.869 896.134 199.633C907.544 187.398 926.784 186.726 939.019 198.136C951.255 209.546 951.927 228.785 940.517 241.021Z" fill="#04B3E3"/>
<path d="M907.048 204.62L901.875 210.168L916.893 224.173L934.546 223.556L934.281 215.976L919.77 216.483L907.048 204.62Z" fill="#04B3E3"/>
<path d="M1101.59 197.46C1087.32 212.755 1088.16 236.803 1103.46 251.067C1118.75 265.33 1142.8 264.49 1157.06 249.195C1171.33 233.899 1170.49 209.851 1155.19 195.588C1139.9 181.325 1115.85 182.164 1101.59 197.46ZM1151.52 244.021C1140.11 256.257 1120.87 256.929 1108.63 245.519C1096.4 234.109 1095.72 214.869 1107.13 202.633C1118.54 190.398 1137.78 189.726 1150.02 201.136C1162.26 212.546 1162.93 231.785 1151.52 244.021Z" fill="#04B3E3"/>
<path d="M1118.05 207.62L1112.88 213.168L1127.89 227.173L1145.55 226.556L1145.28 218.976L1130.77 219.483L1118.05 207.62Z" fill="#04B3E3"/>
<path d="M1312.59 196.46C1298.32 211.755 1299.16 235.803 1314.46 250.067C1329.75 264.33 1353.8 263.49 1368.06 248.195C1382.33 232.899 1381.49 208.851 1366.19 194.588C1350.9 180.325 1326.85 181.164 1312.59 196.46ZM1362.52 243.021C1351.11 255.257 1331.87 255.929 1319.63 244.519C1307.4 233.109 1306.72 213.869 1318.13 201.633C1329.54 189.398 1348.78 188.726 1361.02 200.136C1373.26 211.546 1373.93 230.785 1362.52 243.021Z" fill="#04B3E3"/>
<path d="M1329.05 206.62L1323.88 212.168L1338.89 226.173L1356.55 225.556L1356.28 217.976L1341.77 218.483L1329.05 206.62Z" fill="#04B3E3"/>
<path d="M183.868 230.583C178.677 230.583 173.81 229.594 169.269 227.616C164.727 225.638 160.771 222.966 157.402 219.599C154.032 216.231 151.359 212.276 149.381 207.732C147.403 203.188 146.414 198.32 146.414 193.129C146.414 184.105 149.288 176.148 155.036 169.258C160.784 162.368 168.108 158.087 177.008 156.416C175.895 162.535 176.235 168.515 178.028 174.357C179.82 180.199 182.91 185.313 187.298 189.698C191.687 194.084 196.802 197.174 202.644 198.969C208.485 200.764 214.464 201.104 220.581 199.989C218.974 208.889 214.709 216.213 207.787 221.961C200.865 227.709 192.892 230.583 183.868 230.583ZM183.868 223.166C189.307 223.166 194.344 221.806 198.98 219.087C203.615 216.367 207.262 212.628 209.919 207.869C204.604 207.375 199.567 206.03 194.808 203.834C190.049 201.639 185.784 198.658 182.014 194.89C178.244 191.122 175.246 186.858 173.021 182.096C170.796 177.335 169.468 172.298 169.035 166.985C164.276 169.642 160.553 173.305 157.865 177.973C155.178 182.64 153.833 187.692 153.831 193.129C153.831 201.472 156.752 208.565 162.594 214.407C168.435 220.249 175.527 223.168 183.868 223.166Z" fill="#04B3E3"/>
<path d="M394.868 226.583C389.677 226.583 384.81 225.594 380.269 223.616C375.727 221.638 371.771 218.966 368.402 215.599C365.032 212.231 362.359 208.276 360.381 203.732C358.403 199.188 357.414 194.32 357.414 189.129C357.414 180.105 360.288 172.148 366.036 165.258C371.784 158.368 379.108 154.087 388.008 152.416C386.895 158.535 387.235 164.515 389.028 170.357C390.82 176.199 393.91 181.313 398.298 185.698C402.687 190.084 407.802 193.174 413.644 194.969C419.485 196.764 425.464 197.104 431.581 195.989C429.974 204.889 425.709 212.213 418.787 217.961C411.865 223.709 403.892 226.583 394.868 226.583ZM394.868 219.166C400.307 219.166 405.344 217.806 409.98 215.087C414.615 212.367 418.262 208.628 420.919 203.869C415.604 203.375 410.567 202.03 405.808 199.834C401.049 197.639 396.784 194.658 393.014 190.89C389.244 187.122 386.246 182.858 384.021 178.096C381.796 173.335 380.468 168.298 380.035 162.985C375.276 165.642 371.553 169.305 368.865 173.973C366.178 178.64 364.833 183.692 364.831 189.129C364.831 197.472 367.752 204.565 373.594 210.407C379.435 216.249 386.527 219.168 394.868 219.166Z" fill="#04B3E3"/>
<path d="M605.868 227.583C600.677 227.583 595.81 226.594 591.269 224.616C586.727 222.638 582.771 219.966 579.402 216.599C576.032 213.231 573.359 209.276 571.381 204.732C569.403 200.188 568.414 195.32 568.414 190.129C568.414 181.105 571.288 173.148 577.036 166.258C582.784 159.368 590.108 155.087 599.008 153.416C597.895 159.535 598.235 165.515 600.028 171.357C601.82 177.199 604.91 182.313 609.298 186.698C613.687 191.084 618.802 194.174 624.644 195.969C630.485 197.764 636.464 198.104 642.581 196.989C640.974 205.889 636.709 213.213 629.787 218.961C622.865 224.709 614.892 227.583 605.868 227.583ZM605.868 220.166C611.307 220.166 616.344 218.806 620.98 216.087C625.615 213.367 629.262 209.628 631.919 204.869C626.604 204.375 621.567 203.03 616.808 200.834C612.049 198.639 607.784 195.658 604.014 191.89C600.244 188.122 597.246 183.858 595.021 179.096C592.796 174.335 591.468 169.298 591.035 163.985C586.276 166.642 582.553 170.305 579.865 174.973C577.178 179.64 575.833 184.692 575.831 190.129C575.831 198.472 578.752 205.565 584.594 211.407C590.435 217.249 597.527 220.168 605.868 220.166Z" fill="#04B3E3"/>
<path d="M816.868 226.583C811.677 226.583 806.81 225.594 802.269 223.616C797.727 221.638 793.771 218.966 790.402 215.599C787.032 212.231 784.359 208.276 782.381 203.732C780.403 199.188 779.414 194.32 779.414 189.129C779.414 180.105 782.288 172.148 788.036 165.258C793.784 158.368 801.108 154.087 810.008 152.416C808.895 158.535 809.235 164.515 811.028 170.357C812.82 176.199 815.91 181.313 820.298 185.698C824.687 190.084 829.802 193.174 835.644 194.969C841.485 196.764 847.464 197.104 853.581 195.989C851.974 204.889 847.709 212.213 840.787 217.961C833.865 223.709 825.892 226.583 816.868 226.583ZM816.868 219.166C822.307 219.166 827.344 217.806 831.98 215.087C836.615 212.367 840.262 208.628 842.919 203.869C837.604 203.375 832.567 202.03 827.808 199.834C823.049 197.639 818.784 194.658 815.014 190.89C811.244 187.122 808.246 182.858 806.021 178.096C803.796 173.335 802.468 168.298 802.035 162.985C797.276 165.642 793.553 169.305 790.865 173.973C788.178 178.64 786.833 183.692 786.831 189.129C786.831 197.472 789.752 204.565 795.594 210.407C801.435 216.249 808.527 219.168 816.868 219.166Z" fill="#04B3E3"/>
<path d="M1027.87 235.583C1022.68 235.583 1017.81 234.594 1013.27 232.616C1008.73 230.638 1004.77 227.966 1001.4 224.599C998.032 221.231 995.359 217.276 993.381 212.732C991.403 208.188 990.414 203.32 990.414 198.129C990.414 189.105 993.288 181.148 999.036 174.258C1004.78 167.368 1012.11 163.087 1021.01 161.416C1019.9 167.535 1020.24 173.515 1022.03 179.357C1023.82 185.199 1026.91 190.313 1031.3 194.698C1035.69 199.084 1040.8 202.174 1046.64 203.969C1052.49 205.764 1058.46 206.104 1064.58 204.989C1062.97 213.889 1058.71 221.213 1051.79 226.961C1044.86 232.709 1036.89 235.583 1027.87 235.583ZM1027.87 228.166C1033.31 228.166 1038.34 226.806 1042.98 224.087C1047.62 221.367 1051.26 217.628 1053.92 212.869C1048.6 212.375 1043.57 211.03 1038.81 208.834C1034.05 206.639 1029.78 203.658 1026.01 199.89C1022.24 196.122 1019.25 191.858 1017.02 187.096C1014.8 182.335 1013.47 177.298 1013.03 171.985C1008.28 174.642 1004.55 178.305 1001.87 182.973C999.178 187.64 997.833 192.692 997.831 198.129C997.831 206.472 1000.75 213.565 1006.59 219.407C1012.44 225.249 1019.53 228.168 1027.87 228.166Z" fill="#04B3E3"/>
<path d="M1238.87 235.583C1233.68 235.583 1228.81 234.594 1224.27 232.616C1219.73 230.638 1215.77 227.966 1212.4 224.599C1209.03 221.231 1206.36 217.276 1204.38 212.732C1202.4 208.188 1201.41 203.32 1201.41 198.129C1201.41 189.105 1204.29 181.148 1210.04 174.258C1215.78 167.368 1223.11 163.087 1232.01 161.416C1230.9 167.535 1231.24 173.515 1233.03 179.357C1234.82 185.199 1237.91 190.313 1242.3 194.698C1246.69 199.084 1251.8 202.174 1257.64 203.969C1263.49 205.764 1269.46 206.104 1275.58 204.989C1273.97 213.889 1269.71 221.213 1262.79 226.961C1255.86 232.709 1247.89 235.583 1238.87 235.583ZM1238.87 228.166C1244.31 228.166 1249.34 226.806 1253.98 224.087C1258.62 221.367 1262.26 217.628 1264.92 212.869C1259.6 212.375 1254.57 211.03 1249.81 208.834C1245.05 206.639 1240.78 203.658 1237.01 199.89C1233.24 196.122 1230.25 191.858 1228.02 187.096C1225.8 182.335 1224.47 177.298 1224.03 171.985C1219.28 174.642 1215.55 178.305 1212.87 182.973C1210.18 187.64 1208.83 192.692 1208.83 198.129C1208.83 206.472 1211.75 213.565 1217.59 219.407C1223.44 225.249 1230.53 228.168 1238.87 228.166Z" fill="#04B3E3"/>
<path d="M1449.87 223.583C1444.68 223.583 1439.81 222.594 1435.27 220.616C1430.73 218.638 1426.77 215.966 1423.4 212.599C1420.03 209.231 1417.36 205.276 1415.38 200.732C1413.4 196.188 1412.41 191.32 1412.41 186.129C1412.41 177.105 1415.29 169.148 1421.04 162.258C1426.78 155.368 1434.11 151.087 1443.01 149.416C1441.9 155.535 1442.24 161.515 1444.03 167.357C1445.82 173.199 1448.91 178.313 1453.3 182.698C1457.69 187.084 1462.8 190.174 1468.64 191.969C1474.49 193.764 1480.46 194.104 1486.58 192.989C1484.97 201.889 1480.71 209.213 1473.79 214.961C1466.86 220.709 1458.89 223.583 1449.87 223.583ZM1449.87 216.166C1455.31 216.166 1460.34 214.806 1464.98 212.087C1469.62 209.367 1473.26 205.628 1475.92 200.869C1470.6 200.375 1465.57 199.03 1460.81 196.834C1456.05 194.639 1451.78 191.658 1448.01 187.89C1444.24 184.122 1441.25 179.858 1439.02 175.096C1436.8 170.335 1435.47 165.298 1435.03 159.985C1430.28 162.642 1426.55 166.305 1423.87 170.973C1421.18 175.64 1419.83 180.692 1419.83 186.129C1419.83 194.472 1422.75 201.565 1428.59 207.407C1434.44 213.249 1441.53 216.168 1449.87 216.166Z" fill="#04B3E3"/>
</g>
<g opacity="0.15" clip-path="url(#clip2_2389_3997)">
<path d="M1394.41 101.46C1408.68 116.755 1407.84 140.803 1392.54 155.067C1377.25 169.33 1353.2 168.49 1338.94 153.195C1324.67 137.899 1325.51 113.851 1340.81 99.5879C1356.1 85.3246 1380.15 86.1644 1394.41 101.46ZM1344.48 148.021C1355.89 160.257 1375.13 160.929 1387.37 149.519C1399.6 138.109 1400.28 118.869 1388.87 106.633C1377.46 94.3975 1358.22 93.7257 1345.98 105.136C1333.74 116.546 1333.07 135.785 1344.48 148.021Z" fill="#04B3E3"/>
<path d="M1377.95 111.62L1383.12 117.168L1368.11 131.173L1350.45 130.556L1350.72 122.976L1365.23 123.483L1377.95 111.62Z" fill="#04B3E3"/>
<path d="M1183.41 103.46C1197.68 118.755 1196.84 142.803 1181.54 157.067C1166.25 171.33 1142.2 170.49 1127.94 155.195C1113.67 139.899 1114.51 115.851 1129.81 101.588C1145.1 87.3246 1169.15 88.1644 1183.41 103.46ZM1133.48 150.021C1144.89 162.257 1164.13 162.929 1176.37 151.519C1188.6 140.109 1189.28 120.869 1177.87 108.633C1166.46 96.3975 1147.22 95.7257 1134.98 107.136C1122.74 118.546 1122.07 137.785 1133.48 150.021Z" fill="#04B3E3"/>
<path d="M1166.95 113.62L1172.12 119.168L1157.11 133.173L1139.45 132.556L1139.72 124.976L1154.23 125.483L1166.95 113.62Z" fill="#04B3E3"/>
<path d="M972.414 104.46C986.677 119.755 985.837 143.803 970.542 158.067C955.246 172.33 931.198 171.49 916.935 156.195C902.672 140.899 903.512 116.851 918.807 102.588C934.103 88.3246 958.151 89.1644 972.414 104.46ZM922.483 151.021C933.893 163.257 953.133 163.929 965.368 152.519C977.604 141.109 978.276 121.869 966.866 109.633C955.456 97.3975 936.216 96.7257 923.981 108.136C911.745 119.546 911.073 138.785 922.483 151.021Z" fill="#04B3E3"/>
<path d="M955.952 114.62L961.125 120.168L946.107 134.173L928.454 133.556L928.719 125.976L943.23 126.483L955.952 114.62Z" fill="#04B3E3"/>
<path d="M761.414 100.46C775.677 115.755 774.837 139.803 759.542 154.067C744.246 168.33 720.198 167.49 705.935 152.195C691.672 136.899 692.512 112.851 707.807 98.5879C723.103 84.3246 747.151 85.1644 761.414 100.46ZM711.483 147.021C722.893 159.257 742.133 159.929 754.368 148.519C766.604 137.109 767.276 117.869 755.866 105.633C744.456 93.3975 725.216 92.7257 712.981 104.136C700.745 115.546 700.073 134.785 711.483 147.021Z" fill="#04B3E3"/>
<path d="M744.952 110.62L750.125 116.168L735.107 130.173L717.454 129.556L717.719 121.976L732.23 122.483L744.952 110.62Z" fill="#04B3E3"/>
<path d="M550.414 99.4599C564.677 114.755 563.837 138.803 548.542 153.067C533.246 167.33 509.198 166.49 494.935 151.195C480.672 135.899 481.512 111.851 496.807 97.5879C512.103 83.3246 536.151 84.1644 550.414 99.4599ZM500.483 146.021C511.893 158.257 531.133 158.929 543.368 147.519C555.604 136.109 556.276 116.869 544.866 104.633C533.456 92.3975 514.216 91.7257 501.981 103.136C489.745 114.546 489.073 133.785 500.483 146.021Z" fill="#04B3E3"/>
<path d="M533.952 109.62L539.125 115.168L524.107 129.173L506.454 128.556L506.719 120.976L521.23 121.483L533.952 109.62Z" fill="#04B3E3"/>
<path d="M339.414 102.46C353.677 117.755 352.837 141.803 337.542 156.067C322.246 170.33 298.198 169.49 283.935 154.195C269.672 138.899 270.512 114.851 285.807 100.588C301.103 86.3246 325.151 87.1644 339.414 102.46ZM289.483 149.021C300.893 161.257 320.133 161.929 332.368 150.519C344.604 139.109 345.276 119.869 333.866 107.633C322.456 95.3975 303.216 94.7257 290.981 106.136C278.745 117.546 278.073 136.785 289.483 149.021Z" fill="#04B3E3"/>
<path d="M322.952 112.62L328.125 118.168L313.107 132.173L295.454 131.556L295.719 123.976L310.23 124.483L322.952 112.62Z" fill="#04B3E3"/>
<path d="M128.414 101.46C142.677 116.755 141.837 140.803 126.542 155.067C111.246 169.33 87.1985 168.49 72.9352 153.195C58.672 137.899 59.5117 113.851 74.8072 99.5879C90.1027 85.3246 114.151 86.1644 128.414 101.46ZM78.4831 148.021C89.8932 160.257 109.133 160.929 121.368 149.519C133.604 138.109 134.276 118.869 122.866 106.633C111.456 94.3975 92.2165 93.7257 79.9807 105.136C67.7449 116.546 67.073 135.785 78.4831 148.021Z" fill="#04B3E3"/>
<path d="M111.952 111.62L117.125 117.168L102.107 131.173L84.4542 130.556L84.7189 122.976L99.2303 123.483L111.952 111.62Z" fill="#04B3E3"/>
<path d="M1257.13 135.583C1262.32 135.583 1267.19 134.594 1271.73 132.616C1276.27 130.638 1280.23 127.966 1283.6 124.599C1286.97 121.231 1289.64 117.276 1291.62 112.732C1293.6 108.188 1294.59 103.32 1294.59 98.1285C1294.59 89.1049 1291.71 81.1481 1285.96 74.258C1280.22 67.3679 1272.89 63.0872 1263.99 61.416C1265.1 67.5348 1264.76 73.5151 1262.97 79.3569C1261.18 85.1988 1258.09 90.3126 1253.7 94.6983C1249.31 99.084 1244.2 102.174 1238.36 103.969C1232.51 105.764 1226.54 106.104 1220.42 104.989C1222.03 113.889 1226.29 121.213 1233.21 126.961C1240.14 132.709 1248.11 135.583 1257.13 135.583ZM1257.13 128.166C1251.69 128.166 1246.66 126.806 1242.02 124.087C1237.38 121.367 1233.74 117.628 1231.08 112.869C1236.4 112.375 1241.43 111.03 1246.19 108.834C1250.95 106.639 1255.22 103.658 1258.99 99.89C1262.76 96.1223 1265.75 91.8577 1267.98 87.0962C1270.2 82.3347 1271.53 77.2976 1271.97 71.9848C1276.72 74.6424 1280.45 78.305 1283.13 82.9726C1285.82 87.6401 1287.17 92.6921 1287.17 98.1285C1287.17 106.472 1284.25 113.565 1278.41 119.407C1272.56 125.249 1265.47 128.168 1257.13 128.166Z" fill="#04B3E3"/>
<path d="M1046.13 131.583C1051.32 131.583 1056.19 130.594 1060.73 128.616C1065.27 126.638 1069.23 123.966 1072.6 120.599C1075.97 117.231 1078.64 113.276 1080.62 108.732C1082.6 104.188 1083.59 99.3202 1083.59 94.1285C1083.59 85.1049 1080.71 77.1481 1074.96 70.258C1069.22 63.3679 1061.89 59.0872 1052.99 57.416C1054.1 63.5348 1053.76 69.5151 1051.97 75.3569C1050.18 81.1988 1047.09 86.3126 1042.7 90.6983C1038.31 95.084 1033.2 98.1743 1027.36 99.9691C1021.51 101.764 1015.54 102.104 1009.42 100.989C1011.03 109.889 1015.29 117.213 1022.21 122.961C1029.14 128.709 1037.11 131.583 1046.13 131.583ZM1046.13 124.166C1040.69 124.166 1035.66 122.806 1031.02 120.087C1026.38 117.367 1022.74 113.628 1020.08 108.869C1025.4 108.375 1030.43 107.03 1035.19 104.834C1039.95 102.639 1044.22 99.6576 1047.99 95.89C1051.76 92.1223 1054.75 87.8577 1056.98 83.0962C1059.2 78.3347 1060.53 73.2976 1060.97 67.9848C1065.72 70.6424 1069.45 74.305 1072.13 78.9726C1074.82 83.6401 1076.17 88.6921 1076.17 94.1285C1076.17 102.472 1073.25 109.565 1067.41 115.407C1061.56 121.249 1054.47 124.168 1046.13 124.166Z" fill="#04B3E3"/>
<path d="M835.132 132.583C840.323 132.583 845.19 131.594 849.731 129.616C854.273 127.638 858.229 124.966 861.598 121.599C864.968 118.231 867.641 114.276 869.619 109.732C871.597 105.188 872.586 100.32 872.586 95.1285C872.586 86.1049 869.712 78.1481 863.964 71.258C858.216 64.3679 850.892 60.0872 841.992 58.416C843.105 64.5348 842.765 70.5151 840.972 76.3569C839.18 82.1988 836.09 87.3126 831.702 91.6983C827.313 96.084 822.198 99.1743 816.356 100.969C810.515 102.764 804.536 103.104 798.419 101.989C800.026 110.889 804.291 118.213 811.213 123.961C818.135 129.709 826.108 132.583 835.132 132.583ZM835.132 125.166C829.693 125.166 824.656 123.806 820.02 121.087C815.385 118.367 811.738 114.628 809.081 109.869C814.396 109.375 819.433 108.03 824.192 105.834C828.951 103.639 833.216 100.658 836.986 96.89C840.756 93.1223 843.754 88.8577 845.979 84.0962C848.204 79.3347 849.532 74.2976 849.965 68.9848C854.724 71.6424 858.447 75.305 861.135 79.9726C863.822 84.6401 865.167 89.6921 865.169 95.1285C865.169 103.472 862.248 110.565 856.406 116.407C850.565 122.249 843.473 125.168 835.132 125.166Z" fill="#04B3E3"/>
<path d="M624.132 131.583C629.323 131.583 634.19 130.594 638.731 128.616C643.273 126.638 647.229 123.966 650.598 120.599C653.968 117.231 656.641 113.276 658.619 108.732C660.597 104.188 661.586 99.3202 661.586 94.1285C661.586 85.1049 658.712 77.1481 652.964 70.258C647.216 63.3679 639.892 59.0872 630.992 57.416C632.105 63.5348 631.765 69.5151 629.972 75.3569C628.18 81.1988 625.09 86.3126 620.702 90.6983C616.313 95.084 611.198 98.1743 605.356 99.9691C599.515 101.764 593.536 102.104 587.419 100.989C589.026 109.889 593.291 117.213 600.213 122.961C607.135 128.709 615.108 131.583 624.132 131.583ZM624.132 124.166C618.693 124.166 613.656 122.806 609.02 120.087C604.385 117.367 600.738 113.628 598.081 108.869C603.396 108.375 608.433 107.03 613.192 104.834C617.951 102.639 622.216 99.6576 625.986 95.89C629.756 92.1223 632.754 87.8577 634.979 83.0962C637.204 78.3347 638.532 73.2976 638.965 67.9848C643.724 70.6424 647.447 74.305 650.135 78.9726C652.822 83.6401 654.167 88.6921 654.169 94.1285C654.169 102.472 651.248 109.565 645.406 115.407C639.565 121.249 632.473 124.168 624.132 124.166Z" fill="#04B3E3"/>
<path d="M413.132 140.583C418.323 140.583 423.19 139.594 427.731 137.616C432.273 135.638 436.229 132.966 439.598 129.599C442.968 126.231 445.641 122.276 447.619 117.732C449.597 113.188 450.586 108.32 450.586 103.129C450.586 94.1049 447.712 86.1481 441.964 79.258C436.216 72.3679 428.892 68.0872 419.992 66.416C421.105 72.5348 420.765 78.5151 418.972 84.3569C417.18 90.1988 414.09 95.3126 409.702 99.6983C405.313 104.084 400.198 107.174 394.356 108.969C388.515 110.764 382.536 111.104 376.419 109.989C378.026 118.889 382.291 126.213 389.213 131.961C396.135 137.709 404.108 140.583 413.132 140.583ZM413.132 133.166C407.693 133.166 402.656 131.806 398.02 129.087C393.385 126.367 389.738 122.628 387.081 117.869C392.396 117.375 397.433 116.03 402.192 113.834C406.951 111.639 411.216 108.658 414.986 104.89C418.756 101.122 421.754 96.8577 423.979 92.0962C426.204 87.3347 427.532 82.2976 427.965 76.9848C432.724 79.6424 436.447 83.305 439.135 87.9726C441.822 92.6401 443.167 97.6921 443.169 103.129C443.169 111.472 440.248 118.565 434.406 124.407C428.565 130.249 421.473 133.168 413.132 133.166Z" fill="#04B3E3"/>
<path d="M202.132 140.583C207.323 140.583 212.19 139.594 216.731 137.616C221.273 135.638 225.229 132.966 228.598 129.599C231.968 126.231 234.641 122.276 236.619 117.732C238.597 113.188 239.586 108.32 239.586 103.129C239.586 94.1049 236.712 86.1481 230.964 79.258C225.216 72.3679 217.892 68.0872 208.992 66.416C210.105 72.5348 209.765 78.5151 207.972 84.3569C206.18 90.1988 203.09 95.3126 198.702 99.6983C194.313 104.084 189.198 107.174 183.356 108.969C177.515 110.764 171.536 111.104 165.419 109.989C167.026 118.889 171.291 126.213 178.213 131.961C185.135 137.709 193.108 140.583 202.132 140.583ZM202.132 133.166C196.693 133.166 191.656 131.806 187.02 129.087C182.385 126.367 178.738 122.628 176.081 117.869C181.396 117.375 186.433 116.03 191.192 113.834C195.951 111.639 200.216 108.658 203.986 104.89C207.756 101.122 210.754 96.8577 212.979 92.0962C215.204 87.3347 216.532 82.2976 216.965 76.9848C221.724 79.6424 225.447 83.305 228.135 87.9726C230.822 92.6401 232.167 97.6921 232.169 103.129C232.169 111.472 229.248 118.565 223.406 124.407C217.565 130.249 210.473 133.168 202.132 133.166Z" fill="#04B3E3"/>
<path d="M-8.86823 128.583C-3.67656 128.583 1.19001 127.594 5.73148 125.616C10.273 123.638 14.2285 120.966 17.5981 117.599C20.9678 114.231 23.6415 110.276 25.6193 105.732C27.597 101.188 28.5859 96.3202 28.5859 91.1285C28.5859 82.1049 25.712 74.1481 19.9641 67.258C14.2161 60.3679 6.89219 56.0872 -2.00781 54.416C-0.895311 60.5348 -1.23524 66.5151 -3.0276 72.3569C-4.81996 78.1988 -7.91024 83.3126 -12.2984 87.6983C-16.6866 92.084 -21.8017 95.1743 -27.6435 96.9691C-33.4854 98.764 -39.4644 99.1039 -45.5807 97.9889C-43.9738 106.889 -39.7092 114.213 -32.787 119.961C-25.8648 125.709 -17.8918 128.583 -8.86823 128.583ZM-8.86823 121.166C-14.3071 121.166 -19.3443 119.806 -23.9797 117.087C-28.6151 114.367 -32.2616 110.628 -34.9193 105.869C-29.604 105.375 -24.5668 104.03 -19.8078 101.834C-15.0488 99.6391 -10.7842 96.6576 -7.01406 92.89C-3.24393 89.1223 -0.246355 84.8577 1.97865 80.0962C4.20365 75.3347 5.53246 70.2976 5.9651 64.9848C10.7241 67.6424 14.4473 71.305 17.1346 75.9726C19.8219 80.6401 21.1668 85.6921 21.1693 91.1285C21.1693 99.4723 18.2483 106.565 12.4065 112.407C6.56462 118.249 -0.526953 121.168 -8.86823 121.166Z" fill="#04B3E3"/>
</g>
</g>
<defs>
<clipPath id="clip0_2389_3997">
<rect width="1440" height="291" fill="white"/>
</clipPath>
<clipPath id="clip1_2389_3997">
<rect width="1440" height="133" fill="white" transform="translate(10 158)"/>
</clipPath>
<clipPath id="clip2_2389_3997">
<rect width="1440" height="197" fill="white" transform="matrix(-1 0 0 1 1431 63)"/>
</clipPath>
</defs>
</svg>
