<svg width="43" height="43" viewBox="0 0 43 43" fill="none" xmlns="http://www.w3.org/2000/svg">
<path d="M27.7749 6.17701C28.9791 5.00055 30.5986 4.34626 32.282 4.35607C33.9655 4.36587 35.5772 5.03897 36.7676 6.22938C37.958 7.41978 38.6311 9.0315 38.6409 10.715C38.6507 12.3984 37.9965 14.0179 36.82 15.2221L35.3816 16.6604L26.3366 7.61536L27.7749 6.17701ZM24.8165 9.13756L7.6187 26.3354C6.91515 27.0401 6.42671 27.9305 6.21045 28.9025L4.32275 37.395C4.28326 37.5717 4.28905 37.7555 4.33957 37.9294C4.39009 38.1033 4.48371 38.2615 4.61174 38.3896C4.73976 38.5176 4.89805 38.6112 5.07192 38.6617C5.24579 38.7123 5.4296 38.718 5.6063 38.6786L14.0472 36.8016C15.053 36.5799 15.9738 36.074 16.7003 35.3439L33.8616 18.1826L24.8165 9.13756Z" fill="white"/>
</svg>
