<svg width="100" height="100" viewBox="0 0 100 100" fill="none" xmlns="http://www.w3.org/2000/svg">
<path d="M77.4188 12.2661C75.856 10.7038 73.7368 9.82617 71.5271 9.82617C69.3174 9.82617 67.1981 10.7038 65.6354 12.2661L58.7813 19.1244L80.8771 41.2202L87.7313 34.3702C88.5054 33.5964 89.1196 32.6775 89.5386 31.6663C89.9576 30.655 90.1732 29.5711 90.1732 28.4765C90.1732 27.3818 89.9576 26.2979 89.5386 25.2867C89.1196 24.2754 88.5054 23.3566 87.7313 22.5827L77.4188 12.2661ZM74.9854 47.1119L52.8896 25.0161L16.0771 61.8286L11.5938 88.4119L38.1771 83.9244L74.9854 47.1119Z" fill="#04B3E3"/>
</svg>
