<svg width="3850" height="829" viewBox="0 0 3850 829" fill="none" xmlns="http://www.w3.org/2000/svg">
<path d="M1926.87 229.367C1794.85 228.972 1848.02 137.578 1732 137.23" stroke="#04B3E3" stroke-width="10" stroke-linecap="round"/>
<path d="M1923.01 229.367C2055.03 228.972 2001.85 137.578 2117.87 137.23" stroke="#04B3E3" stroke-width="10" stroke-linecap="round"/>
<path d="M2104 137.769C2236.02 137.374 2182.84 45.98 2298.86 45.6326" stroke="#04B3E3" stroke-width="10" stroke-linecap="round"/>
<path d="M2296 46C2984.59 46 3239.89 46 3845 46" stroke="#04B3E3" stroke-width="10" stroke-linecap="round"/>
<path d="M1746.87 137.769C1614.85 137.374 1668.02 45.98 1552 45.6326" stroke="#04B3E3" stroke-width="10" stroke-linecap="round"/>
<path d="M1746.87 137.769C1614.85 137.374 1668.02 45.98 1552 45.6326" stroke="#04B3E3" stroke-width="10" stroke-linecap="round"/>
<path d="M1553 46C864.857 45.5555 609.723 45.3906 4.99906 45" stroke="#04B3E3" stroke-width="10" stroke-linecap="round"/>
<rect width="3840" height="600" transform="translate(5 229)" fill="#04B3E3"/>
<rect width="39" height="92" transform="translate(2062 143)" fill="#04B3E3"/>
<rect width="28" height="98" transform="translate(2053 152)" fill="#04B3E3"/>
<rect width="30" height="70" transform="translate(2042 161)" fill="#04B3E3"/>
<rect width="30" height="70" transform="translate(2032 172)" fill="#04B3E3"/>
<rect width="30" height="70" transform="translate(2022 183)" fill="#04B3E3"/>
<rect width="30" height="70" transform="translate(2012 194)" fill="#04B3E3"/>
<rect width="30" height="70" transform="translate(2002 205)" fill="#04B3E3"/>
<rect width="48" height="26" transform="translate(1996 209)" fill="#04B3E3"/>
<rect width="9" height="14" transform="translate(1987 218)" fill="#04B3E3"/>
<rect width="21" height="14" transform="translate(1968 221)" fill="#04B3E3"/>
<rect width="33" height="93" transform="translate(2092 138)" fill="#04B3E3"/>
<rect width="26" height="97" transform="translate(2240 57)" fill="#04B3E3"/>
<rect width="24" height="101" transform="translate(2229 63)" fill="#04B3E3"/>
<rect width="24" height="97" transform="translate(2218 73)" fill="#04B3E3"/>
<rect width="24" height="94" transform="translate(2207 86)" fill="#04B3E3"/>
<rect width="24" height="94" transform="translate(2207 86)" fill="#04B3E3"/>
<rect width="24" height="51" transform="translate(2195 100)" fill="#04B3E3"/>
<rect width="24" height="51" transform="translate(2183 114)" fill="#04B3E3"/>
<rect width="24" height="51" transform="translate(2171 122)" fill="#04B3E3"/>
<rect width="40" height="17" transform="translate(2143 130)" fill="#04B3E3"/>
<rect width="53" height="14" transform="translate(1829 224)" fill="#04B3E3"/>
<rect width="56" height="14" transform="translate(1811 218)" fill="#04B3E3"/>
<rect width="62" height="14" transform="translate(1793 212)" fill="#04B3E3"/>
<rect width="62" height="14" transform="translate(1789 209)" fill="#04B3E3"/>
<rect width="1727" height="137" transform="translate(5 138)" fill="#04B3E3"/>
<rect width="33" height="93" transform="translate(1724 141)" fill="#04B3E3"/>
<rect width="33" height="93" transform="translate(1741 142)" fill="#04B3E3"/>
<rect width="33" height="93" transform="translate(1754 148)" fill="#04B3E3"/>
<rect width="33" height="93" transform="translate(1767 154)" fill="#04B3E3"/>
<rect width="33" height="93" transform="translate(1779 163)" fill="#04B3E3"/>
<rect width="33" height="60" transform="translate(1791 177)" fill="#04B3E3"/>
<rect width="24" height="53" transform="translate(1809 191)" fill="#04B3E3"/>
<rect width="24" height="53" transform="translate(1809 191)" fill="#04B3E3"/>
<rect width="24" height="53" transform="translate(1817 197)" fill="#04B3E3"/>
<rect width="7" height="17" transform="translate(1690 131)" fill="#04B3E3"/>
<rect width="7" height="17" transform="translate(1690 131)" fill="#04B3E3"/>
<rect width="7" height="15" transform="translate(1697 133)" fill="#04B3E3"/>
<rect width="7" height="15" transform="translate(1697 133)" fill="#04B3E3"/>
<rect width="1727" height="137" transform="translate(2118 138)" fill="#04B3E3"/>
<rect width="1595" height="134" transform="translate(2250 49)" fill="#04B3E3"/>
<rect width="1595" height="134" transform="translate(5 49)" fill="#04B3E3"/>
<rect width="7" height="95" transform="translate(1600 57)" fill="#04B3E3"/>
<rect width="7" height="91" transform="translate(1607 61)" fill="#04B3E3"/>
<rect width="7" height="91" transform="translate(1607 61)" fill="#04B3E3"/>
<rect width="7" height="87" transform="translate(1613 66)" fill="#04B3E3"/>
<rect width="7" height="87" transform="translate(1613 66)" fill="#04B3E3"/>
<rect width="7" height="81" transform="translate(1620 72)" fill="#04B3E3"/>
<rect width="7" height="81" transform="translate(1620 72)" fill="#04B3E3"/>
<rect width="7" height="81" transform="translate(1627 78)" fill="#04B3E3"/>
<rect width="7" height="81" transform="translate(1627 78)" fill="#04B3E3"/>
<rect width="7" height="81" transform="translate(1634 84)" fill="#04B3E3"/>
<rect width="7" height="48" transform="translate(1641 90)" fill="#04B3E3"/>
<rect width="7" height="48" transform="translate(1641 90)" fill="#04B3E3"/>
<rect width="7" height="36" transform="translate(1648 102)" fill="#04B3E3"/>
<rect width="7" height="36" transform="translate(1648 102)" fill="#04B3E3"/>
<rect width="7" height="27" transform="translate(1655 111)" fill="#04B3E3"/>
<rect width="7" height="27" transform="translate(1655 111)" fill="#04B3E3"/>
<rect width="7" height="84" transform="translate(1662 117)" fill="#04B3E3"/>
<rect width="7" height="21" transform="translate(1662 117)" fill="#04B3E3"/>
<rect width="7" height="21" transform="translate(1662 117)" fill="#04B3E3"/>
<rect width="7" height="21" transform="translate(1669 123)" fill="#04B3E3"/>
<rect width="7" height="21" transform="translate(1669 123)" fill="#04B3E3"/>
<rect width="7" height="21" transform="translate(1676 125)" fill="#04B3E3"/>
<rect width="7" height="21" transform="translate(1676 125)" fill="#04B3E3"/>
<rect width="7" height="21" transform="translate(1683 131)" fill="#04B3E3"/>
<rect width="7" height="21" transform="translate(1683 131)" fill="#04B3E3"/>
</svg>
