<svg width="1440" height="680" viewBox="0 0 1440 680" fill="none" xmlns="http://www.w3.org/2000/svg">
<path d="M0 42.1621H184" stroke="#04B3E3" stroke-width="10" stroke-linecap="round"/>
<path d="M1440 42.3223H1256" stroke="#04B3E3" stroke-width="10" stroke-linecap="round"/>
<path d="M392.5 231.663C243.5 231.663 340.002 42.1618 176.496 42.1619" stroke="#04B3E3" stroke-width="10" stroke-linecap="round"/>
<path d="M1047.5 231.825C1196.5 231.825 1100 42.3239 1263.5 42.324" stroke="#04B3E3" stroke-width="10" stroke-linecap="round"/>
<path d="M600.003 351.662C425.336 351.663 544 231.663 390.507 231.663" stroke="#04B3E3" stroke-width="10" stroke-linecap="round"/>
<path d="M839.997 351.65C1014.66 351.651 896 231.652 1049.49 231.652" stroke="#04B3E3" stroke-width="10" stroke-linecap="round"/>
<path d="M600 351.662H849.001" stroke="#04B3E3" stroke-width="10" stroke-linecap="round"/>
<rect x="-30" y="42" width="256" height="596" rx="23" fill="#04B3E3"/>
<rect x="74" y="54" width="179" height="535" rx="23" fill="#04B3E3"/>
<rect x="92" y="72" width="179" height="535" rx="23" fill="#04B3E3"/>
<rect x="105" y="95" width="179" height="535" rx="23" fill="#04B3E3"/>
<rect x="114" y="126" width="179" height="535" rx="23" fill="#04B3E3"/>
<rect x="124" y="159" width="179" height="535" rx="23" fill="#04B3E3"/>
<rect x="136" y="182" width="179" height="535" rx="23" fill="#04B3E3"/>
<rect x="153" y="200" width="179" height="535" rx="23" fill="#04B3E3"/>
<rect x="305" y="217" width="51" height="31" rx="15.5" fill="#04B3E3"/>
<rect x="335" y="227" width="42" height="23" rx="11.5" fill="#04B3E3"/>
<g clip-path="url(#clip0_2843_84556)">
<rect x="993" y="239" width="33" height="127" rx="8" fill="#04B3E3"/>
<rect x="984" y="244" width="45" height="572" rx="12" fill="#04B3E3"/>
</g>
<g clip-path="url(#clip1_2843_84556)">
<rect x="974" y="244" width="33" height="127" rx="8" fill="#04B3E3"/>
<rect x="965" y="249" width="45" height="572" rx="12" fill="#04B3E3"/>
</g>
<g clip-path="url(#clip2_2843_84556)">
<rect x="965" y="258" width="23" height="118" rx="8" fill="#04B3E3"/>
<rect x="956" y="263" width="45" height="572" rx="12" fill="#04B3E3"/>
</g>
<g clip-path="url(#clip3_2843_84556)">
<rect x="955" y="274" width="23" height="84" rx="8" fill="#04B3E3"/>
<rect x="946" y="279" width="45" height="572" rx="12" fill="#04B3E3"/>
</g>
<g clip-path="url(#clip4_2843_84556)">
<rect x="950" y="295" width="18" height="79" rx="8" fill="#04B3E3"/>
<rect x="941" y="300" width="45" height="572" rx="12" fill="#04B3E3"/>
</g>
<g clip-path="url(#clip5_2843_84556)">
<rect x="943" y="308" width="18" height="79" rx="8" fill="#04B3E3"/>
<rect x="934" y="313" width="45" height="572" rx="12" fill="#04B3E3"/>
</g>
<g clip-path="url(#clip6_2843_84556)">
<rect x="934" y="320" width="18" height="33" rx="8" fill="#04B3E3"/>
<rect x="925" y="325" width="45" height="572" rx="12" fill="#04B3E3"/>
</g>
<g clip-path="url(#clip7_2843_84556)">
<rect x="925" y="332" width="18" height="33" rx="8" fill="#04B3E3"/>
<rect x="916" y="337" width="45" height="572" rx="12" fill="#04B3E3"/>
</g>
<g clip-path="url(#clip8_2843_84556)">
<rect x="912" y="335" width="18" height="33" rx="8" fill="#04B3E3"/>
<rect x="903" y="340" width="45" height="572" rx="12" fill="#04B3E3"/>
</g>
<g clip-path="url(#clip9_2843_84556)">
<rect x="884" y="345" width="88" height="13" rx="6.5" fill="#04B3E3"/>
<rect x="875" y="350" width="45" height="572" rx="12" fill="#04B3E3"/>
</g>
<g clip-path="url(#clip10_2843_84556)">
<rect x="803" y="432" width="88" height="13" rx="6.5" fill="#04B3E3"/>
<rect x="794" y="437" width="45" height="572" rx="12" fill="#04B3E3"/>
</g>
<rect width="1572" height="418" transform="translate(-110 476)" fill="#04B3E3"/>
<rect x="315" y="260" width="167" height="329" rx="23" fill="#04B3E3"/>
<rect x="328" y="284" width="167" height="329" rx="23" fill="#04B3E3"/>
<rect x="345" y="316" width="167" height="329" rx="23" fill="#04B3E3"/>
<rect x="364" y="332" width="167" height="329" rx="23" fill="#04B3E3"/>
<rect x="385" y="340" width="167" height="329" rx="23" fill="#04B3E3"/>
<rect x="509" y="345" width="958" height="293" rx="23" fill="#04B3E3"/>
<rect x="1211" y="46" width="256" height="543" rx="23" fill="#04B3E3"/>
<rect x="1199" y="51" width="54" height="572" rx="23" fill="#04B3E3"/>
<rect x="1180" y="56" width="54" height="572" rx="23" fill="#04B3E3"/>
<rect x="1164" y="78" width="45" height="572" rx="22.5" fill="#04B3E3"/>
<rect x="1154" y="104" width="45" height="572" rx="22.5" fill="#04B3E3"/>
<rect x="1146" y="130" width="45" height="572" rx="22.5" fill="#04B3E3"/>
<rect x="1138" y="156" width="45" height="572" rx="22.5" fill="#04B3E3"/>
<rect x="1129" y="173" width="45" height="572" rx="22.5" fill="#04B3E3"/>
<rect x="1120" y="190" width="45" height="572" rx="22.5" fill="#04B3E3"/>
<rect x="1101" y="206" width="45" height="572" rx="22.5" fill="#04B3E3"/>
<rect x="1082" y="222" width="45" height="572" rx="22.5" fill="#04B3E3"/>
<g clip-path="url(#clip11_2843_84556)">
<rect x="1056" y="225" width="45" height="572" rx="22.5" fill="#04B3E3"/>
<rect x="1047" y="230" width="45" height="572" rx="12" fill="#04B3E3"/>
</g>
<g clip-path="url(#clip12_2843_84556)">
<rect x="1009" y="232" width="62" height="570" rx="8" fill="#04B3E3"/>
<rect x="1000" y="237" width="45" height="572" rx="12" fill="#04B3E3"/>
</g>
<rect x="314" y="243" width="155" height="49" rx="23" fill="#04B3E3"/>
<rect x="293" y="235" width="155" height="49" rx="23" fill="#04B3E3"/>
<defs>
<clipPath id="clip0_2843_84556">
<rect x="993" y="239" width="33" height="127" rx="8" fill="white"/>
</clipPath>
<clipPath id="clip1_2843_84556">
<rect x="974" y="244" width="33" height="127" rx="8" fill="white"/>
</clipPath>
<clipPath id="clip2_2843_84556">
<rect x="965" y="258" width="23" height="118" rx="8" fill="white"/>
</clipPath>
<clipPath id="clip3_2843_84556">
<rect x="955" y="274" width="23" height="84" rx="8" fill="white"/>
</clipPath>
<clipPath id="clip4_2843_84556">
<rect x="950" y="295" width="18" height="79" rx="8" fill="white"/>
</clipPath>
<clipPath id="clip5_2843_84556">
<rect x="943" y="308" width="18" height="79" rx="8" fill="white"/>
</clipPath>
<clipPath id="clip6_2843_84556">
<rect x="934" y="320" width="18" height="33" rx="8" fill="white"/>
</clipPath>
<clipPath id="clip7_2843_84556">
<rect x="925" y="332" width="18" height="33" rx="8" fill="white"/>
</clipPath>
<clipPath id="clip8_2843_84556">
<rect x="912" y="335" width="18" height="33" rx="8" fill="white"/>
</clipPath>
<clipPath id="clip9_2843_84556">
<rect x="884" y="345" width="88" height="13" rx="6.5" fill="white"/>
</clipPath>
<clipPath id="clip10_2843_84556">
<rect x="803" y="432" width="88" height="13" rx="6.5" fill="white"/>
</clipPath>
<clipPath id="clip11_2843_84556">
<rect x="1056" y="225" width="45" height="572" rx="22.5" fill="white"/>
</clipPath>
<clipPath id="clip12_2843_84556">
<rect x="1009" y="232" width="62" height="570" rx="8" fill="white"/>
</clipPath>
</defs>
</svg>
