<svg width="1440" height="1080" viewBox="0 0 1440 1080" fill="none" xmlns="http://www.w3.org/2000/svg">
<g clip-path="url(#clip0_2839_84488)">
<rect width="1440" height="1080" fill="white"/>
<path d="M0 533.162H184" stroke="#04B3E3" stroke-width="10" stroke-linecap="round"/>
<path d="M1440 533.322H1256" stroke="#04B3E3" stroke-width="10" stroke-linecap="round"/>
<path d="M392.5 722.663C243.5 722.663 340.002 533.162 176.496 533.162" stroke="#04B3E3" stroke-width="10" stroke-linecap="round"/>
<path d="M1047.5 722.825C1196.5 722.825 1100 533.324 1263.5 533.324" stroke="#04B3E3" stroke-width="10" stroke-linecap="round"/>
<path d="M600.003 842.662C425.336 842.663 544 722.663 390.507 722.663" stroke="#04B3E3" stroke-width="10" stroke-linecap="round"/>
<path d="M839.997 842.65C1014.66 842.651 896 722.652 1049.49 722.652" stroke="#04B3E3" stroke-width="10" stroke-linecap="round"/>
<path d="M600 842.662H849.001" stroke="#04B3E3" stroke-width="10" stroke-linecap="round"/>
<rect x="-30" y="533" width="256" height="596" rx="23" fill="#04B3E3"/>
<rect x="74" y="545" width="179" height="535" rx="23" fill="#04B3E3"/>
<rect x="92" y="563" width="179" height="535" rx="23" fill="#04B3E3"/>
<rect x="105" y="586" width="179" height="535" rx="23" fill="#04B3E3"/>
<rect x="114" y="617" width="179" height="535" rx="23" fill="#04B3E3"/>
<rect x="124" y="650" width="179" height="535" rx="23" fill="#04B3E3"/>
<rect x="136" y="673" width="179" height="535" rx="23" fill="#04B3E3"/>
<rect x="153" y="691" width="179" height="535" rx="23" fill="#04B3E3"/>
<rect x="305" y="708" width="51" height="31" rx="15.5" fill="#04B3E3"/>
<rect x="335" y="718" width="42" height="23" rx="11.5" fill="#04B3E3"/>
<g clip-path="url(#clip1_2839_84488)">
<rect x="993" y="730" width="33" height="127" rx="8" fill="#04B3E3"/>
<rect x="984" y="735" width="45" height="572" rx="12" fill="#04B3E3"/>
</g>
<g clip-path="url(#clip2_2839_84488)">
<rect x="974" y="735" width="33" height="127" rx="8" fill="#04B3E3"/>
<rect x="965" y="740" width="45" height="572" rx="12" fill="#04B3E3"/>
</g>
<g clip-path="url(#clip3_2839_84488)">
<rect x="965" y="749" width="23" height="118" rx="8" fill="#04B3E3"/>
<rect x="956" y="754" width="45" height="572" rx="12" fill="#04B3E3"/>
</g>
<g clip-path="url(#clip4_2839_84488)">
<rect x="955" y="765" width="23" height="84" rx="8" fill="#04B3E3"/>
<rect x="946" y="770" width="45" height="572" rx="12" fill="#04B3E3"/>
</g>
<g clip-path="url(#clip5_2839_84488)">
<rect x="950" y="786" width="18" height="79" rx="8" fill="#04B3E3"/>
<rect x="941" y="791" width="45" height="572" rx="12" fill="#04B3E3"/>
</g>
<g clip-path="url(#clip6_2839_84488)">
<rect x="943" y="799" width="18" height="79" rx="8" fill="#04B3E3"/>
<rect x="934" y="804" width="45" height="572" rx="12" fill="#04B3E3"/>
</g>
<g clip-path="url(#clip7_2839_84488)">
<rect x="934" y="811" width="18" height="33" rx="8" fill="#04B3E3"/>
<rect x="925" y="816" width="45" height="572" rx="12" fill="#04B3E3"/>
</g>
<g clip-path="url(#clip8_2839_84488)">
<rect x="925" y="823" width="18" height="33" rx="8" fill="#04B3E3"/>
<rect x="916" y="828" width="45" height="572" rx="12" fill="#04B3E3"/>
</g>
<g clip-path="url(#clip9_2839_84488)">
<rect x="912" y="826" width="18" height="33" rx="8" fill="#04B3E3"/>
<rect x="903" y="831" width="45" height="572" rx="12" fill="#04B3E3"/>
</g>
<g clip-path="url(#clip10_2839_84488)">
<rect x="884" y="836" width="88" height="13" rx="6.5" fill="#04B3E3"/>
<rect x="875" y="841" width="45" height="572" rx="12" fill="#04B3E3"/>
</g>
<g clip-path="url(#clip11_2839_84488)">
<rect x="803" y="923" width="88" height="13" rx="6.5" fill="#04B3E3"/>
<rect x="794" y="928" width="45" height="572" rx="12" fill="#04B3E3"/>
</g>
<rect x="315" y="751" width="167" height="329" rx="23" fill="#04B3E3"/>
<rect x="328" y="775" width="167" height="329" rx="23" fill="#04B3E3"/>
<rect x="345" y="807" width="167" height="329" rx="23" fill="#04B3E3"/>
<rect x="364" y="823" width="167" height="329" rx="23" fill="#04B3E3"/>
<rect x="385" y="831" width="167" height="329" rx="23" fill="#04B3E3"/>
<rect x="509" y="836" width="958" height="293" rx="23" fill="#04B3E3"/>
<rect x="1211" y="537" width="256" height="543" rx="23" fill="#04B3E3"/>
<rect x="1199" y="542" width="54" height="572" rx="23" fill="#04B3E3"/>
<rect x="1180" y="547" width="54" height="572" rx="23" fill="#04B3E3"/>
<rect x="1164" y="569" width="45" height="572" rx="22.5" fill="#04B3E3"/>
<rect x="1154" y="595" width="45" height="572" rx="22.5" fill="#04B3E3"/>
<rect x="1146" y="621" width="45" height="572" rx="22.5" fill="#04B3E3"/>
<rect x="1138" y="647" width="45" height="572" rx="22.5" fill="#04B3E3"/>
<rect x="1129" y="664" width="45" height="572" rx="22.5" fill="#04B3E3"/>
<rect x="1120" y="681" width="45" height="572" rx="22.5" fill="#04B3E3"/>
<rect x="1101" y="697" width="45" height="572" rx="22.5" fill="#04B3E3"/>
<rect x="1082" y="713" width="45" height="572" rx="22.5" fill="#04B3E3"/>
<g clip-path="url(#clip12_2839_84488)">
<rect x="1056" y="716" width="45" height="572" rx="22.5" fill="#04B3E3"/>
<rect x="1047" y="721" width="45" height="572" rx="12" fill="#04B3E3"/>
</g>
<g clip-path="url(#clip13_2839_84488)">
<rect x="1009" y="723" width="62" height="570" rx="8" fill="#04B3E3"/>
<rect x="1000" y="728" width="45" height="572" rx="12" fill="#04B3E3"/>
</g>
<rect x="314" y="734" width="155" height="49" rx="23" fill="#04B3E3"/>
<rect x="293" y="726" width="155" height="49" rx="23" fill="#04B3E3"/>
</g>
<defs>
<clipPath id="clip0_2839_84488">
<rect width="1440" height="1080" fill="white"/>
</clipPath>
<clipPath id="clip1_2839_84488">
<rect x="993" y="730" width="33" height="127" rx="8" fill="white"/>
</clipPath>
<clipPath id="clip2_2839_84488">
<rect x="974" y="735" width="33" height="127" rx="8" fill="white"/>
</clipPath>
<clipPath id="clip3_2839_84488">
<rect x="965" y="749" width="23" height="118" rx="8" fill="white"/>
</clipPath>
<clipPath id="clip4_2839_84488">
<rect x="955" y="765" width="23" height="84" rx="8" fill="white"/>
</clipPath>
<clipPath id="clip5_2839_84488">
<rect x="950" y="786" width="18" height="79" rx="8" fill="white"/>
</clipPath>
<clipPath id="clip6_2839_84488">
<rect x="943" y="799" width="18" height="79" rx="8" fill="white"/>
</clipPath>
<clipPath id="clip7_2839_84488">
<rect x="934" y="811" width="18" height="33" rx="8" fill="white"/>
</clipPath>
<clipPath id="clip8_2839_84488">
<rect x="925" y="823" width="18" height="33" rx="8" fill="white"/>
</clipPath>
<clipPath id="clip9_2839_84488">
<rect x="912" y="826" width="18" height="33" rx="8" fill="white"/>
</clipPath>
<clipPath id="clip10_2839_84488">
<rect x="884" y="836" width="88" height="13" rx="6.5" fill="white"/>
</clipPath>
<clipPath id="clip11_2839_84488">
<rect x="803" y="923" width="88" height="13" rx="6.5" fill="white"/>
</clipPath>
<clipPath id="clip12_2839_84488">
<rect x="1056" y="716" width="45" height="572" rx="22.5" fill="white"/>
</clipPath>
<clipPath id="clip13_2839_84488">
<rect x="1009" y="723" width="62" height="570" rx="8" fill="white"/>
</clipPath>
</defs>
</svg>
