<svg width="3840" height="576" viewBox="0 0 3840 576" fill="none" xmlns="http://www.w3.org/2000/svg">
<path d="M1187 42.1621H1371" stroke="#04B3E3" stroke-width="10" stroke-linecap="round"/>
<path d="M2627 42.3223H2443" stroke="#04B3E3" stroke-width="10" stroke-linecap="round"/>
<path d="M1579.5 231.663C1430.5 231.663 1527 42.1618 1363.5 42.1619" stroke="#04B3E3" stroke-width="10" stroke-linecap="round"/>
<path d="M2234.5 231.825C2383.5 231.825 2287 42.3239 2450.5 42.324" stroke="#04B3E3" stroke-width="10" stroke-linecap="round"/>
<path d="M1787 351.662C1612.34 351.663 1731 231.663 1577.51 231.663" stroke="#04B3E3" stroke-width="10" stroke-linecap="round"/>
<path d="M2027 351.65C2201.66 351.651 2083 231.652 2236.49 231.652" stroke="#04B3E3" stroke-width="10" stroke-linecap="round"/>
<path d="M1787 351.662H2036" stroke="#04B3E3" stroke-width="10" stroke-linecap="round"/>
<rect x="1157" y="42" width="256" height="526" rx="23" fill="#04B3E3"/>
<rect x="1261" y="54" width="179" height="535" rx="23" fill="#04B3E3"/>
<rect x="1279" y="72" width="179" height="484" rx="23" fill="#04B3E3"/>
<rect x="1292" y="95" width="179" height="457" rx="23" fill="#04B3E3"/>
<rect x="1301" y="126" width="179" height="352" rx="23" fill="#04B3E3"/>
<rect x="1311" y="159" width="179" height="340" rx="23" fill="#04B3E3"/>
<rect x="1323" y="182" width="179" height="333" rx="23" fill="#04B3E3"/>
<rect x="1340" y="200" width="179" height="323" rx="23" fill="#04B3E3"/>
<rect x="1492" y="217" width="51" height="31" rx="15.5" fill="#04B3E3"/>
<rect x="1522" y="227" width="42" height="23" rx="11.5" fill="#04B3E3"/>
<g clip-path="url(#clip0_3313_86471)">
<rect x="2180" y="239" width="33" height="127" rx="8" fill="#04B3E3"/>
<rect x="2171" y="244" width="45" height="572" rx="12" fill="#04B3E3"/>
</g>
<g clip-path="url(#clip1_3313_86471)">
<rect x="2161" y="244" width="33" height="127" rx="8" fill="#04B3E3"/>
<rect x="2152" y="249" width="45" height="572" rx="12" fill="#04B3E3"/>
</g>
<g clip-path="url(#clip2_3313_86471)">
<rect x="2152" y="258" width="23" height="118" rx="8" fill="#04B3E3"/>
<rect x="2143" y="263" width="45" height="572" rx="12" fill="#04B3E3"/>
</g>
<g clip-path="url(#clip3_3313_86471)">
<rect x="2142" y="274" width="23" height="84" rx="8" fill="#04B3E3"/>
<rect x="2133" y="279" width="45" height="572" rx="12" fill="#04B3E3"/>
</g>
<g clip-path="url(#clip4_3313_86471)">
<rect x="2137" y="295" width="18" height="79" rx="8" fill="#04B3E3"/>
<rect x="2128" y="300" width="45" height="572" rx="12" fill="#04B3E3"/>
</g>
<g clip-path="url(#clip5_3313_86471)">
<rect x="2130" y="308" width="18" height="79" rx="8" fill="#04B3E3"/>
<rect x="2121" y="313" width="45" height="572" rx="12" fill="#04B3E3"/>
</g>
<g clip-path="url(#clip6_3313_86471)">
<rect x="2121" y="320" width="18" height="33" rx="8" fill="#04B3E3"/>
<rect x="2112" y="325" width="45" height="572" rx="12" fill="#04B3E3"/>
</g>
<g clip-path="url(#clip7_3313_86471)">
<rect x="2112" y="332" width="18" height="33" rx="8" fill="#04B3E3"/>
<rect x="2103" y="337" width="45" height="572" rx="12" fill="#04B3E3"/>
</g>
<g clip-path="url(#clip8_3313_86471)">
<rect x="2099" y="335" width="18" height="33" rx="8" fill="#04B3E3"/>
<rect x="2090" y="340" width="45" height="572" rx="12" fill="#04B3E3"/>
</g>
<g clip-path="url(#clip9_3313_86471)">
<rect x="2071" y="345" width="88" height="13" rx="6.5" fill="#04B3E3"/>
<rect x="2062" y="350" width="45" height="572" rx="12" fill="#04B3E3"/>
</g>
<g clip-path="url(#clip10_3313_86471)">
<rect x="1990" y="432" width="88" height="13" rx="6.5" fill="#04B3E3"/>
<rect x="1981" y="437" width="45" height="572" rx="12" fill="#04B3E3"/>
</g>
<rect x="1502" y="260" width="167" height="329" rx="23" fill="#04B3E3"/>
<rect x="1515" y="284" width="167" height="329" rx="23" fill="#04B3E3"/>
<rect x="1532" y="316" width="167" height="329" rx="23" fill="#04B3E3"/>
<rect x="1551" y="332" width="167" height="329" rx="23" fill="#04B3E3"/>
<rect x="1572" y="340" width="167" height="329" rx="23" fill="#04B3E3"/>
<rect x="1696" y="345" width="958" height="293" rx="23" fill="#04B3E3"/>
<rect x="2398" y="46" width="256" height="543" rx="23" fill="#04B3E3"/>
<rect x="2386" y="51" width="54" height="572" rx="23" fill="#04B3E3"/>
<rect x="2367" y="56" width="54" height="572" rx="23" fill="#04B3E3"/>
<rect x="2351" y="78" width="45" height="572" rx="22.5" fill="#04B3E3"/>
<rect x="2341" y="104" width="45" height="572" rx="22.5" fill="#04B3E3"/>
<rect x="2333" y="130" width="45" height="572" rx="22.5" fill="#04B3E3"/>
<rect x="2325" y="156" width="45" height="572" rx="22.5" fill="#04B3E3"/>
<rect x="2316" y="173" width="45" height="572" rx="22.5" fill="#04B3E3"/>
<rect x="2307" y="190" width="45" height="572" rx="22.5" fill="#04B3E3"/>
<rect x="2288" y="206" width="45" height="572" rx="22.5" fill="#04B3E3"/>
<rect x="2269" y="222" width="45" height="572" rx="22.5" fill="#04B3E3"/>
<g clip-path="url(#clip11_3313_86471)">
<rect x="2243" y="225" width="45" height="572" rx="22.5" fill="#04B3E3"/>
<rect x="2234" y="230" width="45" height="572" rx="12" fill="#04B3E3"/>
</g>
<g clip-path="url(#clip12_3313_86471)">
<rect x="2196" y="232" width="62" height="570" rx="8" fill="#04B3E3"/>
<rect x="2187" y="237" width="45" height="572" rx="12" fill="#04B3E3"/>
</g>
<rect x="1501" y="243" width="155" height="49" rx="23" fill="#04B3E3"/>
<rect x="1480" y="235" width="155" height="49" rx="23" fill="#04B3E3"/>
<rect width="1256" height="418" transform="matrix(1 0 0 -1 0 455)" fill="#04B3E3"/>
<rect width="167" height="249" rx="23" transform="matrix(1 0 0 -1 109 591)" fill="#04B3E3"/>
<rect width="167" height="329" rx="23" transform="matrix(1 0 0 -1 136 579)" fill="#04B3E3"/>
<rect width="167" height="324" rx="23" transform="matrix(1 0 0 -1 158 594)" fill="#04B3E3"/>
<rect width="167" height="329" rx="23" transform="matrix(1 0 0 -1 179 591.4)" fill="#04B3E3"/>
<rect width="958" height="293" rx="23" transform="matrix(1 0 0 -1 303 586.4)" fill="#04B3E3"/>
<rect width="256" height="231" rx="23" transform="matrix(1 0 0 -1 1005 573)" fill="#04B3E3"/>
<rect width="29" height="145" rx="14.5" transform="matrix(1 0 0 -1 993 195)" fill="#04B3E3"/>
<rect width="45" height="278" rx="22.5" transform="matrix(1 0 0 -1 960 339)" fill="#04B3E3"/>
<rect width="23" height="145" rx="11.5" transform="matrix(1 0 0 -1 970 182)" fill="#04B3E3"/>
<rect width="45" height="344" rx="22.5" transform="matrix(1 0 0 -1 940 573)" fill="#04B3E3"/>
<rect width="45" height="352" rx="22.5" transform="matrix(1 0 0 -1 923 538)" fill="#04B3E3"/>
<rect width="45" height="376" rx="22.5" transform="matrix(1 0 0 -1 914 545)" fill="#04B3E3"/>
<rect width="45" height="392" rx="22.5" transform="matrix(1 0 0 -1 895 545)" fill="#04B3E3"/>
<rect width="45" height="356" rx="22.5" transform="matrix(1 0 0 -1 876 493)" fill="#04B3E3"/>
<rect width="45" height="411" rx="22.5" transform="matrix(1 0 0 -1 850 545)" fill="#04B3E3"/>
<rect width="62" height="427" rx="8" transform="matrix(1 0 0 -1 803 556)" fill="#04B3E3"/>
<rect width="23" height="145" rx="11.5" transform="matrix(1 0 0 -1 807 370.6)" fill="#04B3E3"/>
<rect width="1234" height="418" transform="matrix(1 0 0 -1 2606 455)" fill="#04B3E3"/>
<rect width="167" height="329" rx="23" transform="matrix(1 0 0 -1 2951 671.4)" fill="#04B3E3"/>
<rect width="167" height="329" rx="23" transform="matrix(1 0 0 -1 2964 647.4)" fill="#04B3E3"/>
<rect width="167" height="329" rx="23" transform="matrix(1 0 0 -1 2981 615.4)" fill="#04B3E3"/>
<rect width="167" height="329" rx="23" transform="matrix(1 0 0 -1 3000 599.4)" fill="#04B3E3"/>
<rect width="167" height="329" rx="23" transform="matrix(1 0 0 -1 3021 591.4)" fill="#04B3E3"/>
<rect width="681" height="293" rx="23" transform="matrix(1 0 0 -1 3145 586)" fill="#04B3E3"/>
<rect width="45" height="572" rx="22.5" transform="matrix(1 0 0 -1 3790 827.4)" fill="#04B3E3"/>
<rect width="45" height="572" rx="22.5" transform="matrix(1 0 0 -1 3782 801.4)" fill="#04B3E3"/>
<rect width="45" height="572" rx="22.5" transform="matrix(1 0 0 -1 3774 775.4)" fill="#04B3E3"/>
<rect width="45" height="572" rx="22.5" transform="matrix(1 0 0 -1 3765 758.4)" fill="#04B3E3"/>
<rect width="45" height="572" rx="22.5" transform="matrix(1 0 0 -1 3756 741.4)" fill="#04B3E3"/>
<rect width="45" height="572" rx="22.5" transform="matrix(1 0 0 -1 3737 725.4)" fill="#04B3E3"/>
<rect width="45" height="572" rx="22.5" transform="matrix(1 0 0 -1 3718 709.4)" fill="#04B3E3"/>
<g clip-path="url(#clip13_3313_86471)">
<rect width="45" height="572" rx="22.5" transform="matrix(1 0 0 -1 3692 706.4)" fill="#04B3E3"/>
<rect width="45" height="572" rx="12" transform="matrix(1 0 0 -1 3683 701.4)" fill="#04B3E3"/>
</g>
<g clip-path="url(#clip14_3313_86471)">
<rect width="62" height="570" rx="8" transform="matrix(1 0 0 -1 3645 699.4)" fill="#04B3E3"/>
<rect width="45" height="572" rx="12" transform="matrix(1 0 0 -1 3636 694.4)" fill="#04B3E3"/>
</g>
<g clip-path="url(#clip15_3313_86471)">
<rect width="3840" height="147" transform="translate(0 447)" fill="#04B3E3"/>
<rect width="23" height="145" rx="11.5" transform="matrix(1 0 0 -1 854 521)" fill="#04B3E3"/>
</g>
<defs>
<clipPath id="clip0_3313_86471">
<rect x="2180" y="239" width="33" height="127" rx="8" fill="white"/>
</clipPath>
<clipPath id="clip1_3313_86471">
<rect x="2161" y="244" width="33" height="127" rx="8" fill="white"/>
</clipPath>
<clipPath id="clip2_3313_86471">
<rect x="2152" y="258" width="23" height="118" rx="8" fill="white"/>
</clipPath>
<clipPath id="clip3_3313_86471">
<rect x="2142" y="274" width="23" height="84" rx="8" fill="white"/>
</clipPath>
<clipPath id="clip4_3313_86471">
<rect x="2137" y="295" width="18" height="79" rx="8" fill="white"/>
</clipPath>
<clipPath id="clip5_3313_86471">
<rect x="2130" y="308" width="18" height="79" rx="8" fill="white"/>
</clipPath>
<clipPath id="clip6_3313_86471">
<rect x="2121" y="320" width="18" height="33" rx="8" fill="white"/>
</clipPath>
<clipPath id="clip7_3313_86471">
<rect x="2112" y="332" width="18" height="33" rx="8" fill="white"/>
</clipPath>
<clipPath id="clip8_3313_86471">
<rect x="2099" y="335" width="18" height="33" rx="8" fill="white"/>
</clipPath>
<clipPath id="clip9_3313_86471">
<rect x="2071" y="345" width="88" height="13" rx="6.5" fill="white"/>
</clipPath>
<clipPath id="clip10_3313_86471">
<rect x="1990" y="432" width="88" height="13" rx="6.5" fill="white"/>
</clipPath>
<clipPath id="clip11_3313_86471">
<rect x="2243" y="225" width="45" height="572" rx="22.5" fill="white"/>
</clipPath>
<clipPath id="clip12_3313_86471">
<rect x="2196" y="232" width="62" height="570" rx="8" fill="white"/>
</clipPath>
<clipPath id="clip13_3313_86471">
<rect width="45" height="572" rx="22.5" transform="matrix(1 0 0 -1 3692 706.4)" fill="white"/>
</clipPath>
<clipPath id="clip14_3313_86471">
<rect width="62" height="570" rx="8" transform="matrix(1 0 0 -1 3645 699.4)" fill="white"/>
</clipPath>
<clipPath id="clip15_3313_86471">
<rect width="3840" height="147" fill="white" transform="translate(0 447)"/>
</clipPath>
</defs>
</svg>
