<svg width="1264" height="726" viewBox="0 0 1264 726" fill="none" xmlns="http://www.w3.org/2000/svg">
<path d="M30 42.1621H214" stroke="#04B3E3" stroke-width="10" stroke-linecap="round"/>
<path d="M1228 42.3223H1044" stroke="#04B3E3" stroke-width="10" stroke-linecap="round"/>
<path d="M422.5 231.663C273.5 231.663 370.002 42.1618 206.496 42.1619" stroke="#04B3E3" stroke-width="10" stroke-linecap="round"/>
<path d="M819 231.825C968 231.825 871.498 42.3239 1035 42.324" stroke="#04B3E3" stroke-width="10" stroke-linecap="round"/>
<path d="M630.003 351.662C455.336 351.663 574 231.663 420.507 231.663" stroke="#04B3E3" stroke-width="10" stroke-linecap="round"/>
<path d="M615.997 351.65C790.664 351.651 672 231.652 825.493 231.652" stroke="#04B3E3" stroke-width="10" stroke-linecap="round"/>
<path d="M0 65C0 52.2974 10.2975 42 23 42H232C244.703 42 255 52.2975 255 65V726H23C10.2974 726 0 715.703 0 703V65Z" fill="#04B3E3"/>
<path d="M0 60C0 47.2974 10.2975 37 23 37H232C244.703 37 255 47.2975 255 60V726H23C10.2974 726 0 715.703 0 703V60Z" fill="#04B3E3"/>
<rect x="1008" y="37" width="256" height="689" rx="23" fill="#04B3E3"/>
<rect x="935" y="84" width="80" height="469" rx="23" fill="#04B3E3"/>
<rect x="945" y="74" width="9" height="20" rx="4.5" fill="#04B3E3"/>
<rect x="966" y="61" width="9" height="20" rx="4.5" fill="#04B3E3"/>
<rect x="971" y="47" width="54" height="61" rx="23" fill="#04B3E3"/>
<rect x="951" y="65" width="40" height="38" rx="19" fill="#04B3E3"/>
<rect x="931" y="99" width="31" height="22" rx="11" fill="#04B3E3"/>
<rect x="862" y="217" width="80" height="383" rx="23" fill="#04B3E3"/>
<rect x="907" y="148" width="70" height="48" rx="23" fill="#04B3E3"/>
<rect x="892" y="182" width="70" height="48" rx="23" fill="#04B3E3"/>
<rect x="876" y="208" width="26" height="18" rx="9" fill="#04B3E3"/>
<rect x="802" y="231" width="80" height="383" rx="23" fill="#04B3E3"/>
<rect x="851" y="220" width="33" height="165" rx="16.5" fill="#04B3E3"/>
<rect x="921" y="115" width="39" height="153" rx="19.5" fill="#04B3E3"/>
<rect x="104" y="54" width="179" height="535" rx="23" fill="#04B3E3"/>
<rect x="122" y="72" width="179" height="484" rx="23" fill="#04B3E3"/>
<rect x="135" y="95" width="179" height="457" rx="23" fill="#04B3E3"/>
<rect x="144" y="126" width="179" height="352" rx="23" fill="#04B3E3"/>
<rect x="154" y="159" width="179" height="340" rx="23" fill="#04B3E3"/>
<rect x="166" y="182" width="179" height="333" rx="23" fill="#04B3E3"/>
<rect width="179" height="378" transform="translate(736 348)" fill="#04B3E3"/>
<rect width="196" height="383" transform="translate(906 343)" fill="#04B3E3"/>
<rect x="183" y="200" width="179" height="323" rx="23" fill="#04B3E3"/>
<path d="M255 256C255 243.297 265.297 233 278 233H411C423.703 233 434 243.297 434 256V703C434 715.703 423.703 726 411 726H255V256Z" fill="#04B3E3"/>
<path d="M304 256C304 243.297 314.297 233 327 233H460C472.703 233 483 243.297 483 256V703C483 715.703 472.703 726 460 726H304V256Z" fill="#04B3E3"/>
<path d="M323 268C323 255.297 333.297 245 346 245H479C491.703 245 502 255.297 502 268V578C502 590.703 491.703 601 479 601H323V268Z" fill="#04B3E3"/>
<path d="M332 283C332 270.297 342.297 260 355 260H488C500.703 260 511 270.297 511 283V593C511 605.703 500.703 616 488 616H332V283Z" fill="#04B3E3"/>
<path d="M341 303C341 290.297 351.297 280 364 280H497C509.703 280 520 290.297 520 303V613C520 625.703 509.703 636 497 636H341V303Z" fill="#04B3E3"/>
<path d="M350 323C350 310.297 360.297 300 373 300H506C518.703 300 529 310.297 529 323V633C529 645.703 518.703 656 506 656H350V323Z" fill="#04B3E3"/>
<g clip-path="url(#clip0_3318_86562)">
<path d="M359 343C359 330.297 369.297 320 382 320H515C527.703 320 538 330.297 538 343V703C538 715.703 527.703 726 515 726H359V343Z" fill="#04B3E3"/>
<path d="M512 340C512 328.954 520.954 320 532 320V320C543.046 320 552 328.954 552 340V349C552 361.703 541.703 372 529 372H512V340Z" fill="#04B3E3"/>
<g clip-path="url(#clip1_3318_86562)">
<path d="M327 393C327 380.297 337.297 370 350 370H483C495.703 370 506 380.297 506 393V703C506 715.703 495.703 726 483 726H327V393Z" fill="#04B3E3"/>
<path d="M480 390C480 378.954 488.954 370 500 370V370C511.046 370 520 378.954 520 390V399C520 411.703 509.703 422 497 422H480V390Z" fill="#04B3E3"/>
</g>
</g>
<rect x="499" y="325" width="42" height="53" fill="#04B3E3"/>
<rect x="662" y="346" width="42" height="63" fill="#04B3E3"/>
<path d="M525 349.5C525 339.835 532.835 332 542.5 332H543C552.389 332 560 339.611 560 349V349C560 358.389 552.389 366 543 366H525V349.5Z" fill="#04B3E3"/>
<path d="M526 375C526 362.297 536.297 352 549 352H682C694.703 352 705 362.297 705 375V381C705 393.703 694.703 404 682 404H526V375Z" fill="#04B3E3"/>
<rect x="512" y="352" width="264" height="142" fill="#04B3E3"/>
<rect x="489" y="345" width="93" height="381" fill="#04B3E3"/>
<rect x="582" y="494" width="154" height="232" fill="#04B3E3"/>
<rect x="335" y="217" width="51" height="31" rx="15.5" fill="#04B3E3"/>
<rect x="365" y="227" width="42" height="23" rx="11.5" fill="#04B3E3"/>
<g clip-path="url(#clip2_3318_86562)">
<rect x="781" y="239" width="33" height="127" rx="8" fill="#04B3E3"/>
<rect x="772" y="244" width="45" height="572" rx="12" fill="#04B3E3"/>
</g>
<g clip-path="url(#clip3_3318_86562)">
<rect x="762" y="244" width="33" height="127" rx="8" fill="#04B3E3"/>
<rect x="753" y="249" width="45" height="572" rx="12" fill="#04B3E3"/>
</g>
<g clip-path="url(#clip4_3318_86562)">
<rect x="753" y="258" width="23" height="118" rx="8" fill="#04B3E3"/>
<rect x="744" y="263" width="45" height="572" rx="12" fill="#04B3E3"/>
</g>
<g clip-path="url(#clip5_3318_86562)">
<rect x="743" y="274" width="23" height="84" rx="8" fill="#04B3E3"/>
<rect x="734" y="279" width="45" height="572" rx="12" fill="#04B3E3"/>
</g>
<g clip-path="url(#clip6_3318_86562)">
<rect x="738" y="295" width="18" height="79" rx="8" fill="#04B3E3"/>
<rect x="729" y="300" width="45" height="572" rx="12" fill="#04B3E3"/>
</g>
<g clip-path="url(#clip7_3318_86562)">
<rect x="731" y="308" width="18" height="79" rx="8" fill="#04B3E3"/>
<rect x="722" y="313" width="45" height="572" rx="12" fill="#04B3E3"/>
</g>
<rect x="730" y="279" width="11" height="21" fill="#04B3E3"/>
<g clip-path="url(#clip8_3318_86562)">
<rect x="722" y="320" width="18" height="33" rx="8" fill="#04B3E3"/>
<rect x="713" y="325" width="45" height="572" rx="12" fill="#04B3E3"/>
</g>
<g clip-path="url(#clip9_3318_86562)">
<rect x="713" y="332" width="18" height="33" rx="8" fill="#04B3E3"/>
<rect x="704" y="337" width="45" height="572" rx="12" fill="#04B3E3"/>
</g>
<rect x="686" y="337" width="32" height="47" fill="#04B3E3"/>
<rect x="702" y="328" width="32" height="47" fill="#04B3E3"/>
<rect x="711" y="316" width="32" height="47" fill="#04B3E3"/>
<rect x="721" y="302" width="32" height="47" fill="#04B3E3"/>
<rect x="727" y="288" width="32" height="47" fill="#04B3E3"/>
<rect x="736" y="274" width="32" height="47" fill="#04B3E3"/>
<rect x="740" y="261" width="32" height="47" fill="#04B3E3"/>
<rect x="748" y="248" width="32" height="47" fill="#04B3E3"/>
<rect x="777" y="235" width="32" height="47" fill="#04B3E3"/>
<rect x="769" y="238" width="32" height="47" fill="#04B3E3"/>
<g clip-path="url(#clip10_3318_86562)">
<rect x="700" y="335" width="18" height="33" rx="8" fill="#04B3E3"/>
<rect x="691" y="340" width="45" height="572" rx="12" fill="#04B3E3"/>
</g>
<g clip-path="url(#clip11_3318_86562)">
<rect x="672" y="345" width="88" height="13" rx="6.5" fill="#04B3E3"/>
<rect x="663" y="350" width="45" height="572" rx="12" fill="#04B3E3"/>
</g>
<g clip-path="url(#clip12_3318_86562)">
<rect x="591" y="432" width="88" height="13" rx="6.5" fill="#04B3E3"/>
<rect x="582" y="437" width="45" height="572" rx="12" fill="#04B3E3"/>
</g>
<defs>
<clipPath id="clip0_3318_86562">
<path d="M359 343C359 330.297 369.297 320 382 320H515C527.703 320 538 330.297 538 343V703C538 715.703 527.703 726 515 726H359V343Z" fill="white"/>
</clipPath>
<clipPath id="clip1_3318_86562">
<path d="M327 393C327 380.297 337.297 370 350 370H483C495.703 370 506 380.297 506 393V703C506 715.703 495.703 726 483 726H327V393Z" fill="white"/>
</clipPath>
<clipPath id="clip2_3318_86562">
<rect x="781" y="239" width="33" height="127" rx="8" fill="white"/>
</clipPath>
<clipPath id="clip3_3318_86562">
<rect x="762" y="244" width="33" height="127" rx="8" fill="white"/>
</clipPath>
<clipPath id="clip4_3318_86562">
<rect x="753" y="258" width="23" height="118" rx="8" fill="white"/>
</clipPath>
<clipPath id="clip5_3318_86562">
<rect x="743" y="274" width="23" height="84" rx="8" fill="white"/>
</clipPath>
<clipPath id="clip6_3318_86562">
<rect x="738" y="295" width="18" height="79" rx="8" fill="white"/>
</clipPath>
<clipPath id="clip7_3318_86562">
<rect x="731" y="308" width="18" height="79" rx="8" fill="white"/>
</clipPath>
<clipPath id="clip8_3318_86562">
<rect x="722" y="320" width="18" height="33" rx="8" fill="white"/>
</clipPath>
<clipPath id="clip9_3318_86562">
<rect x="713" y="332" width="18" height="33" rx="8" fill="white"/>
</clipPath>
<clipPath id="clip10_3318_86562">
<rect x="700" y="335" width="18" height="33" rx="8" fill="white"/>
</clipPath>
<clipPath id="clip11_3318_86562">
<rect x="672" y="345" width="88" height="13" rx="6.5" fill="white"/>
</clipPath>
<clipPath id="clip12_3318_86562">
<rect x="591" y="432" width="88" height="13" rx="6.5" fill="white"/>
</clipPath>
</defs>
</svg>
