<svg xmlns="http://www.w3.org/2000/svg" xmlns:xlink="http://www.w3.org/1999/xlink" width="500" zoomAndPan="magnify" viewBox="0 0 375 374.999991" height="500" preserveAspectRatio="xMidYMid meet" version="1.2"><defs><clipPath id="1219068acd"><path d="M 37.5 132 L 106 132 L 106 300 L 37.5 300 Z M 37.5 132 "/></clipPath><clipPath id="a4eeacc6d6"><path d="M 269 132 L 337.5 132 L 337.5 300 L 269 300 Z M 269 132 "/></clipPath><clipPath id="e08d2703ad"><path d="M 269 75 L 337.5 75 L 337.5 185 L 269 185 Z M 269 75 "/></clipPath><clipPath id="8d83df781d"><path d="M 37.5 75 L 106 75 L 106 184 L 37.5 184 Z M 37.5 75 "/></clipPath></defs><g id="4475efff34"><rect x="0" width="375" y="0" height="374.999991" style="fill:#ffffff;fill-opacity:1;stroke:none;"/><rect x="0" width="375" y="0" height="374.999991" style="fill:#ffffff;fill-opacity:1;stroke:none;"/><g clip-rule="nonzero" clip-path="url(#1219068acd)"><path style=" stroke:none;fill-rule:nonzero;fill:#4285f4;fill-opacity:1;" d="M 58.125 300 L 105.9375 300 L 105.9375 184.285156 L 37.632812 132.855469 L 37.632812 279.507812 C 37.632812 290.757812 46.875 300 58.125 300 "/></g><g clip-rule="nonzero" clip-path="url(#a4eeacc6d6)"><path style=" stroke:none;fill-rule:nonzero;fill:#34a853;fill-opacity:1;" d="M 269.464844 300 L 317.277344 300 C 328.527344 300 337.769531 290.757812 337.769531 279.507812 L 337.769531 132.855469 L 269.464844 183.882812 "/></g><g clip-rule="nonzero" clip-path="url(#e08d2703ad)"><path style=" stroke:none;fill-rule:nonzero;fill:#fbbc04;fill-opacity:1;" d="M 269.464844 95.492188 L 269.464844 184.285156 L 337.769531 133.257812 L 337.769531 105.535156 C 337.769531 80.222656 308.839844 65.757812 288.75 81.027344 "/></g><path style=" stroke:none;fill-rule:nonzero;fill:#ea4335;fill-opacity:1;" d="M 105.9375 184.285156 L 105.9375 95.492188 L 187.902344 156.964844 L 269.464844 95.492188 L 269.464844 184.285156 L 187.5 245.355469 "/><g clip-rule="nonzero" clip-path="url(#8d83df781d)"><path style=" stroke:none;fill-rule:nonzero;fill:#c5221f;fill-opacity:1;" d="M 37.632812 105.535156 L 37.632812 132.855469 L 105.9375 183.882812 L 105.9375 95.492188 L 86.652344 81.027344 C 66.5625 66.160156 37.632812 80.625 37.632812 105.535156 "/></g></g></svg>