<svg xmlns="http://www.w3.org/2000/svg" width="500" height="500" style="width:100%;height:100%;transform:translate3d(0,0,0);content-visibility:visible" viewBox="0 0 500 500"><defs><clipPath id="k"><path d="M0 0h500v500H0z"/></clipPath><clipPath id="p"><path d="M0 0h500v500H0z"/></clipPath><clipPath id="i"><path d="M0 0h500v500H0z"/></clipPath><clipPath id="n"><path d="M0 0h500v500H0z"/></clipPath><clipPath id="j"><path d="M0 0h500v500H0z"/></clipPath><clipPath id="l"><path d="M0 0h500v500H0z"/></clipPath><filter id="a" width="100%" height="100%" x="0%" y="0%" filterUnits="objectBoundingBox"><feComponentTransfer in="SourceGraphic"><feFuncA tableValues="1.0 0.0" type="table"/></feComponentTransfer></filter><filter id="d" width="100%" height="100%" x="0%" y="0%" filterUnits="objectBoundingBox"><feComponentTransfer in="SourceGraphic"><feFuncA tableValues="1.0 0.0" type="table"/></feComponentTransfer></filter><filter id="g" width="100%" height="100%" x="0%" y="0%" filterUnits="objectBoundingBox"><feComponentTransfer in="SourceGraphic"><feFuncA tableValues="1.0 0.0" type="table"/></feComponentTransfer></filter><mask id="q" mask-type="alpha" maskUnits="userSpaceOnUse"><g filter="url(#a)"><path fill="#fff" d="M0 0h500v500H0z" opacity="0"/><use xmlns:ns1="http://www.w3.org/1999/xlink" ns1:href="#c"/></g></mask><mask id="o" mask-type="alpha" maskUnits="userSpaceOnUse"><g filter="url(#d)"><path fill="#fff" d="M0 0h500v500H0z" opacity="0"/><use xmlns:ns2="http://www.w3.org/1999/xlink" ns2:href="#f"/></g></mask><mask id="m" mask-type="alpha" maskUnits="userSpaceOnUse"><g filter="url(#g)"><path fill="#fff" d="M0 0h500v500H0z" opacity="0"/><use xmlns:ns3="http://www.w3.org/1999/xlink" ns3:href="#h"/></g></mask><g id="c" clip-path="url(#i)" style="display:none"><g class="primary design" style="display:none"><path fill-opacity="0" stroke-linecap="round" stroke-linejoin="round" class="primary"/></g><g class="primary design" style="display:none"><path fill-opacity="0" stroke-linecap="round" stroke-linejoin="round" class="primary"/></g><g class="primary design" style="display:none"><path fill-opacity="0" stroke-linecap="round" stroke-miterlimit="10" class="primary"/></g></g><g id="f" clip-path="url(#j)" style="display:none"><g class="primary design" style="display:none"><path fill-opacity="0" stroke-linecap="round" stroke-miterlimit="10" class="primary"/></g><g class="primary design" style="display:none"><path fill-opacity="0" stroke-linecap="round" stroke-linejoin="round" class="primary"/></g><g class="primary design" style="display:none"><path fill-opacity="0" stroke-linecap="round" stroke-linejoin="round" class="primary"/></g></g><g id="h" class="primary design" style="display:none"><path fill-opacity="0" stroke-linecap="round" stroke-linejoin="round"/><path/></g></defs><g clip-path="url(#k)"><g clip-path="url(#l)" style="display:none"><g class="primary design" mask="url(#m)" style="display:none"><path class="primary"/></g><g class="primary design" style="display:none"><path fill="none" class="primary"/></g><g class="primary design" style="display:none"><path fill="none" class="primary"/></g><g class="primary design" style="display:none"><path fill="none" class="primary"/></g><g class="primary design" style="display:none"><path class="primary"/></g><g class="primary design" style="display:none"><path class="primary"/></g></g><g clip-path="url(#n)" style="display:block"><g class="primary design" mask="url(#o)" style="display:none"><path class="primary"/></g><g class="primary design" style="display:block"><path fill="#FFF" d="M393.796 99.167c-40.417-38.333-93.333-58.75-148.75-57.5-55.625 1.458-107.5 24.375-145.833 64.583-38.333 40.417-58.75 93.125-57.5 148.75 1.458 55.625 24.375 107.5 64.583 145.833 39.167 37.292 89.792 57.5 143.542 57.5h5.208c55.625-1.458 107.5-24.375 145.833-64.583 37.292-39.167 57.5-90 57.5-143.958V245c-1.458-55.625-24.375-107.5-64.583-145.833M268.379 372.5c-2.5 2.5-5.208 4.375-8.333 5.625-3.125 1.458-6.667 2.083-10 2.083-6.875 0-13.541-2.708-18.333-7.708-5-4.792-7.709-11.25-7.709-18.333 0-6.875 2.709-13.542 7.709-18.334 5.833-6.042 15-8.958 23.333-7.291 1.667.417 3.333.833 5 1.666 1.458.625 3.125 1.459 4.375 2.292a30.5 30.5 0 0 1 3.958 3.333c5 4.792 7.709 11.459 7.709 18.334s-2.709 13.541-7.709 18.333m20.417-115c-11.25 6.875-17.917 17.708-17.917 28.958 0 11.458-9.375 20.834-20.833 20.834s-20.833-9.376-20.833-20.834c0-25.833 14.166-50 37.916-64.583 9.375-5.833 18.958-18.958 14.375-36.875-2.708-10.625-11.667-19.584-22.5-22.292-10.417-2.708-20.625-.833-28.958 5.625-8.125 6.25-12.708 15.626-12.708 25.834 0 11.458-9.167 20.833-20.834 20.833-11.458 0-20.833-9.375-20.833-20.833 0-23.333 10.625-44.583 28.958-58.75 18.333-14.375 41.875-18.958 64.792-13.125 25.417 6.458 45.833 27.083 52.5 52.291 8.333 32.5-5 65.625-33.125 82.917" class="primary"/></g><g class="primary design" style="display:none"><path fill="#FFF" d="M393.796 99.167c-40.417-38.333-93.333-58.75-148.75-57.5-55.625 1.458-107.5 24.375-145.833 64.583-38.333 40.417-58.75 93.125-57.5 148.75 1.458 55.625 24.375 107.5 64.583 145.833 39.167 37.292 89.792 57.5 143.542 57.5h5.208c55.625-1.458 107.5-24.375 145.833-64.583 37.292-39.167 57.5-90 57.5-143.958V245c-1.458-55.625-24.375-107.5-64.583-145.833M268.379 372.5c-2.5 2.5-5.208 4.375-8.333 5.625-3.125 1.458-6.667 2.083-10 2.083-6.875 0-13.541-2.708-18.333-7.708-5-4.792-7.709-11.25-7.709-18.333 0-6.875 2.709-13.542 7.709-18.334 5.833-6.042 15-8.958 23.333-7.291 1.667.417 3.333.833 5 1.666 1.458.625 3.125 1.459 4.375 2.292a30.5 30.5 0 0 1 3.958 3.333c5 4.792 7.709 11.459 7.709 18.334s-2.709 13.541-7.709 18.333m20.417-115c-11.25 6.875-17.917 17.708-17.917 28.958 0 11.458-9.375 20.834-20.833 20.834s-20.833-9.376-20.833-20.834c0-25.833 14.166-50 37.916-64.583 9.375-5.833 18.958-18.958 14.375-36.875-2.708-10.625-11.667-19.584-22.5-22.292-10.417-2.708-20.625-.833-28.958 5.625-8.125 6.25-12.708 15.626-12.708 25.834 0 11.458-9.167 20.833-20.834 20.833-11.458 0-20.833-9.375-20.833-20.833 0-23.333 10.625-44.583 28.958-58.75 18.333-14.375 41.875-18.958 64.792-13.125 25.417 6.458 45.833 27.083 52.5 52.291 8.333 32.5-5 65.625-33.125 82.917" class="primary"/></g></g><g clip-path="url(#p)" style="display:none"><g class="primary design" mask="url(#q)" style="display:none"><path class="primary"/><path fill="none" class="primary"/></g><g class="primary design" style="display:none"><path class="primary"/></g></g></g></svg>