<svg width="110" height="110" viewBox="0 0 110 110" fill="none" xmlns="http://www.w3.org/2000/svg">
<path d="M27.4987 100.835H82.4987C84.9299 100.835 87.2614 99.8689 88.9805 98.1498C90.6996 96.4307 91.6654 94.0991 91.6654 91.668V18.3346C91.6654 15.9035 90.6996 13.5719 88.9805 11.8528C87.2614 10.1337 84.9299 9.16797 82.4987 9.16797H27.4987C25.0675 9.16797 22.736 10.1337 21.0169 11.8528C19.2978 13.5719 18.332 15.9035 18.332 18.3346V91.668C18.332 94.0991 19.2978 96.4307 21.0169 98.1498C22.736 99.8689 25.0675 100.835 27.4987 100.835ZM41.2487 87.0846H32.082V77.918H41.2487V87.0846ZM41.2487 68.7513H32.082V59.5846H41.2487V68.7513ZM41.2487 50.418H32.082V41.2513H41.2487V50.418ZM59.582 87.0846H50.4154V77.918H59.582V87.0846ZM59.582 68.7513H50.4154V59.5846H59.582V68.7513ZM59.582 50.418H50.4154V41.2513H59.582V50.418ZM77.9154 87.0846H68.7487V59.5846H77.9154V87.0846ZM77.9154 50.418H68.7487V41.2513H77.9154V50.418ZM27.4987 18.3346H82.4987V32.0846H27.4987V18.3346Z" fill="#04B3E3"/>
</svg>
