<svg width="110" height="110" viewBox="0 0 110 110" fill="none" xmlns="http://www.w3.org/2000/svg">
<g id="gg:sand-clock">
<g id="Group">
<path id="Vector" d="M59.5846 27.5H50.418V32.0833C50.418 33.2989 50.9009 34.4647 51.7604 35.3242C52.6199 36.1838 53.7857 36.6667 55.0013 36.6667C56.2169 36.6667 57.3827 36.1838 58.2422 35.3242C59.1017 34.4647 59.5846 33.2989 59.5846 32.0833V27.5Z" fill="#FFD635"/>
<path id="Vector_2" fill-rule="evenodd" clip-rule="evenodd" d="M27.5 9.16797V18.3346H32.0833V32.0846C32.0833 38.1625 34.4978 43.9915 38.7955 48.2892C43.0932 52.5869 48.9221 55.0013 55 55.0013C48.9221 55.0013 43.0932 57.4157 38.7955 61.7134C34.4978 66.0111 32.0833 71.8401 32.0833 77.918V91.668H27.5V100.835H82.5V91.668H77.9167V77.918C77.9167 71.8401 75.5022 66.0111 71.2045 61.7134C66.9068 57.4157 61.0779 55.0013 55 55.0013C58.0095 55.0013 60.9895 54.4085 63.7698 53.2569C66.5502 52.1052 69.0765 50.4172 71.2045 48.2892C73.3325 46.1612 75.0206 43.6348 76.1722 40.8545C77.3239 38.0741 77.9167 35.0941 77.9167 32.0846V18.3346H82.5V9.16797H27.5ZM41.25 18.3346H68.75V32.0846C68.75 35.7314 67.3013 39.2287 64.7227 41.8074C62.1441 44.386 58.6467 45.8346 55 45.8346C51.3533 45.8346 47.8559 44.386 45.2773 41.8074C42.6987 39.2287 41.25 35.7314 41.25 32.0846V18.3346ZM41.25 77.918V91.668H68.75V77.918C68.75 74.2712 67.3013 70.7739 64.7227 68.1952C62.1441 65.6166 58.6467 64.168 55 64.168C51.3533 64.168 47.8559 65.6166 45.2773 68.1952C42.6987 70.7739 41.25 74.2712 41.25 77.918Z" fill="#FFD635"/>
</g>
</g>
</svg>
