<svg width="32" height="32" viewBox="0 0 32 32" fill="none" xmlns="http://www.w3.org/2000/svg">
<path d="M14.6641 22.668H17.3307V14.668H14.6641V22.668ZM15.9974 12.0013C16.3752 12.0013 16.6921 11.8733 16.9481 11.6173C17.2041 11.3613 17.3316 11.0449 17.3307 10.668C17.3298 10.2911 17.2018 9.97464 16.9467 9.71864C16.6916 9.46264 16.3752 9.33463 15.9974 9.33463C15.6196 9.33463 15.3032 9.46264 15.0481 9.71864C14.793 9.97464 14.665 10.2911 14.6641 10.668C14.6632 11.0449 14.7912 11.3617 15.0481 11.6186C15.305 11.8755 15.6214 12.0031 15.9974 12.0013ZM15.9974 29.3346C14.153 29.3346 12.4196 28.9844 10.7974 28.284C9.17518 27.5835 7.76406 26.6337 6.56406 25.4346C5.36406 24.2355 4.41429 22.8244 3.71473 21.2013C3.01518 19.5782 2.66495 17.8449 2.66406 16.0013C2.66318 14.1577 3.0134 12.4244 3.71473 10.8013C4.41606 9.17819 5.36584 7.76708 6.56406 6.56797C7.76229 5.36886 9.1734 4.41908 10.7974 3.71864C12.4214 3.01819 14.1547 2.66797 15.9974 2.66797C17.8401 2.66797 19.5734 3.01819 21.1974 3.71864C22.8214 4.41908 24.2325 5.36886 25.4307 6.56797C26.629 7.76708 27.5792 9.17819 28.2814 10.8013C28.9836 12.4244 29.3334 14.1577 29.3307 16.0013C29.3281 17.8449 28.9778 19.5782 28.2801 21.2013C27.5823 22.8244 26.6325 24.2355 25.4307 25.4346C24.229 26.6337 22.8178 27.584 21.1974 28.2853C19.577 28.9866 17.8436 29.3364 15.9974 29.3346Z" fill="#04B3E3"/>
</svg>
