<svg width="149" height="127" viewBox="0 0 149 127" fill="none" xmlns="http://www.w3.org/2000/svg">
<path d="M14.9 127C10.8025 127 7.29603 125.619 4.3806 122.858C1.46517 120.097 0.00496667 116.774 0 112.889V0L12.4787 11.8181L24.7712 0L37.25 11.8181L49.7287 0L62.0212 11.8181L74.5 0L86.9788 11.8181L99.2712 0L111.75 11.8181L124.229 0L136.521 11.8181L149 0V112.889C149 116.769 147.542 120.093 144.627 122.858C141.711 125.624 138.202 127.005 134.1 127H14.9ZM14.9 112.889H67.05V70.5555H14.9V112.889ZM81.95 112.889H134.1V98.7778H81.95V112.889ZM81.95 84.6667H134.1V70.5555H81.95V84.6667ZM14.9 56.4444H134.1V35.2778H14.9V56.4444Z" fill="white"/>
</svg>
