<svg xmlns="http://www.w3.org/2000/svg" xmlns:xlink="http://www.w3.org/1999/xlink" width="500" zoomAndPan="magnify" viewBox="0 0 375 374.999991" height="500" preserveAspectRatio="xMidYMid meet" version="1.2"><defs><clipPath id="3547a1a409"><path d="M 39 37.5 L 337.5 37.5 L 337.5 336 L 39 336 Z M 39 37.5 "/></clipPath></defs><g id="319e64c521"><rect x="0" width="375" y="0" height="374.999991" style="fill:#ffffff;fill-opacity:1;stroke:none;"/><rect x="0" width="375" y="0" height="374.999991" style="fill:#ffffff;fill-opacity:1;stroke:none;"/><g clip-rule="nonzero" clip-path="url(#3547a1a409)"><path style=" stroke:none;fill-rule:nonzero;fill:#0a66c2;fill-opacity:1;" d="M 293.386719 291.648438 L 249.195312 291.648438 L 249.195312 222.4375 C 249.195312 205.929688 248.898438 184.683594 226.207031 184.683594 C 203.191406 184.683594 199.667969 202.667969 199.667969 221.234375 L 199.667969 291.644531 L 155.476562 291.644531 L 155.476562 149.3125 L 197.902344 149.3125 L 197.902344 168.765625 L 198.496094 168.765625 C 199.554688 166.957031 200.726562 165.230469 202.015625 163.582031 C 203.304688 161.933594 204.699219 160.378906 206.199219 158.917969 C 207.699219 157.460938 209.292969 156.105469 210.972656 154.863281 C 212.65625 153.617188 214.414062 152.492188 216.25 151.484375 C 218.082031 150.476562 219.976562 149.597656 221.929688 148.84375 C 223.882812 148.09375 225.878906 147.476562 227.914062 146.992188 C 229.949219 146.511719 232.011719 146.167969 234.09375 145.960938 C 236.175781 145.757812 238.265625 145.695312 240.355469 145.773438 C 285.148438 145.773438 293.40625 175.238281 293.40625 213.570312 Z M 105.613281 129.859375 C 104.773438 129.859375 103.933594 129.816406 103.097656 129.734375 C 102.261719 129.652344 101.433594 129.527344 100.609375 129.367188 C 99.785156 129.203125 98.96875 129 98.167969 128.753906 C 97.363281 128.511719 96.574219 128.226562 95.796875 127.90625 C 95.019531 127.585938 94.261719 127.226562 93.523438 126.832031 C 92.78125 126.433594 92.0625 126.003906 91.363281 125.539062 C 90.664062 125.070312 89.988281 124.570312 89.339844 124.039062 C 88.691406 123.503906 88.070312 122.941406 87.476562 122.347656 C 86.882812 121.753906 86.316406 121.132812 85.785156 120.484375 C 85.253906 119.835938 84.753906 119.160156 84.285156 118.460938 C 83.820312 117.765625 83.386719 117.042969 82.992188 116.304688 C 82.59375 115.5625 82.238281 114.804688 81.914062 114.027344 C 81.59375 113.253906 81.3125 112.464844 81.066406 111.660156 C 80.820312 110.855469 80.617188 110.042969 80.453125 109.21875 C 80.289062 108.394531 80.167969 107.5625 80.085938 106.726562 C 80.003906 105.890625 79.960938 105.054688 79.960938 104.214844 C 79.960938 103.375 80 102.535156 80.085938 101.699219 C 80.167969 100.863281 80.289062 100.035156 80.453125 99.210938 C 80.617188 98.386719 80.820312 97.574219 81.0625 96.769531 C 81.308594 95.964844 81.589844 95.175781 81.910156 94.398438 C 82.234375 93.621094 82.589844 92.863281 82.988281 92.125 C 83.382812 91.382812 83.8125 90.664062 84.28125 89.964844 C 84.746094 89.265625 85.246094 88.589844 85.78125 87.941406 C 86.3125 87.292969 86.875 86.671875 87.46875 86.078125 C 88.0625 85.484375 88.683594 84.917969 89.332031 84.386719 C 89.984375 83.851562 90.65625 83.351562 91.355469 82.886719 C 92.054688 82.417969 92.773438 81.988281 93.511719 81.59375 C 94.253906 81.195312 95.011719 80.835938 95.789062 80.515625 C 96.5625 80.195312 97.355469 79.910156 98.15625 79.667969 C 98.960938 79.421875 99.773438 79.21875 100.597656 79.054688 C 101.421875 78.890625 102.253906 78.769531 103.089844 78.683594 C 103.925781 78.601562 104.761719 78.5625 105.601562 78.5625 C 106.441406 78.5625 107.28125 78.601562 108.117188 78.683594 C 108.953125 78.765625 109.78125 78.890625 110.605469 79.054688 C 111.429688 79.21875 112.242188 79.421875 113.046875 79.664062 C 113.851562 79.910156 114.640625 80.191406 115.417969 80.511719 C 116.191406 80.832031 116.953125 81.191406 117.691406 81.585938 C 118.433594 81.984375 119.152344 82.414062 119.851562 82.882812 C 120.550781 83.347656 121.222656 83.847656 121.871094 84.378906 C 122.523438 84.914062 123.144531 85.476562 123.738281 86.070312 C 124.332031 86.664062 124.894531 87.285156 125.429688 87.933594 C 125.960938 88.585938 126.460938 89.257812 126.925781 89.957031 C 127.394531 90.65625 127.824219 91.375 128.222656 92.113281 C 128.617188 92.855469 128.976562 93.613281 129.300781 94.390625 C 129.621094 95.167969 129.902344 95.957031 130.148438 96.761719 C 130.390625 97.5625 130.59375 98.378906 130.757812 99.203125 C 130.921875 100.023438 131.046875 100.855469 131.128906 101.691406 C 131.210938 102.527344 131.253906 103.363281 131.253906 104.203125 C 131.253906 105.042969 131.210938 105.882812 131.128906 106.71875 C 131.046875 107.554688 130.925781 108.386719 130.761719 109.207031 C 130.597656 110.03125 130.394531 110.847656 130.152344 111.648438 C 129.90625 112.453125 129.625 113.246094 129.300781 114.019531 C 128.980469 114.796875 128.621094 115.554688 128.226562 116.296875 C 127.832031 117.035156 127.398438 117.757812 126.933594 118.453125 C 126.46875 119.152344 125.96875 119.828125 125.433594 120.476562 C 124.902344 121.125 124.339844 121.746094 123.746094 122.34375 C 123.152344 122.9375 122.53125 123.5 121.878906 124.03125 C 121.230469 124.566406 120.558594 125.066406 119.859375 125.53125 C 119.160156 126 118.441406 126.429688 117.699219 126.828125 C 116.960938 127.222656 116.203125 127.582031 115.425781 127.902344 C 114.648438 128.226562 113.859375 128.507812 113.054688 128.75 C 112.253906 128.996094 111.4375 129.199219 110.613281 129.363281 C 109.789062 129.527344 108.960938 129.652344 108.125 129.734375 C 107.289062 129.816406 106.453125 129.855469 105.613281 129.859375 M 127.707031 291.648438 L 83.46875 291.648438 L 83.46875 149.3125 L 127.707031 149.3125 Z M 315.417969 37.519531 L 61.261719 37.519531 C 60.550781 37.511719 59.839844 37.539062 59.128906 37.597656 C 58.417969 37.660156 57.714844 37.757812 57.011719 37.886719 C 56.3125 38.019531 55.621094 38.183594 54.9375 38.382812 C 54.253906 38.582031 53.582031 38.8125 52.917969 39.078125 C 52.257812 39.34375 51.609375 39.640625 50.980469 39.96875 C 50.347656 40.296875 49.730469 40.65625 49.136719 41.046875 C 48.539062 41.433594 47.960938 41.851562 47.40625 42.296875 C 46.851562 42.742188 46.316406 43.214844 45.808594 43.710938 C 45.296875 44.210938 44.8125 44.730469 44.355469 45.277344 C 43.898438 45.824219 43.464844 46.390625 43.0625 46.976562 C 42.660156 47.566406 42.289062 48.171875 41.945312 48.796875 C 41.601562 49.417969 41.289062 50.058594 41.007812 50.714844 C 40.726562 51.367188 40.480469 52.035156 40.265625 52.714844 C 40.050781 53.394531 39.867188 54.082031 39.722656 54.78125 C 39.574219 55.476562 39.460938 56.179688 39.382812 56.886719 C 39.304688 57.59375 39.261719 58.304688 39.253906 59.019531 L 39.253906 314.25 C 39.261719 314.964844 39.304688 315.671875 39.382812 316.382812 C 39.460938 317.089844 39.574219 317.792969 39.71875 318.492188 C 39.867188 319.1875 40.046875 319.878906 40.261719 320.558594 C 40.476562 321.238281 40.726562 321.902344 41.003906 322.558594 C 41.285156 323.214844 41.597656 323.855469 41.941406 324.480469 C 42.285156 325.105469 42.65625 325.710938 43.058594 326.300781 C 43.460938 326.886719 43.894531 327.453125 44.351562 328 C 44.808594 328.546875 45.292969 329.066406 45.804688 329.566406 C 46.3125 330.066406 46.847656 330.539062 47.402344 330.984375 C 47.957031 331.429688 48.535156 331.847656 49.132812 332.238281 C 49.726562 332.625 50.34375 332.984375 50.976562 333.3125 C 51.609375 333.644531 52.253906 333.941406 52.914062 334.207031 C 53.578125 334.472656 54.25 334.703125 54.933594 334.902344 C 55.617188 335.101562 56.3125 335.269531 57.011719 335.398438 C 57.710938 335.53125 58.417969 335.628906 59.128906 335.691406 C 59.835938 335.753906 60.546875 335.78125 61.261719 335.773438 L 315.417969 335.773438 C 316.132812 335.78125 316.847656 335.757812 317.558594 335.695312 C 318.269531 335.632812 318.976562 335.539062 319.679688 335.40625 C 320.378906 335.277344 321.074219 335.113281 321.761719 334.914062 C 322.445312 334.714844 323.121094 334.484375 323.785156 334.21875 C 324.449219 333.953125 325.097656 333.65625 325.730469 333.328125 C 326.363281 333 326.980469 332.640625 327.582031 332.253906 C 328.179688 331.863281 328.757812 331.445312 329.316406 331 C 329.875 330.554688 330.410156 330.082031 330.921875 329.585938 C 331.433594 329.085938 331.917969 328.5625 332.378906 328.015625 C 332.839844 327.472656 333.269531 326.902344 333.675781 326.316406 C 334.082031 325.726562 334.457031 325.121094 334.800781 324.496094 C 335.144531 323.871094 335.460938 323.230469 335.742188 322.574219 C 336.023438 321.917969 336.273438 321.25 336.488281 320.566406 C 336.707031 319.886719 336.890625 319.195312 337.039062 318.5 C 337.1875 317.800781 337.300781 317.097656 337.382812 316.386719 C 337.460938 315.675781 337.507812 314.964844 337.515625 314.25 L 337.515625 59 C 337.507812 58.285156 337.460938 57.574219 337.382812 56.863281 C 337.300781 56.15625 337.1875 55.453125 337.035156 54.753906 C 336.886719 54.054688 336.703125 53.367188 336.488281 52.6875 C 336.269531 52.007812 336.023438 51.339844 335.738281 50.683594 C 335.457031 50.027344 335.144531 49.386719 334.796875 48.761719 C 334.453125 48.136719 334.078125 47.53125 333.671875 46.941406 C 333.269531 46.355469 332.835938 45.789062 332.375 45.242188 C 331.914062 44.695312 331.429688 44.175781 330.917969 43.675781 C 330.40625 43.179688 329.871094 42.707031 329.3125 42.261719 C 328.753906 41.816406 328.175781 41.398438 327.578125 41.011719 C 326.976562 40.621094 326.363281 40.265625 325.726562 39.9375 C 325.09375 39.609375 324.445312 39.3125 323.78125 39.046875 C 323.117188 38.785156 322.445312 38.550781 321.757812 38.355469 C 321.074219 38.15625 320.378906 37.992188 319.675781 37.863281 C 318.976562 37.734375 318.269531 37.636719 317.558594 37.578125 C 316.847656 37.515625 316.132812 37.492188 315.417969 37.5 "/></g></g></svg>