<svg width="100" height="100" viewBox="0 0 100 100" fill="none" xmlns="http://www.w3.org/2000/svg">
<path d="M62.5 73.4375C62.1933 81.1537 55.7629 87.7058 47.1483 87.495C45.1442 87.4458 42.6671 86.7475 37.713 85.35C25.79 81.9867 15.4398 76.3346 12.9565 63.6729C12.5 61.3458 12.5 58.7267 12.5 53.4887V46.5112C12.5 41.2734 12.5 38.6544 12.9565 36.3269C15.4398 23.6652 25.79 18.0132 37.713 14.6501C42.6671 13.2527 45.1442 12.5539 47.1483 12.5049C55.7629 12.2942 62.1933 18.8461 62.5 26.5625" stroke="white" stroke-width="1.5" stroke-linecap="round"/>
<path d="M87.4974 50H41.6641M87.4974 50C87.4974 47.0825 79.1878 41.6314 77.0807 39.5834M87.4974 50C87.4974 52.9175 79.1878 58.3688 77.0807 60.4167" stroke="white" stroke-width="1.5" stroke-linecap="round" stroke-linejoin="round"/>
</svg>
