<svg width="67" height="67" viewBox="0 0 67 67" fill="none" xmlns="http://www.w3.org/2000/svg">
<path d="M65.3119 0.823669C66.3719 1.60882 67 2.86508 67 4.18675V48.1555C67 53.9395 61.373 58.6243 54.4375 58.6243C47.502 58.6243 41.875 53.9395 41.875 48.1555C41.875 42.3715 47.502 37.6868 54.4375 37.6868C55.9031 37.6868 57.3164 37.8961 58.625 38.2887V19.2356L25.125 29.2856V56.5305C25.125 62.3145 19.498 66.9993 12.5625 66.9993C5.62695 66.9993 0 62.3145 0 56.5305C0 50.7465 5.62695 46.0618 12.5625 46.0618C14.0281 46.0618 15.4414 46.2711 16.75 46.6637V16.7493C16.75 14.9041 17.967 13.2684 19.7336 12.7319L61.6086 0.169372C62.8779 -0.210121 64.252 0.0254264 65.3119 0.823669Z" fill="white"/>
</svg>
