<svg width="100" height="100" viewBox="0 0 100 100" fill="none" xmlns="http://www.w3.org/2000/svg">
<path d="M25 56.25V50H31.25V56.25H25ZM6.25 25C6.25 21.6848 7.56696 18.5054 9.91117 16.1612C12.2554 13.817 15.4348 12.5 18.75 12.5H62.5C65.8152 12.5 68.9946 13.817 71.3388 16.1612C73.683 18.5054 75 21.6848 75 25V65.625C75 66.4538 75.3292 67.2487 75.9153 67.8347C76.5013 68.4208 77.2962 68.75 78.125 68.75C78.9538 68.75 79.7487 68.4208 80.3347 67.8347C80.9208 67.2487 81.25 66.4538 81.25 65.625V25C84.5652 25 87.7446 26.317 90.0888 28.6612C92.433 31.0054 93.75 34.1848 93.75 37.5V65.625C93.75 69.769 92.1038 73.7433 89.1735 76.6735C86.2433 79.6038 82.269 81.25 78.125 81.25H21.875C17.731 81.25 13.7567 79.6038 10.8265 76.6735C7.8962 73.7433 6.25 69.769 6.25 65.625V25ZM21.875 31.25C21.0462 31.25 20.2513 31.5792 19.6653 32.1653C19.0792 32.7513 18.75 33.5462 18.75 34.375C18.75 35.2038 19.0792 35.9987 19.6653 36.5847C20.2513 37.1708 21.0462 37.5 21.875 37.5H59.375C60.2038 37.5 60.9987 37.1708 61.5847 36.5847C62.1708 35.9987 62.5 35.2038 62.5 34.375C62.5 33.5462 62.1708 32.7513 61.5847 32.1653C60.9987 31.5792 60.2038 31.25 59.375 31.25H21.875ZM21.875 43.75C21.0462 43.75 20.2513 44.0792 19.6653 44.6653C19.0792 45.2513 18.75 46.0462 18.75 46.875V59.375C18.75 60.2038 19.0792 60.9987 19.6653 61.5847C20.2513 62.1708 21.0462 62.5 21.875 62.5H34.375C35.2038 62.5 35.9987 62.1708 36.5847 61.5847C37.1708 60.9987 37.5 60.2038 37.5 59.375V46.875C37.5 46.0462 37.1708 45.2513 36.5847 44.6653C35.9987 44.0792 35.2038 43.75 34.375 43.75H21.875ZM46.875 43.75C46.0462 43.75 45.2513 44.0792 44.6653 44.6653C44.0792 45.2513 43.75 46.0462 43.75 46.875C43.75 47.7038 44.0792 48.4987 44.6653 49.0847C45.2513 49.6708 46.0462 50 46.875 50H59.375C60.2038 50 60.9987 49.6708 61.5847 49.0847C62.1708 48.4987 62.5 47.7038 62.5 46.875C62.5 46.0462 62.1708 45.2513 61.5847 44.6653C60.9987 44.0792 60.2038 43.75 59.375 43.75H46.875ZM46.875 56.25C46.0462 56.25 45.2513 56.5792 44.6653 57.1653C44.0792 57.7513 43.75 58.5462 43.75 59.375C43.75 60.2038 44.0792 60.9987 44.6653 61.5847C45.2513 62.1708 46.0462 62.5 46.875 62.5H59.375C60.2038 62.5 60.9987 62.1708 61.5847 61.5847C62.1708 60.9987 62.5 60.2038 62.5 59.375C62.5 58.5462 62.1708 57.7513 61.5847 57.1653C60.9987 56.5792 60.2038 56.25 59.375 56.25H46.875Z" fill="white"/>
</svg>
