<svg width="2813" height="372" viewBox="0 0 2813 372" fill="none" xmlns="http://www.w3.org/2000/svg">
<g opacity="0.5" clip-path="url(#clip0_3030_84488)">
<g opacity="0.15" clip-path="url(#clip1_3030_84488)">
<path d="M18.5861 171.46C4.32284 186.755 5.16262 210.803 20.4581 225.067C35.7536 239.33 59.8015 238.49 74.0648 223.195C88.328 207.899 87.4883 183.851 72.1928 169.588C56.8973 155.325 32.8494 156.164 18.5861 171.46ZM68.5169 218.021C57.1068 230.257 37.8674 230.929 25.6316 219.519C13.3957 208.109 12.7239 188.869 24.134 176.633C35.5441 164.398 54.7835 163.726 67.0193 175.136C79.2551 186.546 79.927 205.785 68.5169 218.021Z" fill="#04B3E3"/>
<path d="M35.0485 181.62L29.875 187.168L44.8931 201.173L62.5458 200.556L62.2811 192.976L47.7697 193.483L35.0485 181.62Z" fill="#04B3E3"/>
<path d="M229.586 173.46C215.323 188.755 216.163 212.803 231.458 227.067C246.754 241.33 270.802 240.49 285.065 225.195C299.328 209.899 298.488 185.851 283.193 171.588C267.897 157.325 243.849 158.164 229.586 173.46ZM279.517 220.021C268.107 232.257 248.867 232.929 236.632 221.519C224.396 210.109 223.724 190.869 235.134 178.633C246.544 166.398 265.783 165.726 278.019 177.136C290.255 188.546 290.927 207.785 279.517 220.021Z" fill="#04B3E3"/>
<path d="M246.048 183.62L240.875 189.168L255.893 203.173L273.546 202.556L273.281 194.976L258.77 195.483L246.048 183.62Z" fill="#04B3E3"/>
<path d="M440.586 174.46C426.323 189.755 427.163 213.803 442.458 228.067C457.754 242.33 481.802 241.49 496.065 226.195C510.328 210.899 509.488 186.851 494.193 172.588C478.897 158.325 454.849 159.164 440.586 174.46ZM490.517 221.021C479.107 233.257 459.867 233.929 447.632 222.519C435.396 211.109 434.724 191.869 446.134 179.633C457.544 167.398 476.783 166.726 489.019 178.136C501.255 189.546 501.927 208.785 490.517 221.021Z" fill="#04B3E3"/>
<path d="M457.048 184.62L451.875 190.168L466.893 204.173L484.546 203.556L484.281 195.976L469.77 196.483L457.048 184.62Z" fill="#04B3E3"/>
<path d="M651.586 170.46C637.323 185.755 638.163 209.803 653.458 224.067C668.754 238.33 692.802 237.49 707.065 222.195C721.328 206.899 720.488 182.851 705.193 168.588C689.897 154.325 665.849 155.164 651.586 170.46ZM701.517 217.021C690.107 229.257 670.867 229.929 658.632 218.519C646.396 207.109 645.724 187.869 657.134 175.633C668.544 163.398 687.783 162.726 700.019 174.136C712.255 185.546 712.927 204.785 701.517 217.021Z" fill="#04B3E3"/>
<path d="M668.048 180.62L662.875 186.168L677.893 200.173L695.546 199.556L695.281 191.976L680.77 192.483L668.048 180.62Z" fill="#04B3E3"/>
<path d="M862.586 169.46C848.323 184.755 849.163 208.803 864.458 223.067C879.754 237.33 903.802 236.49 918.065 221.195C932.328 205.899 931.488 181.851 916.193 167.588C900.897 153.325 876.849 154.164 862.586 169.46ZM912.517 216.021C901.107 228.257 881.867 228.929 869.632 217.519C857.396 206.109 856.724 186.869 868.134 174.633C879.544 162.398 898.783 161.726 911.019 173.136C923.255 184.546 923.927 203.785 912.517 216.021Z" fill="#04B3E3"/>
<path d="M879.048 179.62L873.875 185.168L888.893 199.173L906.546 198.556L906.281 190.976L891.77 191.483L879.048 179.62Z" fill="#04B3E3"/>
<path d="M1073.59 172.46C1059.32 187.755 1060.16 211.803 1075.46 226.067C1090.75 240.33 1114.8 239.49 1129.06 224.195C1143.33 208.899 1142.49 184.851 1127.19 170.588C1111.9 156.325 1087.85 157.164 1073.59 172.46ZM1123.52 219.021C1112.11 231.257 1092.87 231.929 1080.63 220.519C1068.4 209.109 1067.72 189.869 1079.13 177.633C1090.54 165.398 1109.78 164.726 1122.02 176.136C1134.26 187.546 1134.93 206.785 1123.52 219.021Z" fill="#04B3E3"/>
<path d="M1090.05 182.62L1084.88 188.168L1099.89 202.173L1117.55 201.556L1117.28 193.976L1102.77 194.483L1090.05 182.62Z" fill="#04B3E3"/>
<path d="M1284.59 171.46C1270.32 186.755 1271.16 210.803 1286.46 225.067C1301.75 239.33 1325.8 238.49 1340.06 223.195C1354.33 207.899 1353.49 183.851 1338.19 169.588C1322.9 155.325 1298.85 156.164 1284.59 171.46ZM1334.52 218.021C1323.11 230.257 1303.87 230.929 1291.63 219.519C1279.4 208.109 1278.72 188.869 1290.13 176.633C1301.54 164.398 1320.78 163.726 1333.02 175.136C1345.26 186.546 1345.93 205.785 1334.52 218.021Z" fill="#04B3E3"/>
<path d="M1301.05 181.62L1295.88 187.168L1310.89 201.173L1328.55 200.556L1328.28 192.976L1313.77 193.483L1301.05 181.62Z" fill="#04B3E3"/>
<path d="M155.868 205.583C150.677 205.583 145.81 204.594 141.269 202.616C136.727 200.638 132.771 197.966 129.402 194.599C126.032 191.231 123.359 187.276 121.381 182.732C119.403 178.188 118.414 173.32 118.414 168.129C118.414 159.105 121.288 151.148 127.036 144.258C132.784 137.368 140.108 133.087 149.008 131.416C147.895 137.535 148.235 143.515 150.028 149.357C151.82 155.199 154.91 160.313 159.298 164.698C163.687 169.084 168.802 172.174 174.644 173.969C180.485 175.764 186.464 176.104 192.581 174.989C190.974 183.889 186.709 191.213 179.787 196.961C172.865 202.709 164.892 205.583 155.868 205.583ZM155.868 198.166C161.307 198.166 166.344 196.806 170.98 194.087C175.615 191.367 179.262 187.628 181.919 182.869C176.604 182.375 171.567 181.03 166.808 178.834C162.049 176.639 157.784 173.658 154.014 169.89C150.244 166.122 147.246 161.858 145.021 157.096C142.796 152.335 141.468 147.298 141.035 141.985C136.276 144.642 132.553 148.305 129.865 152.973C127.178 157.64 125.833 162.692 125.831 168.129C125.831 176.472 128.752 183.565 134.594 189.407C140.435 195.249 147.527 198.168 155.868 198.166Z" fill="#04B3E3"/>
<path d="M366.868 201.583C361.677 201.583 356.81 200.594 352.269 198.616C347.727 196.638 343.771 193.966 340.402 190.599C337.032 187.231 334.359 183.276 332.381 178.732C330.403 174.188 329.414 169.32 329.414 164.129C329.414 155.105 332.288 147.148 338.036 140.258C343.784 133.368 351.108 129.087 360.008 127.416C358.895 133.535 359.235 139.515 361.028 145.357C362.82 151.199 365.91 156.313 370.298 160.698C374.687 165.084 379.802 168.174 385.644 169.969C391.485 171.764 397.464 172.104 403.581 170.989C401.974 179.889 397.709 187.213 390.787 192.961C383.865 198.709 375.892 201.583 366.868 201.583ZM366.868 194.166C372.307 194.166 377.344 192.806 381.98 190.087C386.615 187.367 390.262 183.628 392.919 178.869C387.604 178.375 382.567 177.03 377.808 174.834C373.049 172.639 368.784 169.658 365.014 165.89C361.244 162.122 358.246 157.858 356.021 153.096C353.796 148.335 352.468 143.298 352.035 137.985C347.276 140.642 343.553 144.305 340.865 148.973C338.178 153.64 336.833 158.692 336.831 164.129C336.831 172.472 339.752 179.565 345.594 185.407C351.435 191.249 358.527 194.168 366.868 194.166Z" fill="#04B3E3"/>
<path d="M577.868 202.583C572.677 202.583 567.81 201.594 563.269 199.616C558.727 197.638 554.771 194.966 551.402 191.599C548.032 188.231 545.359 184.276 543.381 179.732C541.403 175.188 540.414 170.32 540.414 165.129C540.414 156.105 543.288 148.148 549.036 141.258C554.784 134.368 562.108 130.087 571.008 128.416C569.895 134.535 570.235 140.515 572.028 146.357C573.82 152.199 576.91 157.313 581.298 161.698C585.687 166.084 590.802 169.174 596.644 170.969C602.485 172.764 608.464 173.104 614.581 171.989C612.974 180.889 608.709 188.213 601.787 193.961C594.865 199.709 586.892 202.583 577.868 202.583ZM577.868 195.166C583.307 195.166 588.344 193.806 592.98 191.087C597.615 188.367 601.262 184.628 603.919 179.869C598.604 179.375 593.567 178.03 588.808 175.834C584.049 173.639 579.784 170.658 576.014 166.89C572.244 163.122 569.246 158.858 567.021 154.096C564.796 149.335 563.468 144.298 563.035 138.985C558.276 141.642 554.553 145.305 551.865 149.973C549.178 154.64 547.833 159.692 547.831 165.129C547.831 173.472 550.752 180.565 556.594 186.407C562.435 192.249 569.527 195.168 577.868 195.166Z" fill="#04B3E3"/>
<path d="M788.868 201.583C783.677 201.583 778.81 200.594 774.269 198.616C769.727 196.638 765.771 193.966 762.402 190.599C759.032 187.231 756.359 183.276 754.381 178.732C752.403 174.188 751.414 169.32 751.414 164.129C751.414 155.105 754.288 147.148 760.036 140.258C765.784 133.368 773.108 129.087 782.008 127.416C780.895 133.535 781.235 139.515 783.028 145.357C784.82 151.199 787.91 156.313 792.298 160.698C796.687 165.084 801.802 168.174 807.644 169.969C813.485 171.764 819.464 172.104 825.581 170.989C823.974 179.889 819.709 187.213 812.787 192.961C805.865 198.709 797.892 201.583 788.868 201.583ZM788.868 194.166C794.307 194.166 799.344 192.806 803.98 190.087C808.615 187.367 812.262 183.628 814.919 178.869C809.604 178.375 804.567 177.03 799.808 174.834C795.049 172.639 790.784 169.658 787.014 165.89C783.244 162.122 780.246 157.858 778.021 153.096C775.796 148.335 774.468 143.298 774.035 137.985C769.276 140.642 765.553 144.305 762.865 148.973C760.178 153.64 758.833 158.692 758.831 164.129C758.831 172.472 761.752 179.565 767.594 185.407C773.435 191.249 780.527 194.168 788.868 194.166Z" fill="#04B3E3"/>
<path d="M999.868 210.583C994.677 210.583 989.81 209.594 985.269 207.616C980.727 205.638 976.771 202.966 973.402 199.599C970.032 196.231 967.359 192.276 965.381 187.732C963.403 183.188 962.414 178.32 962.414 173.129C962.414 164.105 965.288 156.148 971.036 149.258C976.784 142.368 984.108 138.087 993.008 136.416C991.895 142.535 992.235 148.515 994.028 154.357C995.82 160.199 998.91 165.313 1003.3 169.698C1007.69 174.084 1012.8 177.174 1018.64 178.969C1024.49 180.764 1030.46 181.104 1036.58 179.989C1034.97 188.889 1030.71 196.213 1023.79 201.961C1016.86 207.709 1008.89 210.583 999.868 210.583ZM999.868 203.166C1005.31 203.166 1010.34 201.806 1014.98 199.087C1019.62 196.367 1023.26 192.628 1025.92 187.869C1020.6 187.375 1015.57 186.03 1010.81 183.834C1006.05 181.639 1001.78 178.658 998.014 174.89C994.244 171.122 991.246 166.858 989.021 162.096C986.796 157.335 985.468 152.298 985.035 146.985C980.276 149.642 976.553 153.305 973.865 157.973C971.178 162.64 969.833 167.692 969.831 173.129C969.831 181.472 972.752 188.565 978.594 194.407C984.435 200.249 991.527 203.168 999.868 203.166Z" fill="#04B3E3"/>
<path d="M1210.87 210.583C1205.68 210.583 1200.81 209.594 1196.27 207.616C1191.73 205.638 1187.77 202.966 1184.4 199.599C1181.03 196.231 1178.36 192.276 1176.38 187.732C1174.4 183.188 1173.41 178.32 1173.41 173.129C1173.41 164.105 1176.29 156.148 1182.04 149.258C1187.78 142.368 1195.11 138.087 1204.01 136.416C1202.9 142.535 1203.24 148.515 1205.03 154.357C1206.82 160.199 1209.91 165.313 1214.3 169.698C1218.69 174.084 1223.8 177.174 1229.64 178.969C1235.49 180.764 1241.46 181.104 1247.58 179.989C1245.97 188.889 1241.71 196.213 1234.79 201.961C1227.86 207.709 1219.89 210.583 1210.87 210.583ZM1210.87 203.166C1216.31 203.166 1221.34 201.806 1225.98 199.087C1230.62 196.367 1234.26 192.628 1236.92 187.869C1231.6 187.375 1226.57 186.03 1221.81 183.834C1217.05 181.639 1212.78 178.658 1209.01 174.89C1205.24 171.122 1202.25 166.858 1200.02 162.096C1197.8 157.335 1196.47 152.298 1196.03 146.985C1191.28 149.642 1187.55 153.305 1184.87 157.973C1182.18 162.64 1180.83 167.692 1180.83 173.129C1180.83 181.472 1183.75 188.565 1189.59 194.407C1195.44 200.249 1202.53 203.168 1210.87 203.166Z" fill="#04B3E3"/>
</g>
<g opacity="0.15" clip-path="url(#clip2_3030_84488)">
<path d="M2706.41 172.46C2720.68 187.755 2719.84 211.803 2704.54 226.067C2689.25 240.33 2665.2 239.49 2650.94 224.195C2636.67 208.899 2637.51 184.851 2652.81 170.588C2668.1 156.325 2692.15 157.164 2706.41 172.46ZM2656.48 219.021C2667.89 231.257 2687.13 231.929 2699.37 220.519C2711.6 209.109 2712.28 189.869 2700.87 177.633C2689.46 165.398 2670.22 164.726 2657.98 176.136C2645.74 187.546 2645.07 206.785 2656.48 219.021Z" fill="#04B3E3"/>
<path d="M2689.95 182.62L2695.12 188.168L2680.11 202.173L2662.45 201.556L2662.72 193.976L2677.23 194.483L2689.95 182.62Z" fill="#04B3E3"/>
<path d="M2495.41 174.46C2509.68 189.755 2508.84 213.803 2493.54 228.067C2478.25 242.33 2454.2 241.49 2439.94 226.195C2425.67 210.899 2426.51 186.851 2441.81 172.588C2457.1 158.325 2481.15 159.164 2495.41 174.46ZM2445.48 221.021C2456.89 233.257 2476.13 233.929 2488.37 222.519C2500.6 211.109 2501.28 191.869 2489.87 179.633C2478.46 167.398 2459.22 166.726 2446.98 178.136C2434.74 189.546 2434.07 208.785 2445.48 221.021Z" fill="#04B3E3"/>
<path d="M2478.95 184.62L2484.12 190.168L2469.11 204.173L2451.45 203.556L2451.72 195.976L2466.23 196.483L2478.95 184.62Z" fill="#04B3E3"/>
<path d="M2284.41 175.46C2298.68 190.755 2297.84 214.803 2282.54 229.067C2267.25 243.33 2243.2 242.49 2228.94 227.195C2214.67 211.899 2215.51 187.851 2230.81 173.588C2246.1 159.325 2270.15 160.164 2284.41 175.46ZM2234.48 222.021C2245.89 234.257 2265.13 234.929 2277.37 223.519C2289.6 212.109 2290.28 192.869 2278.87 180.633C2267.46 168.398 2248.22 167.726 2235.98 179.136C2223.74 190.546 2223.07 209.785 2234.48 222.021Z" fill="#04B3E3"/>
<path d="M2267.95 185.62L2273.12 191.168L2258.11 205.173L2240.45 204.556L2240.72 196.976L2255.23 197.483L2267.95 185.62Z" fill="#04B3E3"/>
<path d="M2073.41 171.46C2087.68 186.755 2086.84 210.803 2071.54 225.067C2056.25 239.33 2032.2 238.49 2017.94 223.195C2003.67 207.899 2004.51 183.851 2019.81 169.588C2035.1 155.325 2059.15 156.164 2073.41 171.46ZM2023.48 218.021C2034.89 230.257 2054.13 230.929 2066.37 219.519C2078.6 208.109 2079.28 188.869 2067.87 176.633C2056.46 164.398 2037.22 163.726 2024.98 175.136C2012.74 186.546 2012.07 205.785 2023.48 218.021Z" fill="#04B3E3"/>
<path d="M2056.95 181.62L2062.12 187.168L2047.11 201.173L2029.45 200.556L2029.72 192.976L2044.23 193.483L2056.95 181.62Z" fill="#04B3E3"/>
<path d="M1862.41 170.46C1876.68 185.755 1875.84 209.803 1860.54 224.067C1845.25 238.33 1821.2 237.49 1806.94 222.195C1792.67 206.899 1793.51 182.851 1808.81 168.588C1824.1 154.325 1848.15 155.164 1862.41 170.46ZM1812.48 217.021C1823.89 229.257 1843.13 229.929 1855.37 218.519C1867.6 207.109 1868.28 187.869 1856.87 175.633C1845.46 163.398 1826.22 162.726 1813.98 174.136C1801.74 185.546 1801.07 204.785 1812.48 217.021Z" fill="#04B3E3"/>
<path d="M1845.95 180.62L1851.12 186.168L1836.11 200.173L1818.45 199.556L1818.72 191.976L1833.23 192.483L1845.95 180.62Z" fill="#04B3E3"/>
<path d="M1651.41 173.46C1665.68 188.755 1664.84 212.803 1649.54 227.067C1634.25 241.33 1610.2 240.49 1595.94 225.195C1581.67 209.899 1582.51 185.851 1597.81 171.588C1613.1 157.325 1637.15 158.164 1651.41 173.46ZM1601.48 220.021C1612.89 232.257 1632.13 232.929 1644.37 221.519C1656.6 210.109 1657.28 190.869 1645.87 178.633C1634.46 166.398 1615.22 165.726 1602.98 177.136C1590.74 188.546 1590.07 207.785 1601.48 220.021Z" fill="#04B3E3"/>
<path d="M1634.95 183.62L1640.12 189.168L1625.11 203.173L1607.45 202.556L1607.72 194.976L1622.23 195.483L1634.95 183.62Z" fill="#04B3E3"/>
<path d="M1440.41 172.46C1454.68 187.755 1453.84 211.803 1438.54 226.067C1423.25 240.33 1399.2 239.49 1384.94 224.195C1370.67 208.899 1371.51 184.851 1386.81 170.588C1402.1 156.325 1426.15 157.164 1440.41 172.46ZM1390.48 219.021C1401.89 231.257 1421.13 231.929 1433.37 220.519C1445.6 209.109 1446.28 189.869 1434.87 177.633C1423.46 165.398 1404.22 164.726 1391.98 176.136C1379.74 187.546 1379.07 206.785 1390.48 219.021Z" fill="#04B3E3"/>
<path d="M1423.95 182.62L1429.12 188.168L1414.11 202.173L1396.45 201.556L1396.72 193.976L1411.23 194.483L1423.95 182.62Z" fill="#04B3E3"/>
<path d="M2569.13 206.583C2574.32 206.583 2579.19 205.594 2583.73 203.616C2588.27 201.638 2592.23 198.966 2595.6 195.599C2598.97 192.231 2601.64 188.276 2603.62 183.732C2605.6 179.188 2606.59 174.32 2606.59 169.129C2606.59 160.105 2603.71 152.148 2597.96 145.258C2592.22 138.368 2584.89 134.087 2575.99 132.416C2577.1 138.535 2576.76 144.515 2574.97 150.357C2573.18 156.199 2570.09 161.313 2565.7 165.698C2561.31 170.084 2556.2 173.174 2550.36 174.969C2544.51 176.764 2538.54 177.104 2532.42 175.989C2534.03 184.889 2538.29 192.213 2545.21 197.961C2552.14 203.709 2560.11 206.583 2569.13 206.583ZM2569.13 199.166C2563.69 199.166 2558.66 197.806 2554.02 195.087C2549.38 192.367 2545.74 188.628 2543.08 183.869C2548.4 183.375 2553.43 182.03 2558.19 179.834C2562.95 177.639 2567.22 174.658 2570.99 170.89C2574.76 167.122 2577.75 162.858 2579.98 158.096C2582.2 153.335 2583.53 148.298 2583.97 142.985C2588.72 145.642 2592.45 149.305 2595.13 153.973C2597.82 158.64 2599.17 163.692 2599.17 169.129C2599.17 177.472 2596.25 184.565 2590.41 190.407C2584.56 196.249 2577.47 199.168 2569.13 199.166Z" fill="#04B3E3"/>
<path d="M2358.13 202.583C2363.32 202.583 2368.19 201.594 2372.73 199.616C2377.27 197.638 2381.23 194.966 2384.6 191.599C2387.97 188.231 2390.64 184.276 2392.62 179.732C2394.6 175.188 2395.59 170.32 2395.59 165.129C2395.59 156.105 2392.71 148.148 2386.96 141.258C2381.22 134.368 2373.89 130.087 2364.99 128.416C2366.1 134.535 2365.76 140.515 2363.97 146.357C2362.18 152.199 2359.09 157.313 2354.7 161.698C2350.31 166.084 2345.2 169.174 2339.36 170.969C2333.51 172.764 2327.54 173.104 2321.42 171.989C2323.03 180.889 2327.29 188.213 2334.21 193.961C2341.14 199.709 2349.11 202.583 2358.13 202.583ZM2358.13 195.166C2352.69 195.166 2347.66 193.806 2343.02 191.087C2338.38 188.367 2334.74 184.628 2332.08 179.869C2337.4 179.375 2342.43 178.03 2347.19 175.834C2351.95 173.639 2356.22 170.658 2359.99 166.89C2363.76 163.122 2366.75 158.858 2368.98 154.096C2371.2 149.335 2372.53 144.298 2372.97 138.985C2377.72 141.642 2381.45 145.305 2384.13 149.973C2386.82 154.64 2388.17 159.692 2388.17 165.129C2388.17 173.472 2385.25 180.565 2379.41 186.407C2373.56 192.249 2366.47 195.168 2358.13 195.166Z" fill="#04B3E3"/>
<path d="M2147.13 203.583C2152.32 203.583 2157.19 202.594 2161.73 200.616C2166.27 198.638 2170.23 195.966 2173.6 192.599C2176.97 189.231 2179.64 185.276 2181.62 180.732C2183.6 176.188 2184.59 171.32 2184.59 166.129C2184.59 157.105 2181.71 149.148 2175.96 142.258C2170.22 135.368 2162.89 131.087 2153.99 129.416C2155.1 135.535 2154.76 141.515 2152.97 147.357C2151.18 153.199 2148.09 158.313 2143.7 162.698C2139.31 167.084 2134.2 170.174 2128.36 171.969C2122.51 173.764 2116.54 174.104 2110.42 172.989C2112.03 181.889 2116.29 189.213 2123.21 194.961C2130.14 200.709 2138.11 203.583 2147.13 203.583ZM2147.13 196.166C2141.69 196.166 2136.66 194.806 2132.02 192.087C2127.38 189.367 2123.74 185.628 2121.08 180.869C2126.4 180.375 2131.43 179.03 2136.19 176.834C2140.95 174.639 2145.22 171.658 2148.99 167.89C2152.76 164.122 2155.75 159.858 2157.98 155.096C2160.2 150.335 2161.53 145.298 2161.97 139.985C2166.72 142.642 2170.45 146.305 2173.13 150.973C2175.82 155.64 2177.17 160.692 2177.17 166.129C2177.17 174.472 2174.25 181.565 2168.41 187.407C2162.56 193.249 2155.47 196.168 2147.13 196.166Z" fill="#04B3E3"/>
<path d="M1936.13 202.583C1941.32 202.583 1946.19 201.594 1950.73 199.616C1955.27 197.638 1959.23 194.966 1962.6 191.599C1965.97 188.231 1968.64 184.276 1970.62 179.732C1972.6 175.188 1973.59 170.32 1973.59 165.129C1973.59 156.105 1970.71 148.148 1964.96 141.258C1959.22 134.368 1951.89 130.087 1942.99 128.416C1944.1 134.535 1943.76 140.515 1941.97 146.357C1940.18 152.199 1937.09 157.313 1932.7 161.698C1928.31 166.084 1923.2 169.174 1917.36 170.969C1911.51 172.764 1905.54 173.104 1899.42 171.989C1901.03 180.889 1905.29 188.213 1912.21 193.961C1919.14 199.709 1927.11 202.583 1936.13 202.583ZM1936.13 195.166C1930.69 195.166 1925.66 193.806 1921.02 191.087C1916.38 188.367 1912.74 184.628 1910.08 179.869C1915.4 179.375 1920.43 178.03 1925.19 175.834C1929.95 173.639 1934.22 170.658 1937.99 166.89C1941.76 163.122 1944.75 158.858 1946.98 154.096C1949.2 149.335 1950.53 144.298 1950.97 138.985C1955.72 141.642 1959.45 145.305 1962.13 149.973C1964.82 154.64 1966.17 159.692 1966.17 165.129C1966.17 173.472 1963.25 180.565 1957.41 186.407C1951.56 192.249 1944.47 195.168 1936.13 195.166Z" fill="#04B3E3"/>
<path d="M1725.13 211.583C1730.32 211.583 1735.19 210.594 1739.73 208.616C1744.27 206.638 1748.23 203.966 1751.6 200.599C1754.97 197.231 1757.64 193.276 1759.62 188.732C1761.6 184.188 1762.59 179.32 1762.59 174.129C1762.59 165.105 1759.71 157.148 1753.96 150.258C1748.22 143.368 1740.89 139.087 1731.99 137.416C1733.1 143.535 1732.76 149.515 1730.97 155.357C1729.18 161.199 1726.09 166.313 1721.7 170.698C1717.31 175.084 1712.2 178.174 1706.36 179.969C1700.51 181.764 1694.54 182.104 1688.42 180.989C1690.03 189.889 1694.29 197.213 1701.21 202.961C1708.14 208.709 1716.11 211.583 1725.13 211.583ZM1725.13 204.166C1719.69 204.166 1714.66 202.806 1710.02 200.087C1705.38 197.367 1701.74 193.628 1699.08 188.869C1704.4 188.375 1709.43 187.03 1714.19 184.834C1718.95 182.639 1723.22 179.658 1726.99 175.89C1730.76 172.122 1733.75 167.858 1735.98 163.096C1738.2 158.335 1739.53 153.298 1739.97 147.985C1744.72 150.642 1748.45 154.305 1751.13 158.973C1753.82 163.64 1755.17 168.692 1755.17 174.129C1755.17 182.472 1752.25 189.565 1746.41 195.407C1740.56 201.249 1733.47 204.168 1725.13 204.166Z" fill="#04B3E3"/>
<path d="M1514.13 211.583C1519.32 211.583 1524.19 210.594 1528.73 208.616C1533.27 206.638 1537.23 203.966 1540.6 200.599C1543.97 197.231 1546.64 193.276 1548.62 188.732C1550.6 184.188 1551.59 179.32 1551.59 174.129C1551.59 165.105 1548.71 157.148 1542.96 150.258C1537.22 143.368 1529.89 139.087 1520.99 137.416C1522.1 143.535 1521.76 149.515 1519.97 155.357C1518.18 161.199 1515.09 166.313 1510.7 170.698C1506.31 175.084 1501.2 178.174 1495.36 179.969C1489.51 181.764 1483.54 182.104 1477.42 180.989C1479.03 189.889 1483.29 197.213 1490.21 202.961C1497.14 208.709 1505.11 211.583 1514.13 211.583ZM1514.13 204.166C1508.69 204.166 1503.66 202.806 1499.02 200.087C1494.38 197.367 1490.74 193.628 1488.08 188.869C1493.4 188.375 1498.43 187.03 1503.19 184.834C1507.95 182.639 1512.22 179.658 1515.99 175.89C1519.76 172.122 1522.75 167.858 1524.98 163.096C1527.2 158.335 1528.53 153.298 1528.97 147.985C1533.72 150.642 1537.45 154.305 1540.13 158.973C1542.82 163.64 1544.17 168.692 1544.17 174.129C1544.17 182.472 1541.25 189.565 1535.41 195.407C1529.56 201.249 1522.47 204.168 1514.13 204.166Z" fill="#04B3E3"/>
</g>
<g opacity="0.15" clip-path="url(#clip3_3030_84488)">
<path d="M18.5861 267.46C4.32284 282.755 5.16262 306.803 20.4581 321.067C35.7536 335.33 59.8015 334.49 74.0648 319.195C88.328 303.899 87.4883 279.851 72.1928 265.588C56.8973 251.325 32.8494 252.164 18.5861 267.46ZM68.5169 314.021C57.1068 326.257 37.8674 326.929 25.6316 315.519C13.3957 304.109 12.7239 284.869 24.134 272.633C35.5441 260.398 54.7835 259.726 67.0193 271.136C79.2551 282.546 79.927 301.785 68.5169 314.021Z" fill="#04B3E3"/>
<path d="M35.0485 277.62L29.875 283.168L44.8931 297.173L62.5458 296.556L62.2811 288.976L47.7697 289.483L35.0485 277.62Z" fill="#04B3E3"/>
<path d="M229.586 269.46C215.323 284.755 216.163 308.803 231.458 323.067C246.754 337.33 270.802 336.49 285.065 321.195C299.328 305.899 298.488 281.851 283.193 267.588C267.897 253.325 243.849 254.164 229.586 269.46ZM279.517 316.021C268.107 328.257 248.867 328.929 236.632 317.519C224.396 306.109 223.724 286.869 235.134 274.633C246.544 262.398 265.783 261.726 278.019 273.136C290.255 284.546 290.927 303.785 279.517 316.021Z" fill="#04B3E3"/>
<path d="M246.048 279.62L240.875 285.168L255.893 299.173L273.546 298.556L273.281 290.976L258.77 291.483L246.048 279.62Z" fill="#04B3E3"/>
<path d="M440.586 270.46C426.323 285.755 427.163 309.803 442.458 324.067C457.754 338.33 481.802 337.49 496.065 322.195C510.328 306.899 509.488 282.851 494.193 268.588C478.897 254.325 454.849 255.164 440.586 270.46ZM490.517 317.021C479.107 329.257 459.867 329.929 447.632 318.519C435.396 307.109 434.724 287.869 446.134 275.633C457.544 263.398 476.783 262.726 489.019 274.136C501.255 285.546 501.927 304.785 490.517 317.021Z" fill="#04B3E3"/>
<path d="M457.048 280.62L451.875 286.168L466.893 300.173L484.546 299.556L484.281 291.976L469.77 292.483L457.048 280.62Z" fill="#04B3E3"/>
<path d="M651.586 266.46C637.323 281.755 638.163 305.803 653.458 320.067C668.754 334.33 692.802 333.49 707.065 318.195C721.328 302.899 720.488 278.851 705.193 264.588C689.897 250.325 665.849 251.164 651.586 266.46ZM701.517 313.021C690.107 325.257 670.867 325.929 658.632 314.519C646.396 303.109 645.724 283.869 657.134 271.633C668.544 259.398 687.783 258.726 700.019 270.136C712.255 281.546 712.927 300.785 701.517 313.021Z" fill="#04B3E3"/>
<path d="M668.048 276.62L662.875 282.168L677.893 296.173L695.546 295.556L695.281 287.976L680.77 288.483L668.048 276.62Z" fill="#04B3E3"/>
<path d="M862.586 265.46C848.323 280.755 849.163 304.803 864.458 319.067C879.754 333.33 903.802 332.49 918.065 317.195C932.328 301.899 931.488 277.851 916.193 263.588C900.897 249.325 876.849 250.164 862.586 265.46ZM912.517 312.021C901.107 324.257 881.867 324.929 869.632 313.519C857.396 302.109 856.724 282.869 868.134 270.633C879.544 258.398 898.783 257.726 911.019 269.136C923.255 280.546 923.927 299.785 912.517 312.021Z" fill="#04B3E3"/>
<path d="M879.048 275.62L873.875 281.168L888.893 295.173L906.546 294.556L906.281 286.976L891.77 287.483L879.048 275.62Z" fill="#04B3E3"/>
<path d="M1073.59 268.46C1059.32 283.755 1060.16 307.803 1075.46 322.067C1090.75 336.33 1114.8 335.49 1129.06 320.195C1143.33 304.899 1142.49 280.851 1127.19 266.588C1111.9 252.325 1087.85 253.164 1073.59 268.46ZM1123.52 315.021C1112.11 327.257 1092.87 327.929 1080.63 316.519C1068.4 305.109 1067.72 285.869 1079.13 273.633C1090.54 261.398 1109.78 260.726 1122.02 272.136C1134.26 283.546 1134.93 302.785 1123.52 315.021Z" fill="#04B3E3"/>
<path d="M1090.05 278.62L1084.88 284.168L1099.89 298.173L1117.55 297.556L1117.28 289.976L1102.77 290.483L1090.05 278.62Z" fill="#04B3E3"/>
<path d="M1284.59 267.46C1270.32 282.755 1271.16 306.803 1286.46 321.067C1301.75 335.33 1325.8 334.49 1340.06 319.195C1354.33 303.899 1353.49 279.851 1338.19 265.588C1322.9 251.325 1298.85 252.164 1284.59 267.46ZM1334.52 314.021C1323.11 326.257 1303.87 326.929 1291.63 315.519C1279.4 304.109 1278.72 284.869 1290.13 272.633C1301.54 260.398 1320.78 259.726 1333.02 271.136C1345.26 282.546 1345.93 301.785 1334.52 314.021Z" fill="#04B3E3"/>
<path d="M1301.05 277.62L1295.88 283.168L1310.89 297.173L1328.55 296.556L1328.28 288.976L1313.77 289.483L1301.05 277.62Z" fill="#04B3E3"/>
<path d="M155.868 301.583C150.677 301.583 145.81 300.594 141.269 298.616C136.727 296.638 132.771 293.966 129.402 290.599C126.032 287.231 123.359 283.276 121.381 278.732C119.403 274.188 118.414 269.32 118.414 264.129C118.414 255.105 121.288 247.148 127.036 240.258C132.784 233.368 140.108 229.087 149.008 227.416C147.895 233.535 148.235 239.515 150.028 245.357C151.82 251.199 154.91 256.313 159.298 260.698C163.687 265.084 168.802 268.174 174.644 269.969C180.485 271.764 186.464 272.104 192.581 270.989C190.974 279.889 186.709 287.213 179.787 292.961C172.865 298.709 164.892 301.583 155.868 301.583ZM155.868 294.166C161.307 294.166 166.344 292.806 170.98 290.087C175.615 287.367 179.262 283.628 181.919 278.869C176.604 278.375 171.567 277.03 166.808 274.834C162.049 272.639 157.784 269.658 154.014 265.89C150.244 262.122 147.246 257.858 145.021 253.096C142.796 248.335 141.468 243.298 141.035 237.985C136.276 240.642 132.553 244.305 129.865 248.973C127.178 253.64 125.833 258.692 125.831 264.129C125.831 272.472 128.752 279.565 134.594 285.407C140.435 291.249 147.527 294.168 155.868 294.166Z" fill="#04B3E3"/>
<path d="M366.868 297.583C361.677 297.583 356.81 296.594 352.269 294.616C347.727 292.638 343.771 289.966 340.402 286.599C337.032 283.231 334.359 279.276 332.381 274.732C330.403 270.188 329.414 265.32 329.414 260.129C329.414 251.105 332.288 243.148 338.036 236.258C343.784 229.368 351.108 225.087 360.008 223.416C358.895 229.535 359.235 235.515 361.028 241.357C362.82 247.199 365.91 252.313 370.298 256.698C374.687 261.084 379.802 264.174 385.644 265.969C391.485 267.764 397.464 268.104 403.581 266.989C401.974 275.889 397.709 283.213 390.787 288.961C383.865 294.709 375.892 297.583 366.868 297.583ZM366.868 290.166C372.307 290.166 377.344 288.806 381.98 286.087C386.615 283.367 390.262 279.628 392.919 274.869C387.604 274.375 382.567 273.03 377.808 270.834C373.049 268.639 368.784 265.658 365.014 261.89C361.244 258.122 358.246 253.858 356.021 249.096C353.796 244.335 352.468 239.298 352.035 233.985C347.276 236.642 343.553 240.305 340.865 244.973C338.178 249.64 336.833 254.692 336.831 260.129C336.831 268.472 339.752 275.565 345.594 281.407C351.435 287.249 358.527 290.168 366.868 290.166Z" fill="#04B3E3"/>
<path d="M577.868 298.583C572.677 298.583 567.81 297.594 563.269 295.616C558.727 293.638 554.771 290.966 551.402 287.599C548.032 284.231 545.359 280.276 543.381 275.732C541.403 271.188 540.414 266.32 540.414 261.129C540.414 252.105 543.288 244.148 549.036 237.258C554.784 230.368 562.108 226.087 571.008 224.416C569.895 230.535 570.235 236.515 572.028 242.357C573.82 248.199 576.91 253.313 581.298 257.698C585.687 262.084 590.802 265.174 596.644 266.969C602.485 268.764 608.464 269.104 614.581 267.989C612.974 276.889 608.709 284.213 601.787 289.961C594.865 295.709 586.892 298.583 577.868 298.583ZM577.868 291.166C583.307 291.166 588.344 289.806 592.98 287.087C597.615 284.367 601.262 280.628 603.919 275.869C598.604 275.375 593.567 274.03 588.808 271.834C584.049 269.639 579.784 266.658 576.014 262.89C572.244 259.122 569.246 254.858 567.021 250.096C564.796 245.335 563.468 240.298 563.035 234.985C558.276 237.642 554.553 241.305 551.865 245.973C549.178 250.64 547.833 255.692 547.831 261.129C547.831 269.472 550.752 276.565 556.594 282.407C562.435 288.249 569.527 291.168 577.868 291.166Z" fill="#04B3E3"/>
<path d="M788.868 297.583C783.677 297.583 778.81 296.594 774.269 294.616C769.727 292.638 765.771 289.966 762.402 286.599C759.032 283.231 756.359 279.276 754.381 274.732C752.403 270.188 751.414 265.32 751.414 260.129C751.414 251.105 754.288 243.148 760.036 236.258C765.784 229.368 773.108 225.087 782.008 223.416C780.895 229.535 781.235 235.515 783.028 241.357C784.82 247.199 787.91 252.313 792.298 256.698C796.687 261.084 801.802 264.174 807.644 265.969C813.485 267.764 819.464 268.104 825.581 266.989C823.974 275.889 819.709 283.213 812.787 288.961C805.865 294.709 797.892 297.583 788.868 297.583ZM788.868 290.166C794.307 290.166 799.344 288.806 803.98 286.087C808.615 283.367 812.262 279.628 814.919 274.869C809.604 274.375 804.567 273.03 799.808 270.834C795.049 268.639 790.784 265.658 787.014 261.89C783.244 258.122 780.246 253.858 778.021 249.096C775.796 244.335 774.468 239.298 774.035 233.985C769.276 236.642 765.553 240.305 762.865 244.973C760.178 249.64 758.833 254.692 758.831 260.129C758.831 268.472 761.752 275.565 767.594 281.407C773.435 287.249 780.527 290.168 788.868 290.166Z" fill="#04B3E3"/>
<path d="M999.868 306.583C994.677 306.583 989.81 305.594 985.269 303.616C980.727 301.638 976.771 298.966 973.402 295.599C970.032 292.231 967.359 288.276 965.381 283.732C963.403 279.188 962.414 274.32 962.414 269.129C962.414 260.105 965.288 252.148 971.036 245.258C976.784 238.368 984.108 234.087 993.008 232.416C991.895 238.535 992.235 244.515 994.028 250.357C995.82 256.199 998.91 261.313 1003.3 265.698C1007.69 270.084 1012.8 273.174 1018.64 274.969C1024.49 276.764 1030.46 277.104 1036.58 275.989C1034.97 284.889 1030.71 292.213 1023.79 297.961C1016.86 303.709 1008.89 306.583 999.868 306.583ZM999.868 299.166C1005.31 299.166 1010.34 297.806 1014.98 295.087C1019.62 292.367 1023.26 288.628 1025.92 283.869C1020.6 283.375 1015.57 282.03 1010.81 279.834C1006.05 277.639 1001.78 274.658 998.014 270.89C994.244 267.122 991.246 262.858 989.021 258.096C986.796 253.335 985.468 248.298 985.035 242.985C980.276 245.642 976.553 249.305 973.865 253.973C971.178 258.64 969.833 263.692 969.831 269.129C969.831 277.472 972.752 284.565 978.594 290.407C984.435 296.249 991.527 299.168 999.868 299.166Z" fill="#04B3E3"/>
<path d="M1210.87 306.583C1205.68 306.583 1200.81 305.594 1196.27 303.616C1191.73 301.638 1187.77 298.966 1184.4 295.599C1181.03 292.231 1178.36 288.276 1176.38 283.732C1174.4 279.188 1173.41 274.32 1173.41 269.129C1173.41 260.105 1176.29 252.148 1182.04 245.258C1187.78 238.368 1195.11 234.087 1204.01 232.416C1202.9 238.535 1203.24 244.515 1205.03 250.357C1206.82 256.199 1209.91 261.313 1214.3 265.698C1218.69 270.084 1223.8 273.174 1229.64 274.969C1235.49 276.764 1241.46 277.104 1247.58 275.989C1245.97 284.889 1241.71 292.213 1234.79 297.961C1227.86 303.709 1219.89 306.583 1210.87 306.583ZM1210.87 299.166C1216.31 299.166 1221.34 297.806 1225.98 295.087C1230.62 292.367 1234.26 288.628 1236.92 283.869C1231.6 283.375 1226.57 282.03 1221.81 279.834C1217.05 277.639 1212.78 274.658 1209.01 270.89C1205.24 267.122 1202.25 262.858 1200.02 258.096C1197.8 253.335 1196.47 248.298 1196.03 242.985C1191.28 245.642 1187.55 249.305 1184.87 253.973C1182.18 258.64 1180.83 263.692 1180.83 269.129C1180.83 277.472 1183.75 284.565 1189.59 290.407C1195.44 296.249 1202.53 299.168 1210.87 299.166Z" fill="#04B3E3"/>
</g>
<g opacity="0.15" clip-path="url(#clip4_3030_84488)">
<path d="M2706.41 268.46C2720.68 283.755 2719.84 307.803 2704.54 322.067C2689.25 336.33 2665.2 335.49 2650.94 320.195C2636.67 304.899 2637.51 280.851 2652.81 266.588C2668.1 252.325 2692.15 253.164 2706.41 268.46ZM2656.48 315.021C2667.89 327.257 2687.13 327.929 2699.37 316.519C2711.6 305.109 2712.28 285.869 2700.87 273.633C2689.46 261.398 2670.22 260.726 2657.98 272.136C2645.74 283.546 2645.07 302.785 2656.48 315.021Z" fill="#04B3E3"/>
<path d="M2689.95 278.62L2695.12 284.168L2680.11 298.173L2662.45 297.556L2662.72 289.976L2677.23 290.483L2689.95 278.62Z" fill="#04B3E3"/>
<path d="M2495.41 270.46C2509.68 285.755 2508.84 309.803 2493.54 324.067C2478.25 338.33 2454.2 337.49 2439.94 322.195C2425.67 306.899 2426.51 282.851 2441.81 268.588C2457.1 254.325 2481.15 255.164 2495.41 270.46ZM2445.48 317.021C2456.89 329.257 2476.13 329.929 2488.37 318.519C2500.6 307.109 2501.28 287.869 2489.87 275.633C2478.46 263.398 2459.22 262.726 2446.98 274.136C2434.74 285.546 2434.07 304.785 2445.48 317.021Z" fill="#04B3E3"/>
<path d="M2478.95 280.62L2484.12 286.168L2469.11 300.173L2451.45 299.556L2451.72 291.976L2466.23 292.483L2478.95 280.62Z" fill="#04B3E3"/>
<path d="M2284.41 271.46C2298.68 286.755 2297.84 310.803 2282.54 325.067C2267.25 339.33 2243.2 338.49 2228.94 323.195C2214.67 307.899 2215.51 283.851 2230.81 269.588C2246.1 255.325 2270.15 256.164 2284.41 271.46ZM2234.48 318.021C2245.89 330.257 2265.13 330.929 2277.37 319.519C2289.6 308.109 2290.28 288.869 2278.87 276.633C2267.46 264.398 2248.22 263.726 2235.98 275.136C2223.74 286.546 2223.07 305.785 2234.48 318.021Z" fill="#04B3E3"/>
<path d="M2267.95 281.62L2273.12 287.168L2258.11 301.173L2240.45 300.556L2240.72 292.976L2255.23 293.483L2267.95 281.62Z" fill="#04B3E3"/>
<path d="M2073.41 267.46C2087.68 282.755 2086.84 306.803 2071.54 321.067C2056.25 335.33 2032.2 334.49 2017.94 319.195C2003.67 303.899 2004.51 279.851 2019.81 265.588C2035.1 251.325 2059.15 252.164 2073.41 267.46ZM2023.48 314.021C2034.89 326.257 2054.13 326.929 2066.37 315.519C2078.6 304.109 2079.28 284.869 2067.87 272.633C2056.46 260.398 2037.22 259.726 2024.98 271.136C2012.74 282.546 2012.07 301.785 2023.48 314.021Z" fill="#04B3E3"/>
<path d="M2056.95 277.62L2062.12 283.168L2047.11 297.173L2029.45 296.556L2029.72 288.976L2044.23 289.483L2056.95 277.62Z" fill="#04B3E3"/>
<path d="M1862.41 266.46C1876.68 281.755 1875.84 305.803 1860.54 320.067C1845.25 334.33 1821.2 333.49 1806.94 318.195C1792.67 302.899 1793.51 278.851 1808.81 264.588C1824.1 250.325 1848.15 251.164 1862.41 266.46ZM1812.48 313.021C1823.89 325.257 1843.13 325.929 1855.37 314.519C1867.6 303.109 1868.28 283.869 1856.87 271.633C1845.46 259.398 1826.22 258.726 1813.98 270.136C1801.74 281.546 1801.07 300.785 1812.48 313.021Z" fill="#04B3E3"/>
<path d="M1845.95 276.62L1851.12 282.168L1836.11 296.173L1818.45 295.556L1818.72 287.976L1833.23 288.483L1845.95 276.62Z" fill="#04B3E3"/>
<path d="M1651.41 269.46C1665.68 284.755 1664.84 308.803 1649.54 323.067C1634.25 337.33 1610.2 336.49 1595.94 321.195C1581.67 305.899 1582.51 281.851 1597.81 267.588C1613.1 253.325 1637.15 254.164 1651.41 269.46ZM1601.48 316.021C1612.89 328.257 1632.13 328.929 1644.37 317.519C1656.6 306.109 1657.28 286.869 1645.87 274.633C1634.46 262.398 1615.22 261.726 1602.98 273.136C1590.74 284.546 1590.07 303.785 1601.48 316.021Z" fill="#04B3E3"/>
<path d="M1634.95 279.62L1640.12 285.168L1625.11 299.173L1607.45 298.556L1607.72 290.976L1622.23 291.483L1634.95 279.62Z" fill="#04B3E3"/>
<path d="M1440.41 268.46C1454.68 283.755 1453.84 307.803 1438.54 322.067C1423.25 336.33 1399.2 335.49 1384.94 320.195C1370.67 304.899 1371.51 280.851 1386.81 266.588C1402.1 252.325 1426.15 253.164 1440.41 268.46ZM1390.48 315.021C1401.89 327.257 1421.13 327.929 1433.37 316.519C1445.6 305.109 1446.28 285.869 1434.87 273.633C1423.46 261.398 1404.22 260.726 1391.98 272.136C1379.74 283.546 1379.07 302.785 1390.48 315.021Z" fill="#04B3E3"/>
<path d="M1423.95 278.62L1429.12 284.168L1414.11 298.173L1396.45 297.556L1396.72 289.976L1411.23 290.483L1423.95 278.62Z" fill="#04B3E3"/>
<path d="M2569.13 302.583C2574.32 302.583 2579.19 301.594 2583.73 299.616C2588.27 297.638 2592.23 294.966 2595.6 291.599C2598.97 288.231 2601.64 284.276 2603.62 279.732C2605.6 275.188 2606.59 270.32 2606.59 265.129C2606.59 256.105 2603.71 248.148 2597.96 241.258C2592.22 234.368 2584.89 230.087 2575.99 228.416C2577.1 234.535 2576.76 240.515 2574.97 246.357C2573.18 252.199 2570.09 257.313 2565.7 261.698C2561.31 266.084 2556.2 269.174 2550.36 270.969C2544.51 272.764 2538.54 273.104 2532.42 271.989C2534.03 280.889 2538.29 288.213 2545.21 293.961C2552.14 299.709 2560.11 302.583 2569.13 302.583ZM2569.13 295.166C2563.69 295.166 2558.66 293.806 2554.02 291.087C2549.38 288.367 2545.74 284.628 2543.08 279.869C2548.4 279.375 2553.43 278.03 2558.19 275.834C2562.95 273.639 2567.22 270.658 2570.99 266.89C2574.76 263.122 2577.75 258.858 2579.98 254.096C2582.2 249.335 2583.53 244.298 2583.97 238.985C2588.72 241.642 2592.45 245.305 2595.13 249.973C2597.82 254.64 2599.17 259.692 2599.17 265.129C2599.17 273.472 2596.25 280.565 2590.41 286.407C2584.56 292.249 2577.47 295.168 2569.13 295.166Z" fill="#04B3E3"/>
<path d="M2358.13 298.583C2363.32 298.583 2368.19 297.594 2372.73 295.616C2377.27 293.638 2381.23 290.966 2384.6 287.599C2387.97 284.231 2390.64 280.276 2392.62 275.732C2394.6 271.188 2395.59 266.32 2395.59 261.129C2395.59 252.105 2392.71 244.148 2386.96 237.258C2381.22 230.368 2373.89 226.087 2364.99 224.416C2366.1 230.535 2365.76 236.515 2363.97 242.357C2362.18 248.199 2359.09 253.313 2354.7 257.698C2350.31 262.084 2345.2 265.174 2339.36 266.969C2333.51 268.764 2327.54 269.104 2321.42 267.989C2323.03 276.889 2327.29 284.213 2334.21 289.961C2341.14 295.709 2349.11 298.583 2358.13 298.583ZM2358.13 291.166C2352.69 291.166 2347.66 289.806 2343.02 287.087C2338.38 284.367 2334.74 280.628 2332.08 275.869C2337.4 275.375 2342.43 274.03 2347.19 271.834C2351.95 269.639 2356.22 266.658 2359.99 262.89C2363.76 259.122 2366.75 254.858 2368.98 250.096C2371.2 245.335 2372.53 240.298 2372.97 234.985C2377.72 237.642 2381.45 241.305 2384.13 245.973C2386.82 250.64 2388.17 255.692 2388.17 261.129C2388.17 269.472 2385.25 276.565 2379.41 282.407C2373.56 288.249 2366.47 291.168 2358.13 291.166Z" fill="#04B3E3"/>
<path d="M2147.13 299.583C2152.32 299.583 2157.19 298.594 2161.73 296.616C2166.27 294.638 2170.23 291.966 2173.6 288.599C2176.97 285.231 2179.64 281.276 2181.62 276.732C2183.6 272.188 2184.59 267.32 2184.59 262.129C2184.59 253.105 2181.71 245.148 2175.96 238.258C2170.22 231.368 2162.89 227.087 2153.99 225.416C2155.1 231.535 2154.76 237.515 2152.97 243.357C2151.18 249.199 2148.09 254.313 2143.7 258.698C2139.31 263.084 2134.2 266.174 2128.36 267.969C2122.51 269.764 2116.54 270.104 2110.42 268.989C2112.03 277.889 2116.29 285.213 2123.21 290.961C2130.14 296.709 2138.11 299.583 2147.13 299.583ZM2147.13 292.166C2141.69 292.166 2136.66 290.806 2132.02 288.087C2127.38 285.367 2123.74 281.628 2121.08 276.869C2126.4 276.375 2131.43 275.03 2136.19 272.834C2140.95 270.639 2145.22 267.658 2148.99 263.89C2152.76 260.122 2155.75 255.858 2157.98 251.096C2160.2 246.335 2161.53 241.298 2161.97 235.985C2166.72 238.642 2170.45 242.305 2173.13 246.973C2175.82 251.64 2177.17 256.692 2177.17 262.129C2177.17 270.472 2174.25 277.565 2168.41 283.407C2162.56 289.249 2155.47 292.168 2147.13 292.166Z" fill="#04B3E3"/>
<path d="M1936.13 298.583C1941.32 298.583 1946.19 297.594 1950.73 295.616C1955.27 293.638 1959.23 290.966 1962.6 287.599C1965.97 284.231 1968.64 280.276 1970.62 275.732C1972.6 271.188 1973.59 266.32 1973.59 261.129C1973.59 252.105 1970.71 244.148 1964.96 237.258C1959.22 230.368 1951.89 226.087 1942.99 224.416C1944.1 230.535 1943.76 236.515 1941.97 242.357C1940.18 248.199 1937.09 253.313 1932.7 257.698C1928.31 262.084 1923.2 265.174 1917.36 266.969C1911.51 268.764 1905.54 269.104 1899.42 267.989C1901.03 276.889 1905.29 284.213 1912.21 289.961C1919.14 295.709 1927.11 298.583 1936.13 298.583ZM1936.13 291.166C1930.69 291.166 1925.66 289.806 1921.02 287.087C1916.38 284.367 1912.74 280.628 1910.08 275.869C1915.4 275.375 1920.43 274.03 1925.19 271.834C1929.95 269.639 1934.22 266.658 1937.99 262.89C1941.76 259.122 1944.75 254.858 1946.98 250.096C1949.2 245.335 1950.53 240.298 1950.97 234.985C1955.72 237.642 1959.45 241.305 1962.13 245.973C1964.82 250.64 1966.17 255.692 1966.17 261.129C1966.17 269.472 1963.25 276.565 1957.41 282.407C1951.56 288.249 1944.47 291.168 1936.13 291.166Z" fill="#04B3E3"/>
<path d="M1725.13 307.583C1730.32 307.583 1735.19 306.594 1739.73 304.616C1744.27 302.638 1748.23 299.966 1751.6 296.599C1754.97 293.231 1757.64 289.276 1759.62 284.732C1761.6 280.188 1762.59 275.32 1762.59 270.129C1762.59 261.105 1759.71 253.148 1753.96 246.258C1748.22 239.368 1740.89 235.087 1731.99 233.416C1733.1 239.535 1732.76 245.515 1730.97 251.357C1729.18 257.199 1726.09 262.313 1721.7 266.698C1717.31 271.084 1712.2 274.174 1706.36 275.969C1700.51 277.764 1694.54 278.104 1688.42 276.989C1690.03 285.889 1694.29 293.213 1701.21 298.961C1708.14 304.709 1716.11 307.583 1725.13 307.583ZM1725.13 300.166C1719.69 300.166 1714.66 298.806 1710.02 296.087C1705.38 293.367 1701.74 289.628 1699.08 284.869C1704.4 284.375 1709.43 283.03 1714.19 280.834C1718.95 278.639 1723.22 275.658 1726.99 271.89C1730.76 268.122 1733.75 263.858 1735.98 259.096C1738.2 254.335 1739.53 249.298 1739.97 243.985C1744.72 246.642 1748.45 250.305 1751.13 254.973C1753.82 259.64 1755.17 264.692 1755.17 270.129C1755.17 278.472 1752.25 285.565 1746.41 291.407C1740.56 297.249 1733.47 300.168 1725.13 300.166Z" fill="#04B3E3"/>
<path d="M1514.13 307.583C1519.32 307.583 1524.19 306.594 1528.73 304.616C1533.27 302.638 1537.23 299.966 1540.6 296.599C1543.97 293.231 1546.64 289.276 1548.62 284.732C1550.6 280.188 1551.59 275.32 1551.59 270.129C1551.59 261.105 1548.71 253.148 1542.96 246.258C1537.22 239.368 1529.89 235.087 1520.99 233.416C1522.1 239.535 1521.76 245.515 1519.97 251.357C1518.18 257.199 1515.09 262.313 1510.7 266.698C1506.31 271.084 1501.2 274.174 1495.36 275.969C1489.51 277.764 1483.54 278.104 1477.42 276.989C1479.03 285.889 1483.29 293.213 1490.21 298.961C1497.14 304.709 1505.11 307.583 1514.13 307.583ZM1514.13 300.166C1508.69 300.166 1503.66 298.806 1499.02 296.087C1494.38 293.367 1490.74 289.628 1488.08 284.869C1493.4 284.375 1498.43 283.03 1503.19 280.834C1507.95 278.639 1512.22 275.658 1515.99 271.89C1519.76 268.122 1522.75 263.858 1524.98 259.096C1527.2 254.335 1528.53 249.298 1528.97 243.985C1533.72 246.642 1537.45 250.305 1540.13 254.973C1542.82 259.64 1544.17 264.692 1544.17 270.129C1544.17 278.472 1541.25 285.565 1535.41 291.407C1529.56 297.249 1522.47 300.168 1514.13 300.166Z" fill="#04B3E3"/>
</g>
<g opacity="0.15" clip-path="url(#clip5_3030_84488)">
<path d="M1347.41 82.4599C1361.68 97.7554 1360.84 121.803 1345.54 136.067C1330.25 150.33 1306.2 149.49 1291.94 134.195C1277.67 118.899 1278.51 94.8511 1293.81 80.5879C1309.1 66.3246 1333.15 67.1644 1347.41 82.4599ZM1297.48 129.021C1308.89 141.257 1328.13 141.929 1340.37 130.519C1352.6 119.109 1353.28 99.8692 1341.87 87.6333C1330.46 75.3975 1311.22 74.7257 1298.98 86.1358C1286.74 97.5458 1286.07 116.785 1297.48 129.021Z" fill="#04B3E3"/>
<path d="M1330.95 92.6201L1336.12 98.168L1321.11 112.173L1303.45 111.556L1303.72 103.976L1318.23 104.483L1330.95 92.6201Z" fill="#04B3E3"/>
<path d="M1136.41 84.4599C1150.68 99.7554 1149.84 123.803 1134.54 138.067C1119.25 152.33 1095.2 151.49 1080.94 136.195C1066.67 120.899 1067.51 96.8511 1082.81 82.5879C1098.1 68.3246 1122.15 69.1644 1136.41 84.4599ZM1086.48 131.021C1097.89 143.257 1117.13 143.929 1129.37 132.519C1141.6 121.109 1142.28 101.869 1130.87 89.6333C1119.46 77.3975 1100.22 76.7257 1087.98 88.1358C1075.74 99.5458 1075.07 118.785 1086.48 131.021Z" fill="#04B3E3"/>
<path d="M1119.95 94.6201L1125.12 100.168L1110.11 114.173L1092.45 113.556L1092.72 105.976L1107.23 106.483L1119.95 94.6201Z" fill="#04B3E3"/>
<path d="M925.414 85.4599C939.677 100.755 938.837 124.803 923.542 139.067C908.246 153.33 884.198 152.49 869.935 137.195C855.672 121.899 856.512 97.8511 871.807 83.5879C887.103 69.3246 911.151 70.1644 925.414 85.4599ZM875.483 132.021C886.893 144.257 906.133 144.929 918.368 133.519C930.604 122.109 931.276 102.869 919.866 90.6333C908.456 78.3975 889.217 77.7257 876.981 89.1358C864.745 100.546 864.073 119.785 875.483 132.021Z" fill="#04B3E3"/>
<path d="M908.952 95.6201L914.125 101.168L899.107 115.173L881.454 114.556L881.719 106.976L896.23 107.483L908.952 95.6201Z" fill="#04B3E3"/>
<path d="M714.414 81.4599C728.677 96.7554 727.837 120.803 712.542 135.067C697.246 149.33 673.198 148.49 658.935 133.195C644.672 117.899 645.512 93.8511 660.807 79.5879C676.103 65.3246 700.151 66.1644 714.414 81.4599ZM664.483 128.021C675.893 140.257 695.133 140.929 707.368 129.519C719.604 118.109 720.276 98.8692 708.866 86.6333C697.456 74.3975 678.217 73.7257 665.981 85.1358C653.745 96.5458 653.073 115.785 664.483 128.021Z" fill="#04B3E3"/>
<path d="M697.952 91.6201L703.125 97.168L688.107 111.173L670.454 110.556L670.719 102.976L685.23 103.483L697.952 91.6201Z" fill="#04B3E3"/>
<path d="M503.414 80.4599C517.677 95.7554 516.837 119.803 501.542 134.067C486.246 148.33 462.198 147.49 447.935 132.195C433.672 116.899 434.512 92.8511 449.807 78.5879C465.103 64.3246 489.151 65.1644 503.414 80.4599ZM453.483 127.021C464.893 139.257 484.133 139.929 496.368 128.519C508.604 117.109 509.276 97.8692 497.866 85.6333C486.456 73.3975 467.217 72.7257 454.981 84.1358C442.745 95.5458 442.073 114.785 453.483 127.021Z" fill="#04B3E3"/>
<path d="M486.952 90.6201L492.125 96.168L477.107 110.173L459.454 109.556L459.719 101.976L474.23 102.483L486.952 90.6201Z" fill="#04B3E3"/>
<path d="M292.414 83.4599C306.677 98.7554 305.837 122.803 290.542 137.067C275.246 151.33 251.198 150.49 236.935 135.195C222.672 119.899 223.512 95.8511 238.807 81.5879C254.103 67.3246 278.151 68.1644 292.414 83.4599ZM242.483 130.021C253.893 142.257 273.133 142.929 285.368 131.519C297.604 120.109 298.276 100.869 286.866 88.6333C275.456 76.3975 256.217 75.7257 243.981 87.1358C231.745 98.5458 231.073 117.785 242.483 130.021Z" fill="#04B3E3"/>
<path d="M275.952 93.6201L281.125 99.168L266.107 113.173L248.454 112.556L248.719 104.976L263.23 105.483L275.952 93.6201Z" fill="#04B3E3"/>
<path d="M81.4139 82.4599C95.6772 97.7554 94.8374 121.803 79.5419 136.067C64.2464 150.33 40.1985 149.49 25.9352 134.195C11.672 118.899 12.5117 94.8511 27.8072 80.5879C43.1027 66.3246 67.1506 67.1644 81.4139 82.4599ZM31.4831 129.021C42.8932 141.257 62.1326 141.929 74.3684 130.519C86.6043 119.109 87.2761 99.8692 75.866 87.6333C64.4559 75.3975 45.2165 74.7257 32.9807 86.1358C20.7449 97.5458 20.073 116.785 31.4831 129.021Z" fill="#04B3E3"/>
<path d="M64.9515 92.6201L70.125 98.168L55.1069 112.173L37.4542 111.556L37.7189 103.976L52.2303 104.483L64.9515 92.6201Z" fill="#04B3E3"/>
<path d="M1210.13 116.583C1215.32 116.583 1220.19 115.594 1224.73 113.616C1229.27 111.638 1233.23 108.966 1236.6 105.599C1239.97 102.231 1242.64 98.2759 1244.62 93.7319C1246.6 89.188 1247.59 84.3202 1247.59 79.1285C1247.59 70.1049 1244.71 62.1481 1238.96 55.258C1233.22 48.3679 1225.89 44.0872 1216.99 42.416C1218.1 48.5348 1217.76 54.5151 1215.97 60.3569C1214.18 66.1988 1211.09 71.3126 1206.7 75.6983C1202.31 80.084 1197.2 83.1743 1191.36 84.9691C1185.51 86.764 1179.54 87.1039 1173.42 85.9889C1175.03 94.8889 1179.29 102.213 1186.21 107.961C1193.14 113.709 1201.11 116.583 1210.13 116.583ZM1210.13 109.166C1204.69 109.166 1199.66 107.806 1195.02 105.087C1190.38 102.367 1186.74 98.6282 1184.08 93.8691C1189.4 93.3747 1194.43 92.0298 1199.19 89.8345C1203.95 87.6391 1208.22 84.6576 1211.99 80.89C1215.76 77.1223 1218.75 72.8577 1220.98 68.0962C1223.2 63.3347 1224.53 58.2976 1224.97 52.9848C1229.72 55.6424 1233.45 59.305 1236.13 63.9726C1238.82 68.6401 1240.17 73.6921 1240.17 79.1285C1240.17 87.4723 1237.25 94.5651 1231.41 100.407C1225.56 106.249 1218.47 109.168 1210.13 109.166Z" fill="#04B3E3"/>
<path d="M999.132 112.583C1004.32 112.583 1009.19 111.594 1013.73 109.616C1018.27 107.638 1022.23 104.966 1025.6 101.599C1028.97 98.2314 1031.64 94.2759 1033.62 89.7319C1035.6 85.188 1036.59 80.3202 1036.59 75.1285C1036.59 66.1049 1033.71 58.1481 1027.96 51.258C1022.22 44.3679 1014.89 40.0872 1005.99 38.416C1007.1 44.5348 1006.76 50.5151 1004.97 56.3569C1003.18 62.1988 1000.09 67.3126 995.702 71.6983C991.313 76.084 986.198 79.1743 980.356 80.9691C974.515 82.764 968.536 83.1039 962.419 81.9889C964.026 90.8889 968.291 98.2129 975.213 103.961C982.135 109.709 990.108 112.583 999.132 112.583ZM999.132 105.166C993.693 105.166 988.656 103.806 984.02 101.087C979.385 98.3674 975.738 94.6282 973.081 89.8691C978.396 89.3747 983.433 88.0298 988.192 85.8345C992.951 83.6391 997.216 80.6576 1000.99 76.89C1004.76 73.1223 1007.75 68.8577 1009.98 64.0962C1012.2 59.3347 1013.53 54.2976 1013.97 48.9848C1018.72 51.6424 1022.45 55.305 1025.13 59.9726C1027.82 64.6401 1029.17 69.6921 1029.17 75.1285C1029.17 83.4723 1026.25 90.5651 1020.41 96.4069C1014.56 102.249 1007.47 105.168 999.132 105.166Z" fill="#04B3E3"/>
<path d="M788.132 113.583C793.323 113.583 798.19 112.594 802.731 110.616C807.273 108.638 811.229 105.966 814.598 102.599C817.968 99.2314 820.641 95.2759 822.619 90.7319C824.597 86.188 825.586 81.3202 825.586 76.1285C825.586 67.1049 822.712 59.1481 816.964 52.258C811.216 45.3679 803.892 41.0872 794.992 39.416C796.105 45.5348 795.765 51.5151 793.972 57.3569C792.18 63.1988 789.09 68.3126 784.702 72.6983C780.313 77.084 775.198 80.1743 769.356 81.9691C763.515 83.764 757.536 84.1039 751.419 82.9889C753.026 91.8889 757.291 99.2129 764.213 104.961C771.135 110.709 779.108 113.583 788.132 113.583ZM788.132 106.166C782.693 106.166 777.656 104.806 773.02 102.087C768.385 99.3674 764.738 95.6282 762.081 90.8691C767.396 90.3747 772.433 89.0298 777.192 86.8345C781.951 84.6391 786.216 81.6576 789.986 77.89C793.756 74.1223 796.754 69.8577 798.979 65.0962C801.204 60.3347 802.532 55.2976 802.965 49.9848C807.724 52.6424 811.447 56.305 814.135 60.9726C816.822 65.6401 818.167 70.6921 818.169 76.1285C818.169 84.4723 815.248 91.5651 809.406 97.4069C803.565 103.249 796.473 106.168 788.132 106.166Z" fill="#04B3E3"/>
<path d="M577.132 112.583C582.323 112.583 587.19 111.594 591.731 109.616C596.273 107.638 600.229 104.966 603.598 101.599C606.968 98.2314 609.641 94.2759 611.619 89.7319C613.597 85.188 614.586 80.3202 614.586 75.1285C614.586 66.1049 611.712 58.1481 605.964 51.258C600.216 44.3679 592.892 40.0872 583.992 38.416C585.105 44.5348 584.765 50.5151 582.972 56.3569C581.18 62.1988 578.09 67.3126 573.702 71.6983C569.313 76.084 564.198 79.1743 558.356 80.9691C552.515 82.764 546.536 83.1039 540.419 81.9889C542.026 90.8889 546.291 98.2129 553.213 103.961C560.135 109.709 568.108 112.583 577.132 112.583ZM577.132 105.166C571.693 105.166 566.656 103.806 562.02 101.087C557.385 98.3674 553.738 94.6282 551.081 89.8691C556.396 89.3747 561.433 88.0298 566.192 85.8345C570.951 83.6391 575.216 80.6576 578.986 76.89C582.756 73.1223 585.754 68.8577 587.979 64.0962C590.204 59.3347 591.532 54.2976 591.965 48.9848C596.724 51.6424 600.447 55.305 603.135 59.9726C605.822 64.6401 607.167 69.6921 607.169 75.1285C607.169 83.4723 604.248 90.5651 598.406 96.4069C592.565 102.249 585.473 105.168 577.132 105.166Z" fill="#04B3E3"/>
<path d="M366.132 121.583C371.323 121.583 376.19 120.594 380.731 118.616C385.273 116.638 389.229 113.966 392.598 110.599C395.968 107.231 398.641 103.276 400.619 98.7319C402.597 94.188 403.586 89.3202 403.586 84.1285C403.586 75.1049 400.712 67.1481 394.964 60.258C389.216 53.3679 381.892 49.0872 372.992 47.416C374.105 53.5348 373.765 59.5151 371.972 65.3569C370.18 71.1988 367.09 76.3126 362.702 80.6983C358.313 85.084 353.198 88.1743 347.356 89.9691C341.515 91.764 335.536 92.1039 329.419 90.9889C331.026 99.8889 335.291 107.213 342.213 112.961C349.135 118.709 357.108 121.583 366.132 121.583ZM366.132 114.166C360.693 114.166 355.656 112.806 351.02 110.087C346.385 107.367 342.738 103.628 340.081 98.8691C345.396 98.3747 350.433 97.0298 355.192 94.8345C359.951 92.6391 364.216 89.6576 367.986 85.89C371.756 82.1223 374.754 77.8577 376.979 73.0962C379.204 68.3347 380.532 63.2976 380.965 57.9848C385.724 60.6424 389.447 64.305 392.135 68.9726C394.822 73.6401 396.167 78.6921 396.169 84.1285C396.169 92.4723 393.248 99.5651 387.406 105.407C381.565 111.249 374.473 114.168 366.132 114.166Z" fill="#04B3E3"/>
<path d="M155.132 121.583C160.323 121.583 165.19 120.594 169.731 118.616C174.273 116.638 178.229 113.966 181.598 110.599C184.968 107.231 187.641 103.276 189.619 98.7319C191.597 94.188 192.586 89.3202 192.586 84.1285C192.586 75.1049 189.712 67.1481 183.964 60.258C178.216 53.3679 170.892 49.0872 161.992 47.416C163.105 53.5348 162.765 59.5151 160.972 65.3569C159.18 71.1988 156.09 76.3126 151.702 80.6983C147.313 85.084 142.198 88.1743 136.356 89.9691C130.515 91.764 124.536 92.1039 118.419 90.9889C120.026 99.8889 124.291 107.213 131.213 112.961C138.135 118.709 146.108 121.583 155.132 121.583ZM155.132 114.166C149.693 114.166 144.656 112.806 140.02 110.087C135.385 107.367 131.738 103.628 129.081 98.8691C134.396 98.3747 139.433 97.0298 144.192 94.8345C148.951 92.6391 153.216 89.6576 156.986 85.89C160.756 82.1223 163.754 77.8577 165.979 73.0962C168.204 68.3347 169.532 63.2976 169.965 57.9848C174.724 60.6424 178.447 64.305 181.135 68.9726C183.822 73.6401 185.167 78.6921 185.169 84.1285C185.169 92.4723 182.248 99.5651 176.406 105.407C170.565 111.249 163.473 114.168 155.132 114.166Z" fill="#04B3E3"/>
</g>
<g opacity="0.15" clip-path="url(#clip6_3030_84488)">
<path d="M1377.59 83.4599C1363.32 98.7554 1364.16 122.803 1379.46 137.067C1394.75 151.33 1418.8 150.49 1433.06 135.195C1447.33 119.899 1446.49 95.8511 1431.19 81.5879C1415.9 67.3246 1391.85 68.1644 1377.59 83.4599ZM1427.52 130.021C1416.11 142.257 1396.87 142.929 1384.63 131.519C1372.4 120.109 1371.72 100.869 1383.13 88.6333C1394.54 76.3975 1413.78 75.7257 1426.02 87.1358C1438.26 98.5458 1438.93 117.785 1427.52 130.021Z" fill="#04B3E3"/>
<path d="M1394.05 93.6201L1388.88 99.168L1403.89 113.173L1421.55 112.556L1421.28 104.976L1406.77 105.483L1394.05 93.6201Z" fill="#04B3E3"/>
<path d="M1588.59 85.4599C1574.32 100.755 1575.16 124.803 1590.46 139.067C1605.75 153.33 1629.8 152.49 1644.06 137.195C1658.33 121.899 1657.49 97.8511 1642.19 83.5879C1626.9 69.3246 1602.85 70.1644 1588.59 85.4599ZM1638.52 132.021C1627.11 144.257 1607.87 144.929 1595.63 133.519C1583.4 122.109 1582.72 102.869 1594.13 90.6333C1605.54 78.3975 1624.78 77.7257 1637.02 89.1358C1649.26 100.546 1649.93 119.785 1638.52 132.021Z" fill="#04B3E3"/>
<path d="M1605.05 95.6201L1599.88 101.168L1614.89 115.173L1632.55 114.556L1632.28 106.976L1617.77 107.483L1605.05 95.6201Z" fill="#04B3E3"/>
<path d="M1799.59 86.4599C1785.32 101.755 1786.16 125.803 1801.46 140.067C1816.75 154.33 1840.8 153.49 1855.06 138.195C1869.33 122.899 1868.49 98.8511 1853.19 84.5879C1837.9 70.3246 1813.85 71.1644 1799.59 86.4599ZM1849.52 133.021C1838.11 145.257 1818.87 145.929 1806.63 134.519C1794.4 123.109 1793.72 103.869 1805.13 91.6333C1816.54 79.3975 1835.78 78.7257 1848.02 90.1358C1860.26 101.546 1860.93 120.785 1849.52 133.021Z" fill="#04B3E3"/>
<path d="M1816.05 96.6201L1810.88 102.168L1825.89 116.173L1843.55 115.556L1843.28 107.976L1828.77 108.483L1816.05 96.6201Z" fill="#04B3E3"/>
<path d="M2010.59 82.4599C1996.32 97.7554 1997.16 121.803 2012.46 136.067C2027.75 150.33 2051.8 149.49 2066.06 134.195C2080.33 118.899 2079.49 94.8511 2064.19 80.5879C2048.9 66.3246 2024.85 67.1644 2010.59 82.4599ZM2060.52 129.021C2049.11 141.257 2029.87 141.929 2017.63 130.519C2005.4 119.109 2004.72 99.8692 2016.13 87.6333C2027.54 75.3975 2046.78 74.7257 2059.02 86.1358C2071.26 97.5458 2071.93 116.785 2060.52 129.021Z" fill="#04B3E3"/>
<path d="M2027.05 92.6201L2021.88 98.168L2036.89 112.173L2054.55 111.556L2054.28 103.976L2039.77 104.483L2027.05 92.6201Z" fill="#04B3E3"/>
<path d="M2221.59 81.4599C2207.32 96.7554 2208.16 120.803 2223.46 135.067C2238.75 149.33 2262.8 148.49 2277.06 133.195C2291.33 117.899 2290.49 93.8511 2275.19 79.5879C2259.9 65.3246 2235.85 66.1644 2221.59 81.4599ZM2271.52 128.021C2260.11 140.257 2240.87 140.929 2228.63 129.519C2216.4 118.109 2215.72 98.8692 2227.13 86.6333C2238.54 74.3975 2257.78 73.7257 2270.02 85.1358C2282.26 96.5458 2282.93 115.785 2271.52 128.021Z" fill="#04B3E3"/>
<path d="M2238.05 91.6201L2232.88 97.168L2247.89 111.173L2265.55 110.556L2265.28 102.976L2250.77 103.483L2238.05 91.6201Z" fill="#04B3E3"/>
<path d="M2432.59 84.4599C2418.32 99.7554 2419.16 123.803 2434.46 138.067C2449.75 152.33 2473.8 151.49 2488.06 136.195C2502.33 120.899 2501.49 96.8511 2486.19 82.5879C2470.9 68.3246 2446.85 69.1644 2432.59 84.4599ZM2482.52 131.021C2471.11 143.257 2451.87 143.929 2439.63 132.519C2427.4 121.109 2426.72 101.869 2438.13 89.6333C2449.54 77.3975 2468.78 76.7257 2481.02 88.1358C2493.26 99.5458 2493.93 118.785 2482.52 131.021Z" fill="#04B3E3"/>
<path d="M2449.05 94.6201L2443.88 100.168L2458.89 114.173L2476.55 113.556L2476.28 105.976L2461.77 106.483L2449.05 94.6201Z" fill="#04B3E3"/>
<path d="M2643.59 83.4599C2629.32 98.7554 2630.16 122.803 2645.46 137.067C2660.75 151.33 2684.8 150.49 2699.06 135.195C2713.33 119.899 2712.49 95.8511 2697.19 81.5879C2681.9 67.3246 2657.85 68.1644 2643.59 83.4599ZM2693.52 130.021C2682.11 142.257 2662.87 142.929 2650.63 131.519C2638.4 120.109 2637.72 100.869 2649.13 88.6333C2660.54 76.3975 2679.78 75.7257 2692.02 87.1358C2704.26 98.5458 2704.93 117.785 2693.52 130.021Z" fill="#04B3E3"/>
<path d="M2660.05 93.6201L2654.88 99.168L2669.89 113.173L2687.55 112.556L2687.28 104.976L2672.77 105.483L2660.05 93.6201Z" fill="#04B3E3"/>
<path d="M1514.87 117.583C1509.68 117.583 1504.81 116.594 1500.27 114.616C1495.73 112.638 1491.77 109.966 1488.4 106.599C1485.03 103.231 1482.36 99.2759 1480.38 94.7319C1478.4 90.188 1477.41 85.3202 1477.41 80.1285C1477.41 71.1049 1480.29 63.1481 1486.04 56.258C1491.78 49.3679 1499.11 45.0872 1508.01 43.416C1506.9 49.5348 1507.24 55.5151 1509.03 61.3569C1510.82 67.1988 1513.91 72.3126 1518.3 76.6983C1522.69 81.084 1527.8 84.1743 1533.64 85.9691C1539.49 87.764 1545.46 88.1039 1551.58 86.9889C1549.97 95.8889 1545.71 103.213 1538.79 108.961C1531.86 114.709 1523.89 117.583 1514.87 117.583ZM1514.87 110.166C1520.31 110.166 1525.34 108.806 1529.98 106.087C1534.62 103.367 1538.26 99.6282 1540.92 94.8691C1535.6 94.3747 1530.57 93.0298 1525.81 90.8345C1521.05 88.6391 1516.78 85.6576 1513.01 81.89C1509.24 78.1223 1506.25 73.8577 1504.02 69.0962C1501.8 64.3347 1500.47 59.2976 1500.03 53.9848C1495.28 56.6424 1491.55 60.305 1488.87 64.9726C1486.18 69.6401 1484.83 74.6921 1484.83 80.1285C1484.83 88.4723 1487.75 95.5651 1493.59 101.407C1499.44 107.249 1506.53 110.168 1514.87 110.166Z" fill="#04B3E3"/>
<path d="M1725.87 113.583C1720.68 113.583 1715.81 112.594 1711.27 110.616C1706.73 108.638 1702.77 105.966 1699.4 102.599C1696.03 99.2314 1693.36 95.2759 1691.38 90.7319C1689.4 86.188 1688.41 81.3202 1688.41 76.1285C1688.41 67.1049 1691.29 59.1481 1697.04 52.258C1702.78 45.3679 1710.11 41.0872 1719.01 39.416C1717.9 45.5348 1718.24 51.5151 1720.03 57.3569C1721.82 63.1988 1724.91 68.3126 1729.3 72.6983C1733.69 77.084 1738.8 80.1743 1744.64 81.9691C1750.49 83.764 1756.46 84.1039 1762.58 82.9889C1760.97 91.8889 1756.71 99.2129 1749.79 104.961C1742.86 110.709 1734.89 113.583 1725.87 113.583ZM1725.87 106.166C1731.31 106.166 1736.34 104.806 1740.98 102.087C1745.62 99.3674 1749.26 95.6282 1751.92 90.8691C1746.6 90.3747 1741.57 89.0298 1736.81 86.8345C1732.05 84.6391 1727.78 81.6576 1724.01 77.89C1720.24 74.1223 1717.25 69.8577 1715.02 65.0962C1712.8 60.3347 1711.47 55.2976 1711.03 49.9848C1706.28 52.6424 1702.55 56.305 1699.87 60.9726C1697.18 65.6401 1695.83 70.6921 1695.83 76.1285C1695.83 84.4723 1698.75 91.5651 1704.59 97.4069C1710.44 103.249 1717.53 106.168 1725.87 106.166Z" fill="#04B3E3"/>
<path d="M1936.87 114.583C1931.68 114.583 1926.81 113.594 1922.27 111.616C1917.73 109.638 1913.77 106.966 1910.4 103.599C1907.03 100.231 1904.36 96.2759 1902.38 91.7319C1900.4 87.188 1899.41 82.3202 1899.41 77.1285C1899.41 68.1049 1902.29 60.1481 1908.04 53.258C1913.78 46.3679 1921.11 42.0872 1930.01 40.416C1928.9 46.5348 1929.24 52.5151 1931.03 58.3569C1932.82 64.1988 1935.91 69.3126 1940.3 73.6983C1944.69 78.084 1949.8 81.1743 1955.64 82.9691C1961.49 84.764 1967.46 85.1039 1973.58 83.9889C1971.97 92.8889 1967.71 100.213 1960.79 105.961C1953.86 111.709 1945.89 114.583 1936.87 114.583ZM1936.87 107.166C1942.31 107.166 1947.34 105.806 1951.98 103.087C1956.62 100.367 1960.26 96.6282 1962.92 91.8691C1957.6 91.3747 1952.57 90.0298 1947.81 87.8345C1943.05 85.6391 1938.78 82.6576 1935.01 78.89C1931.24 75.1223 1928.25 70.8577 1926.02 66.0962C1923.8 61.3347 1922.47 56.2976 1922.03 50.9848C1917.28 53.6424 1913.55 57.305 1910.87 61.9726C1908.18 66.6401 1906.83 71.6921 1906.83 77.1285C1906.83 85.4723 1909.75 92.5651 1915.59 98.4069C1921.44 104.249 1928.53 107.168 1936.87 107.166Z" fill="#04B3E3"/>
<path d="M2147.87 113.583C2142.68 113.583 2137.81 112.594 2133.27 110.616C2128.73 108.638 2124.77 105.966 2121.4 102.599C2118.03 99.2314 2115.36 95.2759 2113.38 90.7319C2111.4 86.188 2110.41 81.3202 2110.41 76.1285C2110.41 67.1049 2113.29 59.1481 2119.04 52.258C2124.78 45.3679 2132.11 41.0872 2141.01 39.416C2139.9 45.5348 2140.24 51.5151 2142.03 57.3569C2143.82 63.1988 2146.91 68.3126 2151.3 72.6983C2155.69 77.084 2160.8 80.1743 2166.64 81.9691C2172.49 83.764 2178.46 84.1039 2184.58 82.9889C2182.97 91.8889 2178.71 99.2129 2171.79 104.961C2164.86 110.709 2156.89 113.583 2147.87 113.583ZM2147.87 106.166C2153.31 106.166 2158.34 104.806 2162.98 102.087C2167.62 99.3674 2171.26 95.6282 2173.92 90.8691C2168.6 90.3747 2163.57 89.0298 2158.81 86.8345C2154.05 84.6391 2149.78 81.6576 2146.01 77.89C2142.24 74.1223 2139.25 69.8577 2137.02 65.0962C2134.8 60.3347 2133.47 55.2976 2133.03 49.9848C2128.28 52.6424 2124.55 56.305 2121.87 60.9726C2119.18 65.6401 2117.83 70.6921 2117.83 76.1285C2117.83 84.4723 2120.75 91.5651 2126.59 97.4069C2132.44 103.249 2139.53 106.168 2147.87 106.166Z" fill="#04B3E3"/>
<path d="M2358.87 122.583C2353.68 122.583 2348.81 121.594 2344.27 119.616C2339.73 117.638 2335.77 114.966 2332.4 111.599C2329.03 108.231 2326.36 104.276 2324.38 99.7319C2322.4 95.188 2321.41 90.3202 2321.41 85.1285C2321.41 76.1049 2324.29 68.1481 2330.04 61.258C2335.78 54.3679 2343.11 50.0872 2352.01 48.416C2350.9 54.5348 2351.24 60.5151 2353.03 66.3569C2354.82 72.1988 2357.91 77.3126 2362.3 81.6983C2366.69 86.084 2371.8 89.1743 2377.64 90.9691C2383.49 92.764 2389.46 93.1039 2395.58 91.9889C2393.97 100.889 2389.71 108.213 2382.79 113.961C2375.86 119.709 2367.89 122.583 2358.87 122.583ZM2358.87 115.166C2364.31 115.166 2369.34 113.806 2373.98 111.087C2378.62 108.367 2382.26 104.628 2384.92 99.8691C2379.6 99.3747 2374.57 98.0298 2369.81 95.8345C2365.05 93.6391 2360.78 90.6576 2357.01 86.89C2353.24 83.1223 2350.25 78.8577 2348.02 74.0962C2345.8 69.3347 2344.47 64.2976 2344.03 58.9848C2339.28 61.6424 2335.55 65.305 2332.87 69.9726C2330.18 74.6401 2328.83 79.6921 2328.83 85.1285C2328.83 93.4723 2331.75 100.565 2337.59 106.407C2343.44 112.249 2350.53 115.168 2358.87 115.166Z" fill="#04B3E3"/>
<path d="M2569.87 122.583C2564.68 122.583 2559.81 121.594 2555.27 119.616C2550.73 117.638 2546.77 114.966 2543.4 111.599C2540.03 108.231 2537.36 104.276 2535.38 99.7319C2533.4 95.188 2532.41 90.3202 2532.41 85.1285C2532.41 76.1049 2535.29 68.1481 2541.04 61.258C2546.78 54.3679 2554.11 50.0872 2563.01 48.416C2561.9 54.5348 2562.24 60.5151 2564.03 66.3569C2565.82 72.1988 2568.91 77.3126 2573.3 81.6983C2577.69 86.084 2582.8 89.1743 2588.64 90.9691C2594.49 92.764 2600.46 93.1039 2606.58 91.9889C2604.97 100.889 2600.71 108.213 2593.79 113.961C2586.86 119.709 2578.89 122.583 2569.87 122.583ZM2569.87 115.166C2575.31 115.166 2580.34 113.806 2584.98 111.087C2589.62 108.367 2593.26 104.628 2595.92 99.8691C2590.6 99.3747 2585.57 98.0298 2580.81 95.8345C2576.05 93.6391 2571.78 90.6576 2568.01 86.89C2564.24 83.1223 2561.25 78.8577 2559.02 74.0962C2556.8 69.3347 2555.47 64.2976 2555.03 58.9848C2550.28 61.6424 2546.55 65.305 2543.87 69.9726C2541.18 74.6401 2539.83 79.6921 2539.83 85.1285C2539.83 93.4723 2542.75 100.565 2548.59 106.407C2554.44 112.249 2561.53 115.168 2569.87 115.166Z" fill="#04B3E3"/>
</g>
</g>
<defs>
<clipPath id="clip0_3030_84488">
<rect width="2813" height="372" fill="white"/>
</clipPath>
<clipPath id="clip1_3030_84488">
<rect width="1440" height="133" fill="white" transform="translate(-18 133)"/>
</clipPath>
<clipPath id="clip2_3030_84488">
<rect width="1440" height="133" fill="white" transform="matrix(-1 0 0 1 2743 134)"/>
</clipPath>
<clipPath id="clip3_3030_84488">
<rect width="1440" height="133" fill="white" transform="translate(-18 229)"/>
</clipPath>
<clipPath id="clip4_3030_84488">
<rect width="1440" height="133" fill="white" transform="matrix(-1 0 0 1 2743 230)"/>
</clipPath>
<clipPath id="clip5_3030_84488">
<rect width="1440" height="133" fill="white" transform="matrix(-1 0 0 1 1384 44)"/>
</clipPath>
<clipPath id="clip6_3030_84488">
<rect width="1440" height="133" fill="white" transform="translate(1341 45)"/>
</clipPath>
</defs>
</svg>
