<svg xmlns="http://www.w3.org/2000/svg" xmlns:xlink="http://www.w3.org/1999/xlink" width="500" zoomAndPan="magnify" viewBox="0 0 375 374.999991" height="500" preserveAspectRatio="xMidYMid meet" version="1.0"><defs><clipPath id="78fc73114a"><path d="M 181.226562 0 L 374.726562 0 L 374.726562 375 L 181.226562 375 Z M 181.226562 0 " clip-rule="nonzero"/></clipPath><clipPath id="d2bd073f8c"><path d="M 0.226562 17 L 193.726562 17 L 193.726562 351 L 0.226562 351 Z M 0.226562 17 " clip-rule="nonzero"/></clipPath><clipPath id="2853ca2c20"><path d="M 191 18 L 193.726562 18 L 193.726562 232 L 191 232 Z M 191 18 " clip-rule="nonzero"/></clipPath><clipPath id="ed4c111f55"><path d="M 186 56 L 193.726562 56 L 193.726562 126 L 186 126 Z M 186 56 " clip-rule="nonzero"/></clipPath><clipPath id="8a31e0afae"><path d="M 147 125 L 193.726562 125 L 193.726562 185 L 147 185 Z M 147 125 " clip-rule="nonzero"/></clipPath><clipPath id="be4bb58946"><path d="M 0.226562 180 L 37 180 L 37 231 L 0.226562 231 Z M 0.226562 180 " clip-rule="nonzero"/></clipPath><clipPath id="80ec89e21d"><path d="M 0.226562 16 L 193.726562 16 L 193.726562 353 L 0.226562 353 Z M 0.226562 16 " clip-rule="nonzero"/></clipPath><clipPath id="978aa25d8d"><rect x="0" width="194" y="0" height="375"/></clipPath></defs><g clip-path="url(#78fc73114a)"><g transform="matrix(1, 0, 0, 1, 181, 0)"><g clip-path="url(#978aa25d8d)"><g clip-path="url(#d2bd073f8c)"><path fill="#ffffff" d="M 311.386719 199.960938 C 285.828125 221.53125 258.910156 234.273438 215.445312 230.023438 C 166.640625 225.25 137.625 245.742188 122.699219 271.589844 C 93.542969 312.421875 59.542969 340.777344 18.441406 350.898438 C 23.453125 296.128906 15.347656 246.832031 -0.109375 200.589844 C 30.542969 185.304688 51.675781 161.476562 61.933594 130.238281 C 71.367188 101.523438 85.070312 71.820312 123.335938 56.050781 C 151.601562 44.402344 180.054688 36.230469 202.652344 17.671875 C 238.902344 78.441406 275.140625 139.199219 311.386719 199.960938 " fill-opacity="1" fill-rule="evenodd"/></g><g clip-path="url(#2853ca2c20)"><path fill="#d9dadb" d="M 191.503906 25.917969 C 195.140625 23.320312 198.785156 21.238281 202.421875 18.640625 C 238.816406 78.949219 275.203125 139.25 311.601562 199.550781 C 290.3125 217.78125 266.753906 233.394531 227.375 230.75 C 216.285156 229.535156 207.972656 229.011719 202.421875 229.1875 C 265.839844 167.109375 230.265625 96.382812 191.503906 25.917969 " fill-opacity="1" fill-rule="evenodd"/></g><path fill="#d9dadb" d="M 117.160156 279.097656 C 123.160156 232.003906 113.792969 194.628906 101.042969 160.5625 C 86.707031 122.253906 89.019531 87.46875 111.4375 62.308594 C 94.894531 72.40625 81.726562 85.308594 73.484375 102.34375 C 84.015625 169.160156 113.515625 225.601562 18.375 350.320312 C 57.933594 340.5625 90.078125 315.179688 117.160156 279.097656 " fill-opacity="1" fill-rule="evenodd"/><g clip-path="url(#ed4c111f55)"><path fill="#000000" d="M 254.59375 104.269531 C 241.976562 116.34375 226.683594 122.835938 209.5625 125.546875 C 202.511719 111.023438 194.84375 96.515625 186.582031 82.011719 C 203.226562 76.152344 216.71875 67.140625 228.792969 56.703125 C 237.390625 72.558594 245.988281 88.414062 254.59375 104.269531 " fill-opacity="1" fill-rule="evenodd"/></g><path fill="#000000" d="M 186.582031 82.011719 C 179.800781 69.515625 172.066406 55.828125 162.910156 40.398438 C 145.722656 46.605469 127.253906 54 111.082031 62.707031 C 116.980469 74.515625 122.875 86.332031 128.761719 98.144531 C 135.582031 95.792969 142.199219 93.667969 151.777344 91.5625 C 168.027344 87.992188 177.015625 84.695312 186.582031 82.011719 " fill-opacity="1" fill-rule="evenodd"/><g clip-path="url(#8a31e0afae)"><path fill="#000000" d="M 209.5625 125.546875 C 196.101562 127.882812 182.644531 130.230469 169.183594 132.558594 C 157.902344 135.011719 152.414062 137.027344 147.734375 138.976562 C 154.515625 154.273438 160.875 169.449219 167.167969 184.609375 C 172.539062 181.515625 183.421875 179.199219 199.796875 177.660156 C 214.332031 176.113281 225.175781 174.410156 232.339844 172.5625 C 224.746094 156.890625 217.152344 141.214844 209.5625 125.546875 " fill-opacity="1" fill-rule="evenodd"/></g><path fill="#000000" d="M 167.167969 184.601562 C 148.300781 192.0625 131.820312 202.734375 119.226562 218.585938 C 123.042969 232.390625 126.863281 246.214844 130.679688 260.023438 C 143.554688 243.785156 162.222656 234.691406 184.847656 230.492188 C 178.964844 215.199219 173.066406 199.898438 167.167969 184.601562 " fill-opacity="1" fill-rule="evenodd"/><path fill="#000000" d="M 147.734375 138.976562 C 128.632812 149.742188 115.253906 161.988281 105.792969 175.253906 C 101.53125 160.667969 96.597656 146.71875 91.289062 133.109375 C 98.804688 118.148438 111.597656 106.691406 128.761719 98.144531 C 135.148438 110.960938 141.46875 124.570312 147.734375 138.976562 " fill-opacity="1" fill-rule="evenodd"/><path fill="#000000" d="M 91.289062 133.101562 C 86.347656 122.253906 81.589844 109.898438 77.125 95.378906 C 71.382812 104.574219 66.660156 115.683594 62.652344 128.085938 C 60.675781 135.078125 58.554688 141.761719 55.40625 146.257812 C 58.332031 156.355469 61.269531 166.457031 64.195312 176.554688 C 73.261719 160.832031 82.296875 146.492188 91.289062 133.101562 " fill-opacity="1" fill-rule="evenodd"/><path fill="#000000" d="M 64.195312 176.554688 C 67.652344 189.648438 71.109375 202.738281 74.570312 215.84375 C 64.933594 227.945312 55.058594 239.191406 44.671875 248.570312 C 41.980469 235.871094 39.296875 223.171875 36.609375 210.464844 C 47.1875 200.421875 55.828125 188.609375 64.195312 176.554688 " fill-opacity="1" fill-rule="evenodd"/><path fill="#000000" d="M 105.792969 175.253906 C 94.675781 189.285156 84.425781 202.695312 74.570312 215.84375 C 78.160156 229.097656 81.582031 242.757812 84.378906 257.855469 C 95.539062 244.085938 107.089844 230.90625 119.226562 218.585938 C 114.890625 203.542969 110.378906 189.234375 105.792969 175.253906 " fill-opacity="1" fill-rule="evenodd"/><path fill="#000000" d="M 84.378906 257.855469 C 87.921875 275.253906 91.078125 291.140625 93.96875 305.980469 C 82.4375 317.039062 70.691406 325.84375 58.835938 333.632812 C 56.121094 317.671875 53.824219 302.613281 51.976562 288.441406 C 64.40625 278.640625 74.84375 268.363281 84.378906 257.855469 " fill-opacity="1" fill-rule="evenodd"/><path fill="#000000" d="M 44.671875 248.574219 C 34.5625 257.21875 25.632812 263.984375 16.460938 269.796875 C 18.300781 282.847656 20.074219 295.90625 19.785156 309.050781 C 32.851562 302.359375 42.644531 295.417969 51.984375 288.441406 C 49.539062 275.152344 47.109375 261.867188 44.671875 248.574219 " fill-opacity="1" fill-rule="evenodd"/><g clip-path="url(#be4bb58946)"><path fill="#000000" d="M 36.609375 210.464844 C 34.28125 200.722656 31.914062 190.691406 29.546875 180.53125 C 20.042969 188.304688 10.332031 195.5 -0.109375 200.589844 C 2.363281 208.59375 5.183594 218.035156 8.726562 230.652344 C 20.503906 224.484375 28.808594 217.53125 36.609375 210.464844 " fill-opacity="1" fill-rule="evenodd"/></g><g clip-path="url(#80ec89e21d)"><path fill="#000000" d="M 310.132812 199.746094 C 297.628906 210.21875 284.792969 218.542969 269.8125 223.761719 C 254.585938 229.066406 237.125 231.167969 215.542969 229.0625 L 215.472656 229.046875 L 215.460938 229.046875 C 208.597656 228.382812 202.109375 228.214844 196 228.476562 C 189.875 228.753906 184.128906 229.464844 178.734375 230.578125 C 151 236.269531 132.757812 252.257812 121.894531 271.058594 C 107.375 291.382812 91.648438 308.601562 74.449219 321.996094 C 57.652344 335.078125 39.421875 344.515625 19.523438 349.632812 C 21.890625 322.675781 21.082031 297.027344 17.800781 272.421875 C 14.503906 247.6875 8.691406 224.007812 1.078125 201.089844 C 5.113281 199.042969 9 196.839844 12.730469 194.480469 C 16.679688 191.992188 20.4375 189.324219 23.992188 186.511719 C 42.285156 172.007812 55.40625 153.210938 62.851562 130.539062 C 67.550781 116.261719 73.296875 101.734375 82.601562 88.855469 C 91.898438 76 104.761719 64.753906 123.707031 56.945312 L 123.71875 56.941406 L 123.738281 56.929688 C 129.964844 54.367188 136.140625 51.996094 142.238281 49.644531 C 163.867188 41.328125 184.808594 33.277344 202.390625 19.132812 Z M 270.453125 225.597656 C 285.933594 220.195312 299.152344 211.550781 312.011719 200.699219 L 311.386719 199.960938 L 312.21875 199.460938 L 203.484375 17.175781 L 202.90625 16.214844 L 202.046875 16.929688 C 184.511719 31.308594 163.386719 39.445312 141.550781 47.84375 C 135.382812 50.214844 129.136719 52.613281 122.988281 55.148438 L 122.984375 55.148438 L 122.957031 55.15625 C 103.644531 63.117188 90.519531 74.605469 81.039062 87.726562 C 71.582031 100.8125 65.757812 115.511719 61.015625 129.941406 C 53.6875 152.230469 40.78125 170.726562 22.78125 184.992188 C 19.273438 187.78125 15.582031 190.390625 11.699219 192.847656 C 7.828125 195.296875 3.75 197.582031 -0.523438 199.726562 L -0.539062 199.726562 L -1.289062 200.113281 L -1.03125 200.910156 C 6.6875 223.972656 12.5625 247.796875 15.882812 272.675781 C 19.199219 297.554688 19.972656 323.5 17.476562 350.8125 L 17.351562 352.167969 L 18.671875 351.839844 C 39.355469 346.75 58.253906 337.0625 75.640625 323.519531 C 93.003906 310.007812 108.859375 292.644531 123.484375 272.152344 L 123.507812 272.132812 L 123.542969 272.074219 C 134.144531 253.6875 151.988281 238.042969 179.121094 232.476562 C 184.414062 231.390625 190.070312 230.679688 196.078125 230.410156 C 202.109375 230.148438 208.5 230.3125 215.285156 230.972656 L 215.351562 230.980469 L 215.355469 230.980469 C 237.230469 233.121094 254.960938 230.980469 270.453125 225.597656 " fill-opacity="1" fill-rule="nonzero"/></g></g></g></g></svg>