<svg width="59" height="59" viewBox="0 0 59 59" fill="none" xmlns="http://www.w3.org/2000/svg">
<path d="M29.4994 16.1863C29.499 15.6414 29.3478 15.1073 29.0624 14.6431C28.777 14.179 28.3686 13.8029 27.8826 13.5567C27.3965 13.3105 26.8517 13.2037 26.3087 13.2481C25.7656 13.2926 25.2455 13.4866 24.8059 13.8086L7.45995 26.5261C6.99291 26.8685 6.61312 27.3162 6.35133 27.8329C6.08954 28.3495 5.95313 28.9205 5.95312 29.4997C5.95313 30.0788 6.08954 30.6498 6.35133 31.1664C6.61312 31.6831 6.99291 32.1308 7.45995 32.4733L24.8059 45.1936C25.2455 45.5157 25.7656 45.7097 26.3087 45.7541C26.8517 45.7986 27.3965 45.6918 27.8826 45.4455C28.3686 45.1993 28.777 44.8233 29.0624 44.3591C29.3478 43.895 29.499 43.3608 29.4994 42.816V33.494L45.456 45.1936C45.8955 45.5157 46.4156 45.7097 46.9587 45.7541C47.5017 45.7986 48.0465 45.6918 48.5326 45.4455C49.0186 45.1993 49.427 44.8233 49.7124 44.3591C49.9978 43.895 50.149 43.3608 50.1494 42.816V16.1863C50.149 15.6414 49.9978 15.1073 49.7124 14.6431C49.427 14.179 49.0186 13.8029 48.5326 13.5567C48.0465 13.3105 47.5017 13.2037 46.9587 13.2481C46.4156 13.2926 45.8955 13.4866 45.456 13.8086L29.4994 25.5083V16.1863Z" fill="white"/>
</svg>
