<svg width="225" height="225" viewBox="0 0 225 225" fill="none" xmlns="http://www.w3.org/2000/svg">
<path d="M200.868 104.015L41.4929 29.015C39.8882 28.2558 38.1008 27.9682 36.3389 28.1859C34.5771 28.4036 32.9134 29.1176 31.5418 30.2445C30.1702 31.3715 29.1471 32.8651 28.5918 34.5512C28.0365 36.2374 27.9718 38.0466 28.4054 39.7681L46.5835 112.499L28.4054 185.231C27.9678 186.953 28.0296 188.764 28.5836 190.452C29.1376 192.14 30.1609 193.636 31.5338 194.764C32.9066 195.892 34.5723 196.606 36.336 196.822C38.0996 197.038 39.8884 196.747 41.4929 195.984L200.868 120.984C202.478 120.227 203.84 119.027 204.794 117.524C205.748 116.022 206.255 114.279 206.255 112.499C206.255 110.72 205.748 108.977 204.794 107.474C203.84 105.972 202.478 104.772 200.868 104.015ZM51.3835 170.596L59.2491 139.124L112.499 112.499L59.2491 85.8744L51.3835 54.4025L174.852 112.499L51.3835 170.596Z" fill="#04B3E3"/>
</svg>
