<svg width="31" height="31" viewBox="0 0 31 31" fill="none" xmlns="http://www.w3.org/2000/svg">
<path d="M27.6762 14.3308L5.71787 3.9975C5.49678 3.8929 5.25052 3.85328 5.00777 3.88327C4.76503 3.91327 4.53581 4.01163 4.34683 4.1669C4.15785 4.32218 4.0169 4.52796 3.94039 4.76027C3.86388 4.99259 3.85497 5.24186 3.91471 5.47904L6.41925 15.4998L3.91471 25.5205C3.85441 25.7578 3.86293 26.0073 3.93926 26.2399C4.01559 26.4726 4.15658 26.6786 4.34573 26.834C4.53488 26.9894 4.76438 27.0878 5.00737 27.1175C5.25036 27.1473 5.4968 27.1073 5.71787 27.0021L27.6762 16.6688C27.8981 16.5644 28.0857 16.3991 28.2172 16.1921C28.3486 15.9851 28.4184 15.745 28.4184 15.4998C28.4184 15.2546 28.3486 15.0145 28.2172 14.8075C28.0857 14.6005 27.8981 14.4351 27.6762 14.3308ZM7.08058 23.5043L8.16429 19.1681L15.501 15.4998L8.16429 11.8315L7.08058 7.49533L24.0918 15.4998L7.08058 23.5043Z" fill="#04B3E3"/>
</svg>
