<svg width="100" height="100" viewBox="0 0 100 100" fill="none" xmlns="http://www.w3.org/2000/svg">
<path d="M67.9539 18.2665C65.4914 18.2665 64.2597 18.2665 63.138 17.8502C62.9822 17.7924 62.8289 17.7288 62.6776 17.6595C61.5901 17.1607 60.7197 16.29 58.978 14.5487C54.9701 10.5407 52.9664 8.53679 50.5005 8.352C50.1693 8.32717 49.8359 8.32717 49.5047 8.352C47.0389 8.53679 45.0347 10.5407 41.027 14.5486C39.2856 16.29 38.415 17.1607 37.3275 17.6595C37.1764 17.7288 37.0229 17.7924 36.8671 17.8502C35.7453 18.2665 34.514 18.2665 32.0514 18.2665H31.5971C25.3142 18.2665 22.1727 18.2665 20.2209 20.2183C18.269 22.1702 18.269 25.3116 18.269 31.5946V32.0488C18.269 34.5114 18.269 35.7427 17.8528 36.8645C17.795 37.0203 17.7314 37.1739 17.6621 37.3249C17.1632 38.4124 16.2926 39.2831 14.5512 41.0244C10.5433 45.0321 8.53935 47.0363 8.35456 49.5021C8.32973 49.8334 8.32973 50.1667 8.35456 50.498C8.53935 52.9638 10.5433 54.9675 14.5512 58.9755C16.2926 60.7171 17.1632 61.5875 17.6621 62.675C17.7314 62.8263 17.795 62.9796 17.8528 63.1355C18.269 64.2571 18.269 65.4888 18.269 67.9513V68.4055C18.269 74.6884 18.269 77.83 20.2209 79.7817C22.1727 81.7338 25.3142 81.7338 31.5971 81.7338H32.0514C34.514 81.7338 35.7453 81.7338 36.8671 82.15C37.0229 82.2075 37.1764 82.2713 37.3275 82.3405C38.415 82.8396 39.2856 83.71 41.027 85.4513C45.0347 89.4592 47.0389 91.4634 49.5047 91.648C49.8359 91.673 50.1689 91.673 50.5005 91.648C52.9664 91.4634 54.9701 89.4592 58.978 85.4513C60.7197 83.71 61.5901 82.8396 62.6776 82.3405C62.8289 82.2713 62.9822 82.2075 63.138 82.15C64.2597 81.7338 65.4914 81.7338 67.9539 81.7338H68.408C74.6909 81.7338 77.8326 81.7338 79.7843 79.7817C81.7364 77.83 81.7364 74.6884 81.7364 68.4055V67.9513C81.7364 65.4888 81.7363 64.2571 82.1526 63.1355C82.2101 62.9796 82.2738 62.8263 82.343 62.675C82.8422 61.5875 83.7126 60.7171 85.4539 58.9755C89.4618 54.9675 91.4659 52.9638 91.6505 50.498C91.6755 50.1663 91.6755 49.8334 91.6505 49.5021C91.4659 47.0363 89.4618 45.0321 85.4539 41.0244C83.7126 39.2831 82.8422 38.4124 82.343 37.3249C82.2738 37.1739 82.2101 37.0203 82.1526 36.8645C81.7363 35.7427 81.7364 34.5114 81.7364 32.0488V31.5946C81.7364 25.3116 81.7364 22.1702 79.7843 20.2183C77.8326 18.2665 74.6909 18.2665 68.408 18.2665H67.9539Z" stroke="#141B34" stroke-width="1.5"/>
<path d="M64.5807 50C64.5807 58.0541 58.0516 64.5833 49.9974 64.5833C41.9432 64.5833 35.4141 58.0541 35.4141 50C35.4141 41.9458 41.9432 35.4166 49.9974 35.4166C58.0516 35.4166 64.5807 41.9458 64.5807 50Z" stroke="#141B34" stroke-width="1.5"/>
</svg>
