<svg xmlns="http://www.w3.org/2000/svg" width="500" height="500" style="width:100%;height:100%;transform:translate3d(0,0,0);content-visibility:visible" viewBox="0 0 500 500"><defs><clipPath id="c"><path d="M0 0h500v500H0z"/></clipPath><clipPath id="g"><path d="M0 0h500v500H0z"/></clipPath><clipPath id="f"><path d="M0 0h500v500H0z"/></clipPath><clipPath id="d"><path d="M0 0h500v500H0z"/></clipPath><filter id="a" width="100%" height="100%" x="0%" y="0%" filterUnits="objectBoundingBox"><feComponentTransfer in="SourceGraphic"><feFuncA tableValues="1.0 0.0" type="table"/></feComponentTransfer></filter><mask id="e" mask-type="alpha" maskUnits="userSpaceOnUse"><g filter="url(#a)"><path fill="#fff" d="M0 0h500v500H0z" opacity="0"/><use xmlns:ns1="http://www.w3.org/1999/xlink" ns1:href="#b"/></g></mask><g id="b" class="primary design" style="display:none"><path class="primary"/><path fill-opacity="0" stroke-linecap="round" stroke-linejoin="round" class="primary"/></g></defs><g clip-path="url(#c)"><g clip-path="url(#d)" style="display:none"><g class="primary design" style="display:none"><path class="primary"/><path fill="none" class="primary"/><path fill="none" class="primary"/></g><g class="primary design" style="display:none"><path class="primary"/><path fill="none" class="primary"/><path fill="none" class="primary"/></g><g class="primary design" mask="url(#e)" style="display:none"><path class="primary"/><path fill="none" class="primary"/></g><g class="primary design" style="display:none"><path fill="none" class="primary"/><path class="primary"/></g><g class="primary design" style="display:none"><path fill="none" class="primary"/><path class="primary"/></g></g><g clip-path="url(#f)" style="display:block"><g class="primary design" style="display:none"><path class="primary"/><path fill="none" class="primary"/><path fill="none" class="primary"/></g><g class="primary design" style="display:none"><path class="primary"/><path fill="none" class="primary"/><path fill="none" class="primary"/></g><g class="primary design" style="display:none"><path class="primary"/><path fill="none" class="primary"/><path fill="none" class="primary"/></g><g class="primary design" style="display:none"><path class="primary"/><path fill="none" class="primary"/><path fill="none" class="primary"/></g><g class="primary design" style="display:none"><path class="primary"/><path fill="none" class="primary"/></g><g class="primary design" style="display:none"><path fill="#FFF" d="M349.408 304.1c-15.331 0-29.329 5.311-40.681 13.935L195.453 261.98c.708-3.916 1.208-7.873 1.208-11.977 0-4-.52-7.874-1.187-11.686l111.503-56.345c11.665 9.499 26.33 15.435 42.493 15.435 37.328 0 67.698-30.37 67.698-67.697s-30.37-67.698-67.698-67.698-67.697 30.37-67.697 67.698c0 5.936 1.02 11.602 2.458 17.08l-108.233 54.68c-12.186-11.832-28.745-19.164-47.034-19.164-37.328 0-67.698 30.37-67.698 67.697s30.37 67.698 67.698 67.698c18.164 0 34.62-7.29 46.784-18.977l109.045 53.95c-1.812 6.103-3.083 12.436-3.083 19.122 0 37.327 30.37 67.698 67.698 67.698s67.697-30.37 67.697-67.698-30.37-67.697-67.697-67.697" class="primary"/></g><g class="primary design" style="display:block"><path fill="#FFF" d="M349.408 304.1c-15.331 0-29.329 5.311-40.681 13.935L195.453 261.98c.708-3.916 1.208-7.873 1.208-11.977 0-4-.52-7.874-1.187-11.686l111.503-56.345c11.665 9.499 26.33 15.435 42.493 15.435 37.328 0 67.698-30.37 67.698-67.697s-30.37-67.698-67.698-67.698-67.697 30.37-67.697 67.698c0 5.936 1.02 11.602 2.458 17.08l-108.233 54.68c-12.186-11.832-28.745-19.164-47.034-19.164-37.328 0-67.698 30.37-67.698 67.697s30.37 67.698 67.698 67.698c18.164 0 34.62-7.29 46.784-18.977l109.045 53.95c-1.812 6.103-3.083 12.436-3.083 19.122 0 37.327 30.37 67.698 67.698 67.698s67.697-30.37 67.697-67.698-30.37-67.697-67.697-67.697" class="primary"/></g></g><g clip-path="url(#g)" style="display:none"><g class="primary design" style="display:none"><path fill="none" class="primary"/><path fill="none" class="primary"/><path class="primary"/></g><g class="primary design" style="display:none"><path fill="none" class="primary"/><path class="primary"/><path fill="none" class="primary"/></g><g class="primary design" style="display:none"><path class="primary"/><path fill="none" class="primary"/></g><g class="primary design" style="display:none"><path fill="none" class="primary"/><path class="primary"/></g></g></g></svg>