<svg width="414" height="414" viewBox="0 0 414 414" fill="none" xmlns="http://www.w3.org/2000/svg">
<path d="M227.838 146.067H258.698C262.977 146.071 267.188 147.135 270.955 149.165C274.722 151.195 277.926 154.127 280.282 157.699C282.637 161.272 284.07 165.372 284.451 169.634C284.833 173.896 284.152 178.186 282.469 182.12L214.159 341.562C212.51 345.379 209.596 348.513 205.908 350.434C202.22 352.356 197.982 352.948 193.908 352.112C189.835 351.276 186.173 349.062 183.54 345.843C180.907 342.624 179.463 338.596 179.452 334.437V215.067L154.388 214.291C147.676 214.067 141.314 211.243 136.646 206.414C131.979 201.586 129.371 195.132 129.375 188.416V86.2444C129.375 79.3819 132.101 72.8005 136.954 67.948C141.806 63.0955 148.388 60.3694 155.25 60.3694H201.963C208.825 60.3694 215.407 63.0955 220.259 67.948C225.112 72.8005 227.838 79.3819 227.838 86.2444V146.067Z" fill="white"/>
</svg>
