<svg width="39" height="41" viewBox="0 0 39 41" fill="none" xmlns="http://www.w3.org/2000/svg">
<path d="M32.3904 18.1087C32.9556 18.1087 33.4855 18.2081 33.98 18.4068C34.4746 18.6055 34.9056 18.877 35.273 19.2215C35.6404 19.5659 35.93 19.9699 36.142 20.4336C36.3539 20.8973 36.4599 21.394 36.4599 21.9239V29.5544C36.4599 31.1308 36.142 32.6145 35.5061 34.0054C34.8702 35.3964 33.9942 36.6085 32.8779 37.6418C31.7615 38.6751 30.4686 39.4898 28.999 40.0859C27.5295 40.6821 25.9469 40.9868 24.2512 41C22.2164 41 20.323 40.6357 18.5708 39.9071C16.8186 39.1785 15.2219 38.1452 13.7806 36.8072L3.77622 27.4282C3.38057 27.0572 3.07677 26.6267 2.86481 26.1366C2.65285 25.6464 2.54688 25.143 2.54688 24.6264C2.54688 24.07 2.65992 23.5533 2.88601 23.0764C3.11209 22.5995 3.4159 22.1756 3.79742 21.8047C4.17894 21.4338 4.62405 21.1556 5.13274 20.9701C5.64144 20.7847 6.19253 20.6787 6.78601 20.6522C7.9447 20.6522 8.9409 21.043 9.77459 21.8246L12.0425 23.9309V17.2542C11.2088 16.8833 10.4599 16.4197 9.79579 15.8633C9.13166 15.3069 8.56644 14.6777 8.10014 13.9755C7.63383 13.2734 7.26644 12.5183 6.99796 11.7103C6.72948 10.9022 6.60231 10.0676 6.61644 9.20653C6.61644 7.97453 6.86372 6.82201 7.35829 5.74898C7.85285 4.67595 8.53111 3.72877 9.39307 2.90744C10.255 2.08611 11.2583 1.45024 12.4029 0.999834C13.5474 0.549427 14.7838 0.317599 16.1121 0.304352C17.4262 0.304352 18.6556 0.536179 19.8001 0.999834C20.9447 1.46349 21.955 2.09936 22.8311 2.90744C23.7072 3.71553 24.3855 4.65608 24.8659 5.72911C25.3463 6.80214 25.5936 7.96128 25.6077 9.20653C25.6077 10.4385 25.3463 11.6175 24.8235 12.7436C24.3007 13.8696 23.5588 14.8565 22.598 15.7043C23.0925 15.8235 23.5376 16.0223 23.9333 16.3004C24.3289 16.5786 24.6751 16.9231 24.9719 17.3337C25.6077 17.0026 26.2719 16.837 26.9643 16.837C27.6708 16.837 28.3279 16.9893 28.9355 17.294C29.5431 17.5987 30.0306 18.0358 30.398 18.6055C31.0338 18.2743 31.698 18.1087 32.3904 18.1087ZM9.32948 9.20653C9.32948 10.2001 9.5697 11.1473 10.0501 12.0481C10.5306 12.9489 11.1947 13.6974 12.0425 14.2935V9.20653C12.0425 8.67663 12.1485 8.17986 12.3605 7.71621C12.5724 7.25255 12.8621 6.84851 13.2295 6.50408C13.5969 6.15965 14.0279 5.88808 14.5224 5.68937C15.017 5.49066 15.5469 5.39131 16.1121 5.39131C16.6773 5.39131 17.2072 5.49066 17.7018 5.68937C18.1963 5.88808 18.6273 6.15965 18.9947 6.50408C19.3621 6.84851 19.6518 7.25255 19.8637 7.71621C20.0757 8.17986 20.1817 8.67663 20.1817 9.20653V14.2935C21.0295 13.6974 21.6936 12.9489 22.174 12.0481C22.6545 11.1473 22.8947 10.2001 22.8947 9.20653C22.8947 8.3322 22.7181 7.51087 22.3648 6.74253C22.0115 5.97419 21.524 5.3052 20.9023 4.73557C20.2806 4.16593 19.5599 3.7089 18.7404 3.36447C17.9208 3.02004 17.0447 2.84783 16.1121 2.84783C15.1795 2.84783 14.3034 3.01342 13.4838 3.3446C12.6643 3.67579 11.9436 4.13282 11.3219 4.7157C10.7001 5.29858 10.2126 5.97419 9.85938 6.74253C9.50611 7.51087 9.32948 8.3322 9.32948 9.20653ZM33.7469 21.9239C33.7469 21.5795 33.6126 21.2814 33.3442 21.0297C33.0757 20.778 32.7577 20.6522 32.3904 20.6522C31.9099 20.6522 31.5779 20.778 31.3942 21.0297C31.2105 21.2814 31.0974 21.5927 31.055 21.9637C31.0126 22.3346 31.0056 22.7452 31.0338 23.1957C31.0621 23.6461 31.0621 24.0501 31.0338 24.4078C31.0056 24.7655 30.8925 25.0834 30.6947 25.3616C30.4969 25.6398 30.1577 25.7656 29.6773 25.7391C29.1545 25.7391 28.8012 25.5868 28.6175 25.2821C28.4338 24.9774 28.3208 24.58 28.2784 24.0898C28.236 23.5997 28.2501 23.0897 28.3208 22.5598C28.3914 22.0299 28.4056 21.5199 28.3632 21.0297C28.3208 20.5396 28.2148 20.1488 28.0452 19.8573C27.8757 19.5659 27.5154 19.4069 26.9643 19.3804C26.4838 19.3804 26.1518 19.5063 25.9681 19.758C25.7844 20.0097 25.6713 20.321 25.6289 20.6919C25.5865 21.0628 25.5795 21.4735 25.6077 21.9239C25.636 22.3743 25.636 22.7784 25.6077 23.136C25.5795 23.4937 25.4664 23.8117 25.2686 24.0898C25.0708 24.368 24.7317 24.4939 24.2512 24.4674C23.7284 24.4674 23.3751 24.3151 23.1914 24.0104C23.0077 23.7057 22.8947 23.3083 22.8523 22.8181C22.8099 22.328 22.824 21.8179 22.8947 21.288C22.9654 20.7582 22.9795 20.2481 22.9371 19.758C22.8947 19.2678 22.7887 18.877 22.6192 18.5856C22.4496 18.2942 22.0893 18.1352 21.5382 18.1087C21.0577 18.1087 20.7257 18.2345 20.542 18.4862C20.3583 18.7379 20.2452 19.0493 20.2029 19.4202C20.1605 19.7911 20.1534 20.2018 20.1817 20.6522C20.2099 21.1026 20.2099 21.5066 20.1817 21.8643C20.1534 22.222 20.0404 22.5399 19.8425 22.8181C19.6447 23.0963 19.3056 23.2222 18.8251 23.1957C18.4577 23.1957 18.1398 23.0698 17.8713 22.8181C17.6029 22.5664 17.4686 22.2683 17.4686 21.9239V9.20653C17.4686 8.8621 17.3344 8.56403 17.0659 8.31233C16.7974 8.06064 16.4795 7.93479 16.1121 7.93479C15.7447 7.93479 15.4268 8.06064 15.1583 8.31233C14.8898 8.56403 14.7556 8.8621 14.7556 9.20653V24.8449C14.7556 25.1496 14.699 25.4278 14.586 25.6795C14.473 25.9312 14.3105 26.163 14.0985 26.375C13.8865 26.587 13.6393 26.7393 13.3567 26.832C13.074 26.9248 12.7773 26.9844 12.4664 27.0109C12.1556 27.0109 11.8588 26.9579 11.5762 26.8519C11.2936 26.7459 11.0322 26.587 10.792 26.375L7.84579 23.6129C7.54905 23.3348 7.19579 23.1957 6.78601 23.1957C6.37622 23.1957 6.02296 23.3348 5.72622 23.6129C5.42948 23.8911 5.27405 24.2289 5.25992 24.6264C5.25992 25.0105 5.40829 25.3417 5.70503 25.6199L15.7094 35.0189C16.8963 36.1316 18.1963 36.9795 19.6094 37.5623C21.0224 38.1452 22.5697 38.4433 24.2512 38.4565C25.5654 38.4565 26.7947 38.2247 27.9393 37.761C29.0838 37.2974 30.0871 36.6615 30.949 35.8534C31.811 35.0453 32.4893 34.1048 32.9838 33.0318C33.4784 31.9587 33.7327 30.7996 33.7469 29.5544V21.9239Z" fill="#FFC72C"/>
</svg>
