<svg width="110" height="84" viewBox="0 0 110 84" fill="none" xmlns="http://www.w3.org/2000/svg">
<g filter="url(#filter0_d_2997_15580)">
<g clip-path="url(#clip0_2997_15580)">
<path d="M4 0H105.333V76H4" fill="#BD3D44"/>
<path d="M4 8.75391H105.333H4ZM4 20.4231H105.333H4ZM4 32.1397H105.333H4ZM4 43.8564H105.333H4ZM4 55.5731H105.333H4ZM4 67.2897H105.333H4Z" fill="black"/>
<path d="M4 5.82812V11.6865H105.333V5.82812H4ZM4 17.4973V23.3556H105.333V17.4973H4ZM4 29.214V35.0723H105.333V29.214H4ZM4 40.9306V46.789H105.333V40.9306H4ZM4 52.6473V58.5056H105.333V52.6473H4ZM4 64.364V70.2223H105.333V64.364H4Z" fill="white"/>
<path d="M4 0H61.76V40.9292H4" fill="#192F5D"/>
<path d="M56.8812 34.5172L58.3062 38.7922L54.6646 36.1005H59.0979L55.4562 38.7922L56.8812 34.5172ZM47.3812 34.5172L48.8062 38.7922L45.1646 36.1005H49.5979L45.9562 38.7922L47.3812 34.5172ZM37.7229 34.5172L39.1479 38.7922L35.5062 36.1005H39.9396L36.2979 38.7922L37.7229 34.5172ZM28.0646 34.5172L29.4896 38.7922L25.8479 36.1005H30.2812L26.6396 38.7922L28.0646 34.5172ZM18.4062 34.5172L19.8312 38.7922L16.1896 36.1005H20.6229L16.9812 38.7922L18.4062 34.5172ZM8.74792 34.5172L10.1729 38.7922L6.53125 36.1005H10.9646L7.32292 38.7922L8.74792 34.5172ZM52.1312 30.4005L53.5562 34.6755L49.9146 31.9839H54.3479L50.7062 34.6755L52.1312 30.4005ZM42.4729 30.4005L43.8979 34.6755L40.2562 31.9839H44.6896L41.0479 34.6755L42.4729 30.4005ZM32.9729 30.4005L34.3979 34.6755L30.7562 31.9839H35.1896L31.5479 34.6755L32.9729 30.4005ZM23.3146 30.4005L24.7396 34.6755L21.0979 31.9839H25.5312L21.8896 34.6755L23.3146 30.4005ZM13.6562 30.4005L15.0812 34.6755L11.4396 31.9839H15.8729L12.2312 34.6755L13.6562 30.4005ZM56.8812 26.2839L58.3062 30.5589L54.6646 27.8672H59.0979L55.4562 30.5589L56.8812 26.2839ZM47.3812 26.2839L48.8062 30.5589L45.1646 27.8672H49.5979L45.9562 30.5589L47.3812 26.2839ZM37.7229 26.2839L39.1479 30.5589L35.5062 27.8672H39.9396L36.2979 30.5589L37.7229 26.2839ZM28.0646 26.2839L29.4896 30.5589L25.8479 27.8672H30.2812L26.6396 30.5589L28.0646 26.2839ZM18.4062 26.2839L19.8312 30.5589L16.1896 27.8672H20.6229L16.9812 30.5589L18.4062 26.2839ZM8.74792 26.2839L10.1729 30.5589L6.53125 27.8672H10.9646L7.32292 30.5589L8.74792 26.2839ZM52.1312 22.3255L53.5562 26.6005L49.9146 23.9089H54.3479L50.7062 26.6005L52.1312 22.3255ZM42.4729 22.3255L43.8979 26.6005L40.2562 23.9089H44.6896L41.0479 26.6005L42.4729 22.3255ZM32.9729 22.3255L34.3979 26.6005L30.7562 23.9089H35.1896L31.5479 26.6005L32.9729 22.3255ZM23.3146 22.3255L24.7396 26.6005L21.0979 23.9089H25.5312L21.8896 26.6005L23.3146 22.3255ZM13.6562 22.3255L15.0812 26.6005L11.4396 23.9089H15.8729L12.2312 26.6005L13.6562 22.3255ZM56.8812 18.2089L58.3062 22.4839L54.6646 19.7922H59.0979L55.4562 22.4839L56.8812 18.2089ZM47.3812 18.2089L48.8062 22.4839L45.1646 19.7922H49.5979L45.9562 22.4839L47.3812 18.2089ZM37.7229 18.2089L39.1479 22.4839L35.5062 19.7922H39.9396L36.2979 22.4839L37.7229 18.2089ZM28.0646 18.2089L29.4896 22.4839L25.8479 19.7922H30.2812L26.6396 22.4839L28.0646 18.2089ZM18.4062 18.2089L19.8312 22.4839L16.1896 19.7922H20.6229L16.9812 22.4839L18.4062 18.2089ZM8.74792 18.2089L10.1729 22.4839L6.53125 19.7922H10.9646L7.32292 22.4839L8.74792 18.2089ZM52.1312 14.0922L53.5562 18.3672L49.9146 15.6755H54.3479L50.7062 18.3672L52.1312 14.0922ZM42.4729 14.0922L43.8979 18.3672L40.2562 15.6755H44.6896L41.0479 18.3672L42.4729 14.0922ZM32.9729 14.0922L34.3979 18.3672L30.7562 15.6755H35.1896L31.5479 18.3672L32.9729 14.0922ZM23.3146 14.0922L24.7396 18.3672L21.0979 15.6755H25.5312L21.8896 18.3672L23.3146 14.0922ZM13.6562 14.0922L15.0812 18.3672L11.4396 15.6755H15.8729L12.2312 18.3672L13.6562 14.0922ZM56.8812 9.97552L58.3062 14.2505L54.6646 11.5589H59.0979L55.4562 14.2505L56.8812 9.97552ZM47.3812 9.97552L48.8062 14.2505L45.1646 11.5589H49.5979L45.9562 14.2505L47.3812 9.97552ZM37.7229 9.97552L39.1479 14.2505L35.5062 11.5589H39.9396L36.2979 14.2505L37.7229 9.97552ZM28.0646 9.97552L29.4896 14.2505L25.8479 11.5589H30.2812L26.6396 14.2505L28.0646 9.97552ZM18.4062 9.97552L19.8312 14.2505L16.1896 11.5589H20.6229L16.9812 14.2505L18.4062 9.97552ZM8.74792 9.97552L10.1729 14.2505L6.53125 11.5589H10.9646L7.32292 14.2505L8.74792 9.97552ZM52.1312 5.85885L53.5562 10.1339L49.9146 7.44219H54.3479L50.7062 10.1339L52.1312 5.85885ZM42.4729 5.85885L43.8979 10.1339L40.2562 7.44219H44.6896L41.0479 10.1339L42.4729 5.85885ZM32.9729 5.85885L34.3979 10.1339L30.7562 7.44219H35.1896L31.5479 10.1339L32.9729 5.85885ZM23.3146 5.85885L24.7396 10.1339L21.0979 7.44219H25.5312L21.8896 10.1339L23.3146 5.85885ZM13.6562 5.85885L15.0812 10.1339L11.4396 7.44219H15.8729L12.2312 10.1339L13.6562 5.85885ZM56.8812 1.74219L58.3062 6.01719L54.6646 3.32552H59.0979L55.4562 6.01719L56.8812 1.74219ZM47.3812 1.74219L48.8062 6.01719L45.1646 3.32552H49.5979L45.9562 6.01719L47.3812 1.74219ZM37.7229 1.74219L39.1479 6.01719L35.5062 3.32552H39.9396L36.2979 6.01719L37.7229 1.74219ZM28.0646 1.74219L29.4896 6.01719L25.8479 3.32552H30.2812L26.6396 6.01719L28.0646 1.74219ZM18.4062 1.74219L19.8312 6.01719L16.1896 3.32552H20.6229L16.9812 6.01719L18.4062 1.74219ZM8.74792 1.74219L10.1729 6.01719L6.53125 3.32552H10.9646L7.32292 6.01719L8.74792 1.74219Z" fill="white"/>
</g>
</g>
<defs>
<filter id="filter0_d_2997_15580" x="0" y="0" width="109.336" height="84" filterUnits="userSpaceOnUse" color-interpolation-filters="sRGB">
<feFlood flood-opacity="0" result="BackgroundImageFix"/>
<feColorMatrix in="SourceAlpha" type="matrix" values="0 0 0 0 0 0 0 0 0 0 0 0 0 0 0 0 0 0 127 0" result="hardAlpha"/>
<feOffset dy="4"/>
<feGaussianBlur stdDeviation="2"/>
<feComposite in2="hardAlpha" operator="out"/>
<feColorMatrix type="matrix" values="0 0 0 0 0 0 0 0 0 0 0 0 0 0 0 0 0 0 0.25 0"/>
<feBlend mode="normal" in2="BackgroundImageFix" result="effect1_dropShadow_2997_15580"/>
<feBlend mode="normal" in="SourceGraphic" in2="effect1_dropShadow_2997_15580" result="shape"/>
</filter>
<clipPath id="clip0_2997_15580">
<rect x="4" width="101.333" height="76" rx="10" fill="white"/>
</clipPath>
</defs>
</svg>
