<svg width="55" height="55" viewBox="0 0 55 55" fill="none" xmlns="http://www.w3.org/2000/svg">
<rect width="55" height="55" rx="27.5" fill="#004B75"/>
<path fill-rule="evenodd" clip-rule="evenodd" d="M27.4948 4.58203C30.5042 4.58202 33.4842 5.17476 36.2646 6.32642C39.045 7.47809 41.5713 9.16611 43.6993 11.2941C45.8273 13.4221 47.5154 15.9484 48.6671 18.7288C49.8187 21.5092 50.4115 24.4892 50.4115 27.4987C50.4115 40.1552 40.1513 50.4154 27.4948 50.4154C14.8383 50.4154 4.57812 40.1552 4.57812 27.4987C4.57812 14.8422 14.8383 4.58203 27.4948 4.58203ZM29.7865 29.7904H25.2031C19.5296 29.7904 14.6588 33.2265 12.558 38.1315C15.882 42.7926 21.3335 45.832 27.4948 45.832C33.656 45.832 39.1075 42.7926 42.4317 38.1312C40.3308 33.2265 35.46 29.7904 29.7865 29.7904ZM27.4948 11.457C23.6978 11.457 20.6198 14.5351 20.6198 18.332C20.6198 22.129 23.6978 25.207 27.4948 25.207C31.2917 25.207 34.3698 22.129 34.3698 18.332C34.3698 14.5351 31.2918 11.457 27.4948 11.457Z" fill="white"/>
</svg>
